<?xml version="1.0" encoding="UTF-8" standalone="no"?>
<svg
   width="250"
   height="250"
   version="1.1"
   enable-background="new 0 0 1215 250"
   xml:space="preserve"
   id="svg24802"
   sodipodi:docname="sailpoint.svg"
   inkscape:version="1.1.1 (3bf5ae0d25, 2021-09-20)"
   xmlns:inkscape="http://www.inkscape.org/namespaces/inkscape"
   xmlns:sodipodi="http://sodipodi.sourceforge.net/DTD/sodipodi-0.dtd"
   xmlns="http://www.w3.org/2000/svg"
   xmlns:svg="http://www.w3.org/2000/svg"><defs
   id="defs24806">
  
  
 </defs><sodipodi:namedview
   id="namedview24804"
   pagecolor="#505050"
   bordercolor="#eeeeee"
   borderopacity="1"
   inkscape:pageshadow="0"
   inkscape:pageopacity="0"
   inkscape:pagecheckerboard="0"
   showgrid="false"
   inkscape:zoom="2.876"
   inkscape:cx="125"
   inkscape:cy="125"
   inkscape:window-width="1920"
   inkscape:window-height="1121"
   inkscape:window-x="2391"
   inkscape:window-y="-9"
   inkscape:window-maximized="1"
   inkscape:current-layer="svg_1" />
 <g
   id="svg_1">
   <path
   fill="#012169"
   d="m 131.1074,11.313 10.193,28.542 c 42.816,8.155 75.439,44.858 75.439,89.709 0,49.955 -40.779,91.749 -91.752,91.749 -21.409,0 -41.796,-8.147 -58.109,-20.385 8.154,-2.04 18.352,-2.04 26.503,-3.062 27.527,-22.426 45.877,-56.066 45.877,-103.979 1.017,-34.665 -10.193,-67.284 -20.391,-90.73 -8.155,59.128 -34.663,139.662 -69.319,178.4 -10.195,-14.272 -15.291,-31.598 -15.291,-50.968 0,-42.817 28.542,-78.501 68.304,-88.697 l 5.096,-28.542 C 50.5714,21.51 6.7354,70.441 6.7354,130.591 c 0,65.24 53.01,118.251 118.255,118.251 65.249,0 118.259,-53.011 118.259,-118.251 1.015,-63.207 -48.936,-115.201 -112.142,-119.278 z"
   id="svg_15"
   style="fill:#c5c5c5;fill-opacity:1" />
   <path
   fill="#012169"
   d="m 99.5044,203.991 81.557,-10.193 c 6.118,-11.218 9.178,-24.469 9.178,-37.725 0,-31.6 -18.353,-67.283 -44.856,-97.863 1.018,4.078 4.075,18.351 4.075,39.76 -0.003,44.85 -21.411,80.526 -49.954,106.021 z"
   id="svg_16"
   style="fill:#c5c5c5;fill-opacity:1" />
  </g>

</svg>
