<?xml version="1.0" encoding="UTF-8" standalone="no"?>
<svg
   id="Layer_1"
   style="enable-background:new 0 0 64 64;"
   version="1.1"
   viewBox="0 0 64 64"
   xml:space="preserve"
   sodipodi:docname="source.svg"
   inkscape:version="1.1.1 (3bf5ae0d25, 2021-09-20)"
   xmlns:inkscape="http://www.inkscape.org/namespaces/inkscape"
   xmlns:sodipodi="http://sodipodi.sourceforge.net/DTD/sodipodi-0.dtd"
   xmlns="http://www.w3.org/2000/svg"
   xmlns:svg="http://www.w3.org/2000/svg"><defs
     id="defs837" /><sodipodi:namedview
     id="namedview835"
     pagecolor="#505050"
     bordercolor="#eeeeee"
     borderopacity="1"
     inkscape:pageshadow="0"
     inkscape:pageopacity="0"
     inkscape:pagecheckerboard="0"
     showgrid="false"
     inkscape:zoom="13.453125"
     inkscape:cx="32"
     inkscape:cy="32"
     inkscape:window-width="1920"
     inkscape:window-height="1121"
     inkscape:window-x="2391"
     inkscape:window-y="-9"
     inkscape:window-maximized="1"
     inkscape:current-layer="g832" /><style
     type="text/css"
     id="style824">
	.st0{fill:#134563;}
</style><g
     id="g832"
     style="fill:#666666"><path
       class="st0"
       d="m 15.8,40.1 c -4.4,0 -7.9,-3.5 -7.9,-7.9 0,-4.4 3.5,-7.9 7.9,-7.9 4.4,0 7.9,3.5 7.9,7.9 0,4.3 -3.5,7.9 -7.9,7.9 z m 0,-12.9 c -2.7,0 -4.9,2.2 -4.9,4.9 0,2.7 2.2,4.9 4.9,4.9 2.7,0 4.9,-2.2 4.9,-4.9 0,-2.6 -2.2,-4.9 -4.9,-4.9 z"
       id="Fill-61"
       style="fill:#c5c5c5;fill-opacity:1" /><path
       class="st0"
       d="M 47.9,24 C 43.5,24 40,20.5 40,16.1 c 0,-4.4 3.5,-7.9 7.9,-7.9 4.4,0 7.9,3.5 7.9,7.9 0,4.4 -3.6,7.9 -7.9,7.9 z m 0,-12.8 c -2.7,0 -4.9,2.2 -4.9,4.9 0,2.7 2.2,4.9 4.9,4.9 2.7,0 4.9,-2.2 4.9,-4.9 0,-2.7 -2.2,-4.9 -4.9,-4.9 z"
       id="Fill-62"
       style="fill:#c5c5c5;fill-opacity:1" /><path
       class="st0"
       d="m 47.9,56.1 c -4.4,0 -7.9,-3.5 -7.9,-7.9 0,-4.4 3.5,-7.9 7.9,-7.9 4.4,0 7.9,3.5 7.9,7.9 0,4.4 -3.6,7.9 -7.9,7.9 z m 0,-12.8 c -2.7,0 -4.9,2.2 -4.9,4.9 0,2.7 2.2,4.9 4.9,4.9 2.7,0 4.9,-2.2 4.9,-4.9 0,-2.7 -2.2,-4.9 -4.9,-4.9 z"
       id="Fill-63"
       style="fill:#c5c5c5;fill-opacity:1" /><polyline
       class="st0"
       id="Fill-64"
       points="-238.6,-333.2 -259.2,-343.5 -257.8,-346.4 -237.1,-336.1 -238.6,-333.2    "
       style="fill:#c5c5c5;fill-opacity:1"
       transform="translate(280,380)" /><polyline
       class="st0"
       id="Fill-65"
       points="-257.8,-349.3 -259.2,-352.1 -238.6,-362.4 -237.1,-359.6 -257.8,-349.3    "
       style="fill:#c5c5c5;fill-opacity:1"
       transform="translate(280,380)" /></g></svg>
