<?xml version="1.0" encoding="UTF-8" standalone="no"?>
<svg
   id="svg"
   version="1.1"
   width="400"
   height="417.910447761194"
   viewBox="0, 0, 400,417.910447761194"
   sodipodi:docname="transform.svg"
   inkscape:version="1.1.1 (3bf5ae0d25, 2021-09-20)"
   xmlns:inkscape="http://www.inkscape.org/namespaces/inkscape"
   xmlns:sodipodi="http://sodipodi.sourceforge.net/DTD/sodipodi-0.dtd"
   xmlns="http://www.w3.org/2000/svg"
   xmlns:svg="http://www.w3.org/2000/svg">
  <defs
     id="defs16577" />
  <sodipodi:namedview
     id="namedview16575"
     pagecolor="#505050"
     bordercolor="#eeeeee"
     borderopacity="1"
     inkscape:pageshadow="0"
     inkscape:pageopacity="0"
     inkscape:pagecheckerboard="0"
     showgrid="false"
     inkscape:zoom="1"
     inkscape:cx="3.5"
     inkscape:cy="-83.5"
     inkscape:window-width="2400"
     inkscape:window-height="1271"
     inkscape:window-x="-9"
     inkscape:window-y="-9"
     inkscape:window-maximized="1"
     inkscape:current-layer="svg" />
  <path
     id="path0"
     d="m 121.333,0.721 c -3.035,1.078 -4.711,2.554 -6.574,5.791 -0.914,1.589 -2.693,4.598 -3.953,6.688 -1.261,2.09 -3.968,6.68 -6.018,10.2 -2.049,3.52 -5.106,8.74 -6.793,11.6 -1.686,2.86 -4.654,7.9 -6.595,11.2 -1.941,3.3 -4.648,7.89 -6.016,10.2 -1.368,2.31 -4.427,7.53 -6.798,11.6 -2.371,4.07 -5.427,9.29 -6.791,11.6 -1.364,2.31 -4.009,6.81 -5.878,10 -4.084,6.971 -9.541,16.259 -12.926,22 -1.362,2.31 -4.056,6.9 -5.987,10.2 -1.93,3.3 -5.048,8.61 -6.928,11.8 -1.879,3.19 -4.525,7.69 -5.879,10 -1.355,2.31 -3.998,6.81 -5.873,10 -1.876,3.19 -4.94,8.41 -6.809,11.6 -9.366,15.989 -11.969,20.414 -13.411,22.8 -9,14.888 -9.605,17.228 -5.616,21.714 2.966,3.337 27.256,14.363 41.312,18.755 4.531,1.415 18.932,5.482 20.366,5.751 5.876193,1.54195 7.50072,1.82 13.834,2.852 0.33,0.11 1.57,0.273 2.756,0.361 4.655901,0.81861 9.693854,1.54524 13.644,1.992 0.77,0.071 3.2,0.328 5.4,0.572 2.2,0.244 10.075,0.55 17.5,0.68 l 13.5,0.235 v -6.856 -6.856 c -8.35197,0.25022 -16.36199,-0.6373 -23.908,-1.017 -9.498784,-0.89568 -19.939984,-1.34418 -26.655,-5.982 -4.975,-3.794 -4.787,-8.049 1.399,-31.601 2.893286,-9.79972 5.07204,-20.49959 7.152,-28.815 23.67414,-96.09551 25.4949,-117.179292 40.028,-130.88 5.908,-0.536 8.322,1.598 14.815,13.095 2.672,4.73 5.538,9.77 6.37,11.2 0.831,1.43 3.443,6.02 5.805,10.2 5.235,9.268 10.337,18.255 13.399,23.6 1.26,2.2 4.413,7.78 7.006,12.4 2.594,4.62 5.555,9.84 6.581,11.6 1.026,1.76 3.636,6.35 5.801,10.2 2.164,3.85 5.235,9.25 6.824,12 1.588,2.75 3.267,5.753 3.73,6.673 0.463,0.92 1.027,1.788 1.255,1.928 0.303,0.188 9.439,-4.072 10.324,-4.814 0.13,-0.109 -2.576,-4.889 -6.898,-12.187 -3.446,-5.82 -8.76,-14.85 -12.239,-20.8 -1.608,-2.75 -3.728,-6.35 -4.711,-8 -1.751,-2.94 -3.111,-5.255 -11.153,-19 -2.189,-3.74 -5.575,-9.5 -7.526,-12.8 -1.95,-3.3 -4.474,-7.62 -5.609,-9.6 -1.134,-1.98 -2.873,-4.95 -3.864,-6.6 -0.992,-1.65 -3.385,-5.7 -5.318,-9 -1.934,-3.3 -4.9,-8.34 -6.592,-11.2 -1.692,-2.86 -5.024,-8.53 -7.404,-12.6 -5.995,-10.251 -6.49,-11.01 -8.118,-12.439 -2.832,-2.487 -6.556,-3.25 -9.961,-2.04 M 258.2,137.336 c -7.7,4.003 -15.35,8.018 -17,8.923 -1.65,0.905 -9.21,4.839 -16.8,8.742 -7.59,3.903 -16.41,8.496 -19.6,10.205 -3.19,1.71 -13.36,7.024 -22.6,11.81 -23.101,11.965 -23.494,12.17 -27.94,14.57 -4.156,2.242 -5.456,3.609 -5.459,5.738 -0.11175,32.50896 -0.10501,65.51096 0.042,94.946 l 0.217,57.271 1.063,1.393 c 1.146,1.503 2.695,2.363 27.477,15.254 5.17,2.689 11.38,5.934 13.8,7.209 4.112,2.168 11.615,6.088 43.572,22.761 7.025,3.665 12.965,6.818 13.2,7.005 2.141,1.706 28.527,14.477 29.506,14.281 0.624,-0.124 4.687,-2.152 9.028,-4.505 4.342,-2.353 10.144,-5.48 12.894,-6.95 2.75,-1.469 8.06,-4.346 11.8,-6.391 3.74,-2.046 8.87,-4.828 11.4,-6.182 6.786,-3.632 15.679,-8.443 20,-10.819 3.793,-2.085 14.362,-7.811 24.2,-13.109 10.888,-5.864 26.658,-14.445 29.682,-16.151 0.924,-0.522 1.959,-1.346 2.3,-1.832 0.552,-0.789 0.993,-9.26438 0.992,-80.07838 -0.002,-90.799 0.56812,-79.11537 -4.066,-82.931 C 394.71637,187.51446 388.5,185.078 383,182.399 c -5.5,-2.679 -11.71,-5.682 -13.8,-6.674 -2.09,-0.992 -6.32,-3.028 -9.4,-4.525 -3.08,-1.496 -8.66,-4.196 -12.4,-6 -3.74,-1.804 -9.32,-4.506 -12.4,-6.005 -42.161,-20.518 -60.469,-29.192 -61.563,-29.165 -0.783,0.018 -6.37,2.697 -15.237,7.306 m 30.8,10.673 c 6.38,3.135 15.74,7.721 20.8,10.191 9.431,4.604 22.994,11.27 46.6,22.903 7.37,3.632 16.325,8.01 19.9,9.729 3.575,1.719 6.5,3.199 6.5,3.29 0,0.308 -6.658,4.104 -22.4,12.773 -3.19,1.757 -5.98,3.336 -6.2,3.508 -0.22,0.173 -2.2,1.298 -4.4,2.501 -6.413,3.505 -22.959,12.73 -28.4,15.833 -1.76,1.004 -5.36,3.021 -8,4.482 -10.967,6.07 -13.794,7.644 -17.6,9.801 -13.936,7.896 -18.063,10.157 -18.557,10.168 -0.691,0.015 -111.635,-55.288 -111.64,-55.65 -0.006,-0.476 0.253,-0.614 44.697,-23.773 7.425,-3.869 14.94,-7.812 16.7,-8.762 1.76,-0.95 10.04,-5.286 18.4,-9.635 8.36,-4.349 18.17,-9.468 21.8,-11.374 l 6.6,-3.467 1.8,0.891 c 0.99,0.49 7.02,3.456 13.4,6.591 m 100.901,126.089 0.101,71.431 -5.701,3.085 c -3.136,1.697 -7.501,4.071 -9.701,5.275 -5.483,3.003 -17.279,9.401 -23.8,12.908 -2.97,1.598 -7.38,3.996 -9.8,5.33 -2.42,1.334 -6.47,3.53 -9,4.88 -2.53,1.35 -7.66,4.129 -11.4,6.175 -3.74,2.045 -9.23,5.025 -12.2,6.621 -2.97,1.597 -8.46,4.575 -12.2,6.619 -10.294,5.626 -13.171,7.154 -13.5,7.166 -0.165,0.007 -0.3,-31.823 -0.3,-70.732 v -70.743 l 5.9,-3.309 c 3.245,-1.819 7.34,-4.129 9.1,-5.132 1.76,-1.004 5.36,-3.018 8,-4.477 2.64,-1.459 7.95,-4.418 11.8,-6.577 3.85,-2.159 9.34,-5.223 12.2,-6.808 2.86,-1.586 8.17,-4.555 11.8,-6.598 3.63,-2.043 8.31,-4.658 10.4,-5.812 3.644,-2.011 9.016,-5.016 23.8,-13.314 3.74,-2.099 8.33,-4.673 10.2,-5.72 1.87,-1.047 3.58,-1.858 3.8,-1.802 0.264,0.068 0.434,24.333 0.501,71.534 M 32.972,249.72 c -0.315,0.176 -0.575,0.176 -0.578,0 -0.003,-0.176 -0.138,-0.136 -0.3,0.089 -0.162,0.225 -0.768,0.711 -1.348,1.08 -3.004,1.909 -3.622,9.261 -2.06,24.511 0.112,1.1 0.247,2.588 0.299,3.307 0.053,0.719 0.212,1.424 0.355,1.567 0.143,0.142 0.262,0.724 0.263,1.293 0.005,1.486 2.28,12.531 3.262,15.833 0.457,1.54 0.873,2.98 0.923,3.2 0.05,0.22 0.204,0.67 0.341,1 0.138,0.33 1.077,3.03 2.087,6 8.767,25.778 27.42,47.462 52.165,60.644 3.919,2.088 6.869631,3.65232 6.543631,3.76532 -0.32,0.111 -1.804631,0.72468 -3.124631,1.17468 -7.634,2.604 -8.575,12.041 -1.344,13.487 1.209666,0.46998 2.404381,0.50767 3.855544,0.16987 C 94.732214,386.70874 96.45,386.202 99.2,385.447 c 9.984,-2.745 20.224,-5.969 21.251,-6.692 2.708,-1.905 2.973,-5.331 0.924,-11.955 -0.783,-2.53 -2.395,-8.072 -3.583,-12.315 -2.333,-8.335 -2.67913,-9.70912 -4.98713,-10.73312 -2.39761,-1.23169 -3.09256,-1.42112 -5.11634,-1.2416 -4.932,0 -6.46053,7.83872 -2.94653,16.77572 0.664,1.688 0.188,1.609 -5.211,-0.857 -19.775,-9.033 -36.216,-25.042 -45.837,-44.629 -3.806,-7.751 -8.835,-22.369 -8.351,-24.281 0.095,-0.374 0.027,-0.734 -0.15,-0.8 -1.286,-0.476 -3.066,-14.348 -3.532,-27.519 -0.168,-4.777 -0.44,-7.713 -0.766,-8.284 -1.41,-2.466 -5.954,-4.298 -7.923,-3.196"
     stroke="none"
     fill="#040404"
     fill-rule="evenodd"
     style="fill:#c5c5c5;fill-opacity:1;stroke-width:0;stroke-miterlimit:4;stroke-dasharray:none"
     sodipodi:nodetypes="cccccsssscsccccccccccccsccccccccccccccsccscsccccccccsccccsscccccccccccccccccccccssscscccccsssccccccccsssccccccsccssccscscccsscsccscccssccccccscccsccccccccccccccccc" />
  <path
     id="path1"
     d="m 29.413,251.013 c -0.777,0.778 -1.412,1.633 -1.411,1.9 0.001,0.268 0.407,-0.019 0.901,-0.637 0.495,-0.618 1.349,-1.469 1.898,-1.891 0.55,-0.422 0.78,-0.771 0.512,-0.776 -0.267,-0.005 -1.122,0.627 -1.9,1.404 m 10.004,-0.343 c 1.229,1.097 1.815,1.966 2.447,3.626 l 0.573,1.504 -0.228,-1.398 c -0.24,-1.47 -2.051,-4.042 -3.032,-4.306 -0.343,-0.092 -0.245,0.141 0.24,0.574 M 27.351,260.8 c 0,2.53 0.065,3.565 0.145,2.3 0.079,-1.265 0.079,-3.335 0,-4.6 -0.08,-1.265 -0.145,-0.23 -0.145,2.3 m 14.797,0.4 c 0,2.31 0.066,3.255 0.147,2.1 0.081,-1.155 0.081,-3.045 0,-4.2 -0.081,-1.155 -0.147,-0.21 -0.147,2.1 M 282.7,332.327 282.598,262.2 m -254.905,9 c 0,0.77 0.082,1.085 0.183,0.7 0.1,-0.385 0.1,-1.015 0,-1.4 -0.101,-0.385 -0.183,-0.07 -0.183,0.7 m 3.907,25 c 0,0.33 0.18,0.6 0.4,0.6 0.22,0 0.4,-0.27 0.4,-0.6 0,-0.33 -0.18,-0.6 -0.4,-0.6 -0.22,0 -0.4,0.27 -0.4,0.6 m 16.456,2.2 c 0,0.33 0.155,0.96 0.344,1.4 0.217,0.504 0.344,0.578 0.344,0.2 0,-0.33 -0.155,-0.96 -0.344,-1.4 -0.217,-0.504 -0.344,-0.578 -0.344,-0.2 m 3.55,10.3 c 0.011,0.547 0.747,1.481 0.982,1.246 0.315,-0.315 -0.187,-1.546 -0.631,-1.546 -0.196,0 -0.354,0.135 -0.351,0.3 m 1.228,1.9 c 0,0.22 0.344,1.03 0.766,1.8 0.422,0.77 0.766,1.22 0.766,1 0,-0.22 -0.344,-1.03 -0.766,-1.8 -0.422,-0.77 -0.766,-1.22 -0.766,-1 M 37.2,312.781 c 0,0.21 0.209,0.84 0.464,1.4 0.515,1.131 1.391,1.43 0.933,0.319 -0.158,-0.385 -0.378,-1.015 -0.489,-1.4 -0.211,-0.733 -0.908,-0.978 -0.908,-0.319 m 3.205,6.528 c -0.009,0.573 3.244,6.776 3.447,6.572 0.111,-0.11 -0.618,-1.704 -1.62,-3.541 -1.002,-1.837 -1.824,-3.201 -1.827,-3.031 M 44,326.626 c 0,0.461 0.885,1.859 1.68,2.654 0.883,0.883 0.88,0.868 -0.265,-1.38 C 44.754,326.601 44,325.923 44,326.626 m 4,6.327 c 0,0.54 2.426,3.847 2.823,3.847 0.211,0 0.159,-0.36 -0.116,-0.8 -0.275,-0.44 -0.636,-0.8 -0.803,-0.8 -0.167,0 -0.304,-0.188 -0.304,-0.417 0,-0.229 -0.36,-0.803 -0.8,-1.275 -0.44,-0.472 -0.8,-0.722 -0.8,-0.555 m 4.4,6.149 c 0,0.22 0.27,0.624 0.6,0.898 0.335,0.278 0.6,0.321 0.6,0.098 0,-0.22 -0.27,-0.624 -0.6,-0.898 -0.335,-0.278 -0.6,-0.321 -0.6,-0.098 m 3.2,3.945 c 0,0.517 2.327,2.76 2.59,2.496 0.109,-0.109 -0.429,-0.806 -1.196,-1.549 -0.767,-0.743 -1.394,-1.169 -1.394,-0.947 m 3.6,3.979 c 0,0.521 4.318,4.79 4.58,4.528 0.109,-0.11 -0.876,-1.264 -2.19,-2.564 -1.315,-1.301 -2.39,-2.184 -2.39,-1.964 m 8.4,8.187 c 2.518166,2.32361 2.988601,2.03043 0.776,0.005 -1.197,-1.09 -2.356,-1.982 -2.576,-1.983 -0.22,0 0.59,0.89 1.8,1.978"
     stroke="none"
     fill="#cbcbcb"
     fill-rule="evenodd"
     style="stroke:none;stroke-width:2.1;stroke-miterlimit:4;stroke-dasharray:none;stroke-opacity:1"
     sodipodi:nodetypes="csccsccccccccccccssccccccccssscccscccssccsssccscccccsccscccssssscccsccccscccsccccc" />
  <path
     id="path2"
     d="m 206.3,139.429 c -1.551,0.841 -1.375,1.132 0.2,0.33 1.508,-0.766 1.775,-0.965 1.267,-0.943 -0.202,0.009 -0.862,0.285 -1.467,0.613 m 182.999,134.238 c -0.054,39.087 -0.203,71.397 -0.329,71.8 -0.206,0.656 -0.185,0.663 0.201,0.067 0.305,-0.472 0.401,-21.453 0.329,-71.8 -0.10453,-78.73893 -0.0912,-78.90219 -0.201,-0.067 M 52.678,311.395 c 0.366,0.767 0.72,1.34 0.787,1.274 0.219,-0.22 -0.833,-2.669 -1.146,-2.669 -0.168,0 -0.007,0.628 0.359,1.395 M 54.2,314.4 c 0.341,0.66 0.711,1.2 0.821,1.2 0.11,0 -0.08,-0.54 -0.421,-1.2 -0.341,-0.66 -0.711,-1.2 -0.821,-1.2 -0.11,0 0.08,0.54 0.421,1.2 m 20.8,27.4 0.97,1.1 m -11.17,9.5 c 0.235,0.44 0.63,0.8 0.876,0.8 0.246,0 0.122,-0.36 -0.276,-0.8 -0.398,-0.44 -0.792,-0.8 -0.876,-0.8 -0.084,0 0.041,0.36 0.276,0.8 m 99.2,7.182 c 0,0.393 1.549,1.002 1.832,0.719 0.094,-0.094 -0.279,-0.376 -0.83,-0.627 -0.551,-0.251 -1.002,-0.293 -1.002,-0.092 m 40.4,20.997 c 0,0.11 0.54,0.48 1.2,0.821 0.66,0.341 1.2,0.531 1.2,0.421 0,-0.11 -0.54,-0.48 -1.2,-0.821 -0.66,-0.341 -1.2,-0.531 -1.2,-0.421"
     stroke="none"
     fill="#7c7c7c"
     fill-rule="evenodd"
     sodipodi:nodetypes="cccccccccccsccsssccccsssccssccsssc" />
  <path
     id="path3"
     d="m 112.102,10.5 c -0.566,0.715 -1.362,2.3 -1.156,2.3 0.096,0 0.547,-0.63 1.001,-1.4 0.826,-1.399 0.902,-1.843 0.155,-0.9 M 150.6,54.8 c 0.341,0.66 0.711,1.2 0.821,1.2 0.11,0 -0.08,-0.54 -0.421,-1.2 -0.341,-0.66 -0.711,-1.2 -0.821,-1.2 -0.11,0 0.08,0.54 0.421,1.2 m 32.2,56.689 c 0,0.232 0.371,0.847 0.824,1.367 l 0.823,0.944 -0.702,-1.2 c -0.925,-1.579 -0.945,-1.603 -0.945,-1.111 m 84.7,20.74 c -1.495,0.811 -1.404,1.149 0.1,0.371 0.66,-0.341 1.2,-0.706 1.2,-0.81 0,-0.258 -0.043,-0.243 -1.3,0.439 m -64.4,8.598 c -0.825,0.436 -1.5,0.881 -1.5,0.991 0,0.109 0.72,-0.169 1.6,-0.618 0.88,-0.449 1.6,-0.903 1.6,-1.008 0,-0.262 -0.003,-0.261 -1.7,0.635 m 69.6,0.202 c -1.495,0.811 -1.404,1.149 0.1,0.371 0.66,-0.341 1.2,-0.706 1.2,-0.81 0,-0.258 -0.043,-0.243 -1.3,0.439 m -10.8,5.6 c -1.451,0.787 -1.401,1.015 0.1,0.449 0.66,-0.25 1.2,-0.594 1.2,-0.766 0,-0.393 0.016,-0.397 -1.3,0.317 m 23.313,-0.335 c 0.014,0.315 4.787,2.598 4.787,2.29 0,-0.095 -1.08,-0.718 -2.4,-1.384 -1.32,-0.666 -2.394,-1.074 -2.387,-0.906 m -55.713,5.733 c -0.825,0.436 -1.5,0.881 -1.5,0.991 0,0.109 0.72,-0.169 1.6,-0.618 0.88,-0.449 1.6,-0.903 1.6,-1.008 0,-0.262 -0.003,-0.261 -1.7,0.635 m 18,2.202 c -1.495,0.811 -1.404,1.149 0.1,0.371 0.66,-0.341 1.2,-0.706 1.2,-0.81 0,-0.258 -0.043,-0.243 -1.3,0.439 m -30.4,4.198 c -0.825,0.436 -1.5,0.881 -1.5,0.991 0,0.109 0.72,-0.169 1.6,-0.618 0.88,-0.449 1.6,-0.903 1.6,-1.008 0,-0.262 -0.003,-0.261 -1.7,0.635 m 114.933,-0.676 c 0.409,0.37 3.567,1.844 3.567,1.665 0,-0.227 -3.019,-1.816 -3.451,-1.816 -0.155,0 -0.207,0.068 -0.116,0.151 m -20.833,1.247 c 0,0.268 4.849,2.687 5.028,2.508 0.08,-0.081 -1.018,-0.721 -2.441,-1.423 -1.423,-0.701 -2.587,-1.19 -2.587,-1.085 m -75.3,1.231 c -1.495,0.811 -1.404,1.149 0.1,0.371 0.66,-0.341 1.2,-0.706 1.2,-0.81 0,-0.258 -0.043,-0.243 -1.3,0.439 m 109.333,3.922 c 0.409,0.37 3.567,1.844 3.567,1.665 0,-0.227 -3.019,-1.816 -3.451,-1.816 -0.155,0 -0.207,0.068 -0.116,0.151 m -18.8,2.398 c 0.412,0.368 2.767,1.451 2.767,1.272 0,-0.231 -2.218,-1.421 -2.647,-1.421 -0.157,0 -0.211,0.067 -0.12,0.149 m 32,4.003 c 0.408,0.372 4.367,2.241 4.367,2.061 0,-0.225 -3.82,-2.213 -4.253,-2.213 -0.154,0 -0.205,0.068 -0.114,0.152 M 338,172.198 c 0,0.269 4.049,2.286 4.229,2.107 0.082,-0.082 -0.836,-0.632 -2.04,-1.223 -1.204,-0.59 -2.189,-0.988 -2.189,-0.884 m -159.3,6.229 c -0.825,0.436 -1.5,0.881 -1.5,0.991 0,0.178 3.159,-1.299 3.567,-1.667 0.46,-0.417 -0.742,-0.023 -2.067,0.676 m 186.1,6.969 c 0,0.274 2.449,1.488 2.632,1.305 0.087,-0.087 -0.47,-0.457 -1.237,-0.823 -0.767,-0.366 -1.395,-0.583 -1.395,-0.482 m 34.996,86.004 c 0,43.12 0.047,60.701 0.104,39.068 0.057,-21.632 0.057,-56.912 0,-78.4 -0.057,-21.487 -0.104,-3.788 -0.104,39.332 m -10.196,2.88 c -0.11,39.424 -0.065,71.545 0.101,71.379 0.166,-0.166 0.256,-32.422 0.2,-71.68 L 389.8,202.6 l -0.2,71.68 m -37.256,-63.056 -0.944,0.823 1.2,-0.702 c 1.579,-0.925 1.603,-0.945 1.111,-0.945 -0.232,0 -0.847,0.371 -1.367,0.824 M 216.4,222.979 c 0,0.11 0.54,0.48 1.2,0.821 0.66,0.341 1.2,0.531 1.2,0.421 0,-0.11 -0.54,-0.48 -1.2,-0.821 -0.66,-0.341 -1.2,-0.531 -1.2,-0.421 m -182.58,2.193 c 0.209,0.204 0.92,0.483 1.58,0.619 1.196,0.248 1.195,0.246 -0.146,-0.371 -1.535,-0.707 -1.982,-0.785 -1.434,-0.248 m 195.38,4.207 c 0,0.11 0.54,0.48 1.2,0.821 0.66,0.341 1.2,0.531 1.2,0.421 0,-0.11 -0.54,-0.48 -1.2,-0.821 -0.66,-0.341 -1.2,-0.531 -1.2,-0.421 m -175.747,2.199 c 0.431,0.389 4.184,1.319 4.41,1.093 0.09,-0.091 -0.943,-0.445 -2.296,-0.785 -1.354,-0.341 -2.305,-0.48 -2.114,-0.308 M 242,235.779 c 0,0.11 0.54,0.48 1.2,0.821 0.66,0.341 1.2,0.531 1.2,0.421 0,-0.11 -0.54,-0.48 -1.2,-0.821 -0.66,-0.341 -1.2,-0.531 -1.2,-0.421 m 27.2,13.6 c 0,0.11 0.54,0.48 1.2,0.821 0.66,0.341 1.2,0.531 1.2,0.421 0,-0.11 -0.54,-0.48 -1.2,-0.821 -0.66,-0.341 -1.2,-0.531 -1.2,-0.421 m -241.221,4.876 c -0.221,0.581 -0.327,1.13 -0.236,1.221 0.09,0.091 0.356,-0.384 0.59,-1.056 0.52,-1.492 0.206,-1.638 -0.354,-0.165 M 41.72,257.2 c 0,1.21 0.075,1.705 0.167,1.1 0.091,-0.605 0.091,-1.595 0,-2.2 -0.092,-0.605 -0.167,-0.11 -0.167,1.1 m -13.969,3.6 c 0,2.53 0.065,3.565 0.145,2.3 0.079,-1.265 0.079,-3.335 0,-4.6 -0.08,-1.265 -0.145,-0.23 -0.145,2.3 m 13.877,4.833 c 0.016,1.192 0.182,2.527 0.369,2.967 0.206,0.484 0.252,-0.308 0.116,-2 -0.274,-3.413 -0.523,-3.91 -0.485,-0.967 M 28.109,270.8 c 0,0.99 0.078,1.395 0.173,0.9 0.096,-0.495 0.096,-1.305 0,-1.8 -0.095,-0.495 -0.173,-0.09 -0.173,0.9 m 0.164,3.6 c 0.131,0.99 0.303,1.875 0.383,1.967 0.301,0.347 0.072,-2.203 -0.266,-2.967 -0.237,-0.534 -0.276,-0.202 -0.117,1 m 14.62,3.6 c 0,0.77 0.082,1.085 0.183,0.7 0.1,-0.385 0.1,-1.015 0,-1.4 -0.101,-0.385 -0.183,-0.07 -0.183,0.7 m -8.653,24.937 c 0.358,1.049 0.721,1.836 0.807,1.75 0.208,-0.209 -0.662,-2.783 -1.106,-3.272 -0.193,-0.211 -0.058,0.474 0.299,1.522 M 55.4,317.2 c 0.341,0.66 0.711,1.2 0.821,1.2 0.11,0 -0.08,-0.54 -0.421,-1.2 -0.341,-0.66 -0.711,-1.2 -0.821,-1.2 -0.11,0 0.08,0.54 0.421,1.2 m 93.574,20.8 c 0,5.61 0.056,7.905 0.125,5.1 0.069,-2.805 0.069,-7.395 0,-10.2 -0.069,-2.805 -0.125,-0.51 -0.125,5.1 m 236.126,9.829 c -1.495,0.811 -1.404,1.149 0.1,0.371 0.66,-0.341 1.2,-0.706 1.2,-0.81 0,-0.258 -0.043,-0.243 -1.3,0.439 m -235.536,2.904 c 0.216,0.403 0.707,0.988 1.091,1.3 0.432,0.351 0.335,0.071 -0.254,-0.733 -1.05,-1.435 -1.444,-1.702 -0.837,-0.567 m 6.436,4.251 c 0,0.11 0.72,0.567 1.6,1.016 0.88,0.449 1.6,0.726 1.6,0.616 0,-0.11 -0.72,-0.567 -1.6,-1.016 -0.88,-0.449 -1.6,-0.726 -1.6,-0.616 m 26,13.595 c 0,0.11 0.54,0.48 1.2,0.821 0.66,0.341 1.2,0.531 1.2,0.421 0,-0.11 -0.54,-0.48 -1.2,-0.821 -0.66,-0.341 -1.2,-0.531 -1.2,-0.421 m 25.2,13.2 c 0,0.11 0.54,0.48 1.2,0.821 0.66,0.341 1.2,0.531 1.2,0.421 0,-0.11 -0.54,-0.48 -1.2,-0.821 -0.66,-0.341 -1.2,-0.531 -1.2,-0.421 m 123.5,7.25 c -1.495,0.811 -1.404,1.149 0.1,0.371 0.66,-0.341 1.2,-0.706 1.2,-0.81 0,-0.258 -0.043,-0.243 -1.3,0.439 m -30,4.598 c -0.825,0.436 -1.5,0.881 -1.5,0.991 0,0.109 0.72,-0.169 1.6,-0.618 0.88,-0.449 1.6,-0.903 1.6,-1.008 0,-0.262 -0.003,-0.261 -1.7,0.635"
     stroke="none"
     fill="#575757"
     fill-rule="evenodd"
     sodipodi:nodetypes="cscccsssccccccccsccssscccscccsccssccssscccsccsssccsscccccccsccssccssccssccccccscccssccssccsccccccsccsssccccccsssccccccsssccsssccccccccccccccccccccccccccccccccccsssccsscccsccscccsssccsssccssscccsccsssc" />
  <path
     id="path4"
     d="m 321.633,152.551 c 0.409,0.37 3.567,1.844 3.567,1.665 0,-0.227 -3.019,-1.816 -3.451,-1.816 -0.155,0 -0.207,0.068 -0.116,0.151 m 13.567,6.433 c 0,0.11 0.72,0.567 1.6,1.016 0.88,0.449 1.6,0.726 1.6,0.616 0,-0.11 -0.72,-0.567 -1.6,-1.016 -0.88,-0.449 -1.6,-0.726 -1.6,-0.616 m 14.4,7.216 c 0.55,0.314 1.18,0.572 1.4,0.572 0.22,0 -0.05,-0.258 -0.6,-0.572 -0.55,-0.314 -1.18,-0.572 -1.4,-0.572 -0.22,0 0.05,0.258 0.6,0.572 M 41.724,261.4 c 0.002,1.32 0.077,1.812 0.166,1.093 0.089,-0.719 0.087,-1.799 -0.004,-2.4 -0.091,-0.601 -0.164,-0.013 -0.162,1.307 m 20.696,88.421 c 0.979,1.112 1.861,1.96 1.961,1.886 0.099,-0.074 -0.702,-0.984 -1.78,-2.021 l -1.961,-1.886 1.78,2.021"
     stroke="none"
     fill="#747474"
     fill-rule="evenodd"
     sodipodi:nodetypes="cssccsssccsssccsscccccc" />
</svg>
