<?xml version="1.0" encoding="UTF-8" standalone="no"?>
<!-- Created with Inkscape (http://www.inkscape.org/) -->

<svg
   width="96.518654mm"
   height="89.371536mm"
   viewBox="0 0 96.518654 89.371536"
   version="1.1"
   id="svg1"
   sodipodi:docname="isc.svg"
   inkscape:version="1.3.2 (091e20e, 2023-11-25, custom)"
   xmlns:inkscape="http://www.inkscape.org/namespaces/inkscape"
   xmlns:sodipodi="http://sodipodi.sourceforge.net/DTD/sodipodi-0.dtd"
   xmlns:xlink="http://www.w3.org/1999/xlink"
   xmlns="http://www.w3.org/2000/svg"
   xmlns:svg="http://www.w3.org/2000/svg">
  <sodipodi:namedview
     id="namedview1"
     pagecolor="#505050"
     bordercolor="#eeeeee"
     borderopacity="1"
     inkscape:showpageshadow="0"
     inkscape:pageopacity="0"
     inkscape:pagecheckerboard="0"
     inkscape:deskcolor="#d1d1d1"
     inkscape:document-units="mm"
     showguides="true"
     inkscape:zoom="1.52"
     inkscape:cx="241.77632"
     inkscape:cy="206.90789"
     inkscape:window-width="1920"
     inkscape:window-height="1111"
     inkscape:window-x="-9"
     inkscape:window-y="-9"
     inkscape:window-maximized="1"
     inkscape:current-layer="layer1" />
  <defs
     id="defs1">
    <linearGradient
       id="linearGradient2"
       inkscape:collect="always">
      <stop
         style="stop-color:#0033a1;stop-opacity:1;"
         offset="0"
         id="stop2" />
      <stop
         style="stop-color:#0071ce;stop-opacity:1;"
         offset="0.45726767"
         id="stop4" />
      <stop
         style="stop-color:#cc27b0;stop-opacity:1;"
         offset="1"
         id="stop3" />
    </linearGradient>
    <linearGradient
       inkscape:collect="always"
       xlink:href="#linearGradient2"
       id="linearGradient3"
       x1="33.043304"
       y1="28.962509"
       x2="127.65144"
       y2="81.936195"
       gradientUnits="userSpaceOnUse" />
  </defs>
  <g
     inkscape:label="Calque 1"
     inkscape:groupmode="layer"
     id="layer1"
     transform="translate(-31.827515,-25.094592)">
    <path
       id="rect1"
       style="fill:url(#linearGradient3);stroke-width:2.696;stroke-miterlimit:10;stroke-dasharray:none;paint-order:stroke markers fill"
       d="M 78.716126 25.094592 A 25.18421 25.18421 0 0 0 53.531617 50.279101 A 25.18421 25.18421 0 0 0 53.541952 50.421211 A 16.326315 16.326315 0 0 0 48.154167 49.504472 A 16.326315 16.326315 0 0 0 31.827515 65.830607 A 16.326315 16.326315 0 0 0 40.521558 80.111906 L 40.521558 72.271557 L 55.620895 72.271557 L 55.620895 76.234623 C 58.524265 73.452342 62.520715 71.931772 66.519454 71.820422 C 68.190155 71.772822 69.871307 71.911642 71.498995 72.299463 C 76.047654 73.245602 80.042297 76.440397 81.953138 80.675696 C 83.594197 78.384229 85.690045 76.425037 88.076795 74.927209 C 96.140046 69.721658 107.84405 71.163925 114.28656 78.321317 C 114.86431 78.94395 115.3904 79.601133 115.87923 80.281921 A 20.668421 20.668421 0 0 0 128.34617 61.488753 A 20.668421 20.668421 0 0 0 107.67767 40.820247 A 20.668421 20.668421 0 0 0 102.33432 41.553019 A 25.18421 25.18421 0 0 0 78.716126 25.094592 z " />
    <path
       id="text4"
       style="font-size:10.7024px;line-height:1.25;font-family:Eina02-Bold;-inkscape-font-specification:Eina02-Bold;fill:#0033a1;fill-opacity:1;stroke-width:0.364068"
       d="m 66.472361,76.594369 c -3.782776,0.120136 -7.826344,2.014662 -9.584098,5.916998 -1.365255,3.047583 -1.340625,6.896455 0.15966,9.878113 1.346013,2.396353 3.695401,3.789141 6.087534,4.546986 2.688564,1.033638 5.60443,1.446097 8.121364,2.968434 1.531461,0.92478 2.358471,2.91695 1.997977,4.80553 -0.325069,2.77859 -2.962013,4.35185 -5.314149,4.29879 -2.193476,0.15717 -4.744057,-0.58695 -5.756145,-2.96161 -0.469183,-0.89675 -0.583124,-1.93604 -0.706311,-2.94371 -1.930236,0 -3.860471,0 -5.790706,0 -0.08198,3.07318 0.981103,6.21931 3.17302,8.18824 3.274705,3.09866 7.974671,3.72159 12.079009,2.75592 3.855017,-0.92445 7.308045,-4.35335 7.879388,-8.77797 0.440614,-3.10461 -0.247353,-6.582331 -2.484872,-8.691132 -2.254884,-2.292985 -5.386307,-2.969633 -8.221509,-3.963578 -2.206414,-0.79043 -4.97548,-1.218926 -6.192826,-3.695749 -0.905547,-2.244143 -0.06598,-5.250421 2.074837,-6.201974 2.743944,-1.332779 6.597108,-0.708759 8.185239,2.346004 0.365161,0.651196 0.438678,1.421338 0.558688,2.158542 1.987553,0 3.975106,0 5.962658,0 C 78.580315,84.14675 77.350298,81.08686 75.072445,79.236664 72.667981,77.109423 69.486386,76.44619 66.472361,76.594369 Z m 31.34567,0.01676 c -5.45002,0.281341 -10.67537,3.755773 -13.319618,9.050629 -2.769147,5.289141 -3.023906,12.025904 -0.954096,17.653592 2.017801,5.45851 6.586014,9.66811 11.856364,10.7237 5.674809,1.19253 12.113559,-0.38358 16.061979,-5.26715 1.57368,-1.86107 2.61439,-4.17237 3.42658,-6.53387 -2.16035,0 -4.3207,0 -6.48105,0 -1.18342,3.18604 -3.75387,5.75835 -6.86822,6.35313 -4.076349,0.96361 -8.743409,-0.45309 -11.265899,-4.2694 -2.63674,-3.88418 -2.95907,-9.223652 -1.76677,-13.776529 1.10075,-4.082625 4.27777,-7.416629 8.11466,-8.138372 3.681519,-0.780109 7.931829,0.258594 10.293169,3.677038 0.62904,0.828935 1.06344,1.805179 1.49306,2.769491 2.15951,0 4.31901,0 6.47852,0 -1.22209,-3.883955 -3.46646,-7.473516 -6.71723,-9.583676 -3.07431,-2.10728 -6.76967,-2.876527 -10.351449,-2.658583 z M 45.284444,77.79262 c 0,12.105397 0,24.21079 0,36.31619 1.857746,0 3.715494,0 5.57324,0 0,-12.35771 0,-24.715419 0,-37.073126 -1.857746,0 -3.715494,0 -5.57324,0 0,0.252311 0,0.504625 0,0.756936 z" />
  </g>
</svg>
