<svg width="250" height="250" xmlns="http://www.w3.org/2000/svg" version="1.1" enable-background="new 0 0 1215 250" xml:space="preserve">
 <g>
  <title>Layer 1</title>
  <g id="svg_1">
   <path fill="#012169" d="m131.1074,11.313l10.193,28.542c42.816,8.155 75.439,44.858 75.439,89.709c0,49.955 -40.779,91.749 -91.752,91.749c-21.409,0 -41.796,-8.147 -58.109,-20.385c8.154,-2.04 18.352,-2.04 26.503,-3.062c27.527,-22.426 45.877,-56.066 45.877,-103.979c1.017,-34.665 -10.193,-67.284 -20.391,-90.73c-8.155,59.128 -34.663,139.662 -69.319,178.4c-10.195,-14.272 -15.291,-31.598 -15.291,-50.968c0,-42.817 28.542,-78.501 68.304,-88.697l5.096,-28.542c-57.086,8.16 -100.922,57.091 -100.922,117.241c0,65.24 53.01,118.251 118.255,118.251c65.249,0 118.259,-53.011 118.259,-118.251c1.015,-63.207 -48.936,-115.201 -112.142,-119.278z" id="svg_15"/>
   <path fill="#012169" d="m99.5044,203.991l81.557,-10.193c6.118,-11.218 9.178,-24.469 9.178,-37.725c0,-31.6 -18.353,-67.283 -44.856,-97.863c1.018,4.078 4.075,18.351 4.075,39.76c-0.003,44.85 -21.411,80.526 -49.954,106.021z" id="svg_16"/>
  </g>
 </g>

</svg>