<?xml version="1.0" encoding="UTF-8" standalone="no"?>
<svg
   fill="none"
   height="15.200395"
   viewBox="0 0 12.638363 15.200395"
   width="12.638363"
   version="1.1"
   id="svg26729"
   sodipodi:docname="sort-number.svg"
   inkscape:version="1.1.1 (3bf5ae0d25, 2021-09-20)"
   xmlns:inkscape="http://www.inkscape.org/namespaces/inkscape"
   xmlns:sodipodi="http://sodipodi.sourceforge.net/DTD/sodipodi-0.dtd"
   xmlns="http://www.w3.org/2000/svg"
   xmlns:svg="http://www.w3.org/2000/svg">
  <defs
     id="defs26733" />
  <sodipodi:namedview
     id="namedview26731"
     pagecolor="#505050"
     bordercolor="#eeeeee"
     borderopacity="1"
     inkscape:pageshadow="0"
     inkscape:pageopacity="0"
     inkscape:pagecheckerboard="0"
     showgrid="false"
     inkscape:zoom="32"
     inkscape:cx="14.21875"
     inkscape:cy="8.953125"
     inkscape:window-width="1920"
     inkscape:window-height="1121"
     inkscape:window-x="2391"
     inkscape:window-y="-9"
     inkscape:window-maximized="1"
     inkscape:current-layer="svg26729" />
  <path
     d="m 10.994966,0.60039425 c 0,-0.276142 -0.2239,-0.5 -0.5,-0.5 M 3.1414164,14.953994 c 0.09376,0.0937 0.22094,0.1464 0.35355,0.1464 0.13261,0 0.25978,-0.0527 0.35355,-0.1464 M 10.494966,0.10039425 H 8.9949664 V 1.1003942 l 1.003906,-0.00391 m 0.9960946,4.9960935 c -0.0078,-0.046875 -1e-6,-5.49218745 -1e-6,-5.49218745 M 9.9988724,1.0964879 c 0,0 -0.0078,4.9335938 -0.0039,5 m 0,0 c -0.03125,0 -1.000006,0.00391 -1.000006,0.00391 v 1 h 2.9999996 l -0.0039,-1 c 0,0 -0.929687,-0.00391 -0.996093,-0.00781 m -1.0000066,3.00781 h 0.8616996 m 0,-1 H 9.9949664 m 1.5075996,1.89614 -0.375654,1.1270088 m 0.842354,0.634951 0.482,-1.4457 m -2.4562996,1.7876 0.8125006,0.01172 m 0.343749,-1.01172 H 9.9949664 m 0.7932776,0.933697 -0.767578,2.408203 0.9486,0.3162 1,-3 m -3.9742996,-1.6581 c 0,1.1046 0.89543,2 2,2 m 0,-1 c -0.5523,0 -1,-0.4477 -1,-1 m 1,-1.9999998 c -1.10457,0 -2,0.89543 -2,1.9999998 m 1,0 c 0,-0.5522798 0.4477,-0.9999998 1,-0.9999998 m 0.8616996,0 c 0.4647,0 0.7928,0.45527 0.6459,0.89614 m 0.9487,0.3162598 c 0.3628,-1.0884298 -0.4474,-2.2123998 -1.5946,-2.2123998 m -7.0081496,6.8535998 3,-3 -0.7071,-0.7072 -2.2109624,2.230494 m -0.9354876,-0.111269 -2.14645004,-2.119225 -0.7071,0.7072 3.00000004,3 M 4.0027789,13.612113 3.9949664,0.10039425 3.0027789,0.1043005 2.9949664,13.557425"
     fill="black"
     id="path26727"
     style="fill:none;fill-opacity:1;stroke:#f6f6f6;stroke-width:0.2;stroke-miterlimit:4;stroke-dasharray:none;stroke-opacity:1"
     sodipodi:nodetypes="cccsccccccccccccccccccccccccccccccccccccccccccccccccccccccc" />
  <path
     style="fill:#424242;fill-opacity:1;stroke:#f6f6f6;stroke-width:0.00625;stroke-miterlimit:4;stroke-dasharray:none;stroke-opacity:1;paint-order:stroke markers fill;stop-color:#000000"
     d="M 3.338243,14.943084 C 3.2864201,14.917502 2.5833734,14.235813 1.7759169,13.42822 l -1.46810264,-1.468353 0.2732864,-0.273286 0.2732864,-0.273286 c 0.68700834,0.761301 1.46774864,1.453873 2.22869484,2.1384 l 0.02126,-13.34192575 c 0.2617186,-3e-8 0.5234372,3e-8 0.7851557,5e-8 l 0.00971,13.3925187 2.2402486,-2.204624 0.2693799,0.288911 0.2732866,0.273286 -1.4685763,1.468839 c -0.8077165,0.807862 -1.5128887,1.489871 -1.5670487,1.515576 -0.1226835,0.05823 -0.1883841,0.05797 -0.3082506,-0.0012 z"
     id="path45897"
     sodipodi:nodetypes="csccccccccccsscc" />
  <path
     style="fill:#424242;fill-opacity:1;stroke:#f6f6f6;stroke-width:0.00625;stroke-miterlimit:4;stroke-dasharray:none;stroke-opacity:1;paint-order:stroke markers fill;stop-color:#000000"
     d="m 9.1043414,6.6003942 v -0.390625 h 0.453125 c 0.381944,0 0.4531246,-0.00736 0.4531246,-0.046875 0,-0.025781 0.02109,-0.046875 0.04687,-0.046875 0.04128,0 0.04687,-0.3003472 0.04687,-2.515625 0,-2.2152778 -0.0056,-2.515625 -0.04687,-2.515625 -0.02578,0 -0.04687,-0.021094 -0.04687,-0.046875 0,-0.0395115 -0.07118,-0.0468749 -0.4531246,-0.0468749 h -0.453125 v -0.390625 -0.390625 h 0.72705 c 0.8163636,0 0.8871486,0.0156661 0.9970976,0.22067699 0.05408,0.10084001 0.0571,0.25405263 0.0571,2.89602296 0,2.4587666 0.0056,2.78955 0.04687,2.78955 0.02578,0 0.04687,0.021094 0.04687,0.046875 0,0.039512 0.07118,0.046875 0.453125,0.046875 h 0.453125 v 0.390625 0.390625 H 10.494966 9.1043414 Z"
     id="path45973" />
  <path
     style="fill:#424242;stroke:none;stroke-width:0.351496;stroke-miterlimit:10;paint-order:stroke markers fill;stop-color:#000000;fill-opacity:1"
     d="m 10.53125,14.484911 c -0.224826,-0.07631 -0.342566,-0.131724 -0.340326,-0.160169 0.0019,-0.02392 0.161441,-0.538845 0.354573,-1.144276 0.302598,-0.948585 0.345042,-1.106892 0.306973,-1.14496 -0.03394,-0.03394 -0.181252,-0.04722 -0.635823,-0.0573 C 9.6768134,11.966228 9.6050034,11.957934 9.3966629,11.883491 8.6642363,11.621787 8.1727515,10.982722 8.1190873,10.222294 8.0660734,9.4710817 8.4988003,8.7362479 9.1875,8.407972 9.5409336,8.2395042 9.6763218,8.21875 10.421875,8.21875 c 0.743496,0 0.889546,0.025278 1.214593,0.2102191 0.359358,0.2044624 0.670073,0.6350089 0.755739,1.0472003 0.07992,0.3845651 0.06087,0.458468 -0.737247,2.8588526 -0.407343,1.225113 -0.749475,2.236273 -0.760292,2.247022 -0.01082,0.01075 -0.174355,-0.03296 -0.363418,-0.09713 z m 0.678462,-3.320848 c 0.02738,-0.02149 0.135537,-0.301279 0.240348,-0.621766 0.146497,-0.447953 0.190406,-0.6250031 0.189879,-0.7656248 C 11.638789,9.4701449 11.484942,9.2110888 11.21875,9.0674505 11.101488,9.0041757 11.051145,9 10.405548,9 H 9.7173456 L 9.5087553,9.1027109 C 9.1228956,9.29271 8.9202564,9.6059815 8.898024,10.046875 c -0.018639,0.369637 0.058594,0.571446 0.3179913,0.830904 0.3004047,0.300475 0.3817817,0.321738 1.2389497,0.323718 0.518696,0.0012 0.718118,-0.0087 0.754747,-0.03743 z"
     id="path986" />
</svg>
