<?xml version="1.0" encoding="UTF-8" standalone="no"?>
<svg
   fill="none"
   height="15.246094"
   viewBox="0 0 14.150419 15.246094"
   width="14.150419"
   version="1.1"
   id="svg834"
   sodipodi:docname="sort-alphabetically.svg"
   inkscape:version="1.1.1 (3bf5ae0d25, 2021-09-20)"
   xmlns:inkscape="http://www.inkscape.org/namespaces/inkscape"
   xmlns:sodipodi="http://sodipodi.sourceforge.net/DTD/sodipodi-0.dtd"
   xmlns="http://www.w3.org/2000/svg"
   xmlns:svg="http://www.w3.org/2000/svg">
  <defs
     id="defs838" />
  <sodipodi:namedview
     id="namedview836"
     pagecolor="#505050"
     bordercolor="#eeeeee"
     borderopacity="1"
     inkscape:pageshadow="0"
     inkscape:pageopacity="0"
     inkscape:pagecheckerboard="0"
     showgrid="false"
     inkscape:zoom="45.254834"
     inkscape:cx="7.4246212"
     inkscape:cy="5.734194"
     inkscape:window-width="2400"
     inkscape:window-height="1271"
     inkscape:window-x="-9"
     inkscape:window-y="-9"
     inkscape:window-maximized="1"
     inkscape:current-layer="svg834" />
  <path
     style="color:#000000;fill:#f6f6f6;fill-opacity:1;stroke:none;stroke-opacity:1;-inkscape-stroke:none"
     d="M 2.9042971,0 2.9394531,13.22461 0.8828125,11.09375 0,11.976563 l 3.0878906,3.08789 c 0.1167559,0.116681 0.2743001,0.181641 0.4394534,0.181641 0.1651533,0 0.3226935,-0.06497 0.4394531,-0.181641 L 7.0546877,11.976563 6.1718752,11.09375 4.1328127,13.197266 4.1503907,0 Z M 11.527344,0 C 10.08026,0 8.9042972,1.1759529 8.9042972,2.6230469 v 4.6230469 l 1.2656248,-0.00391 0.0098,-1.9960937 h 2.720703 l 0.0039,1.9960937 1.246094,0.00391 V 2.6230469 C 14.150419,1.1759529 12.974456,0 11.527372,0 Z M 3.1503909,0.24609374 H 3.9042971 L 3.886719,13.554688 h 0.2460937 v -0.0059 l 2.0429688,-2.105468 0.53125,0.533203 -2.9121094,2.914062 C 3.7241419,14.961352 3.6274105,15 3.527344,15 3.4272775,15 3.33053,14.96134 3.2597659,14.890625 l -2.91210935,-2.914062 0.53125,-0.533203 2.05078125,2.126953 0.00977,-0.0098 v 0.0039 h 0.2460937 z m 8.3769531,0 c 1.314313,0 2.376953,1.06262996 2.376953,2.37695316 V 7 l -0.753906,-0.00391 -0.0039,-1.9941407 h -0.0957 v -0.00195 h -3.035166 v 0.00586 h -0.080078 l -0.011719,1.9902344 -0.7734375,0.00391 V 2.6230469 c 0,-1.3143232 1.0626401,-2.37695316 2.3769531,-2.37695316 z M 11.527344,1 C 10.632558,1 9.9042972,1.7282307 9.9042972,2.6230469 l 0.011719,1.625 h 0.1191409 v 0.00195 l 2.988281,-0.00391 v -0.00195 h 0.123047 c 0.0028,-0.540143 0.0069,-1.0796338 0.0039,-1.6210937 0,-0.8948162 -0.728261,-1.6230469 -1.623047,-1.6230469 z m 0,0.2460938 c 0.762013,0 1.376953,0.614911 1.376953,1.3769531 0.0025,0.4580876 -0.0014,0.9179777 -0.0039,1.3769531 l -2.74024,0.00391 -0.0098,-1.3808631 c 0,-0.7620421 0.61494,-1.3769531 1.376953,-1.3769531 z M 8.9042972,8 v 0.6230469 3.0000001 3 0.623047 h 0.6230469 2.4999999 c 1.170979,0 2.123047,-0.952068 2.123047,-2.123047 0,-0.556106 -0.328941,-1.071696 -0.685547,-1.466797 0.410863,-0.387059 0.685547,-0.924778 0.685547,-1.533203 C 14.150391,8.9520957 13.198326,8 12.027344,8 H 9.5273441 Z M 9.150391,8.2460938 h 0.3769531 2.4999999 c 1.038216,0 1.876953,0.8387665 1.876953,1.8769532 0,0.557408 -0.241987,1.056506 -0.626953,1.400391 l 0.0059,0.0078 -0.08398,0.09375 c 0.380187,0.341696 0.705078,0.954072 0.705078,1.498047 0,1.038218 -0.838735,1.876953 -1.876953,1.876953 H 9.5273441 9.150391 v -0.376941 -3 -3.0000001 z m 0.876953,0.7421875 v 0.00195 H 9.9042972 l 0.00391,2.2539067 h 0.1152349 v 0.002 h 2.003902 c 0.61868,0 1.123047,-0.504367 1.123047,-1.123047 C 13.150391,9.5043845 12.646027,9 12.027344,9 Z m 0.123047,0.2460937 1.876953,0.011719 c 0.485916,0 0.876953,0.3910566 0.876953,0.8769532 C 12.904297,10.608966 12.513263,11 12.027344,11 H 10.154297 Z M 10.019532,12 v 0.002 H 9.8964847 v 2.242188 h 0.2460933 v -0.002 l 1.884766,0.0039 c 0.61868,0 1.123047,-0.504367 1.123047,-1.123047 C 13.150391,12.504367 12.646024,12 12.027344,12 Z m 0.123046,0.246094 h 1.884766 c 0.485919,0 0.876953,0.391034 0.876953,0.876953 C 12.904297,13.608966 12.513263,14 12.027344,14 l -1.884766,-0.0039 z"
     id="path832" />
  <path
     style="fill:#424242;fill-opacity:1;stroke:none;stroke-width:0.00542858;stroke-miterlimit:4;stroke-dasharray:none;stroke-opacity:1;paint-order:stroke markers fill;stop-color:#000000"
     d="M 3.3529556,14.939605 C 3.3104187,14.916626 2.6194275,14.240962 1.8174199,13.438129 L 0.35922399,11.978432 0.61276823,11.724167 c 0.13944932,-0.139846 0.25867826,-0.254039 0.26495322,-0.253762 0.006275,2.77e-4 0.46384675,0.471738 1.01682635,1.047691 l 1.0054175,1.047187 0.1499343,0.0019 0.1499342,0.0019 -0.011866,-4.6459127 C 3.1814411,6.3679594 3.1708398,3.374909 3.1644089,2.2719882 L 3.1527166,0.26667793 H 3.5180011 3.8832857 V 6.9179011 13.569124 l 0.1270582,-8.04e-4 0.1270583,-8.04e-4 1.0150146,-1.048808 c 0.5582582,-0.576844 1.0208019,-1.048807 1.0278752,-1.048807 0.00707,0 0.1245005,0.111958 0.26095,0.248796 l 0.2480898,0.248795 -1.4858872,1.48353 c -0.8172379,0.815941 -1.5076068,1.494506 -1.5341529,1.507923 -0.073243,0.03702 -0.2297224,0.02745 -0.3163361,-0.01934 z"
     id="path26471" />
  <path
     style="fill:#424242;fill-opacity:1;stroke:none;stroke-width:0.00542858;stroke-miterlimit:4;stroke-dasharray:none;stroke-opacity:1;paint-order:stroke markers fill;stop-color:#000000"
     d="M 9.1697192,4.6142798 9.1762792,2.2443672 9.2283912,2.056542 C 9.4840147,1.1352031 10.186266,0.47199227 11.087176,0.30109239 c 0.233174,-0.0442322 0.650859,-0.0441129 0.884735,2.5277e-4 0.839367,0.15922517 1.561766,0.80225194 1.809343,1.61054624 0.111996,0.3656462 0.112012,0.3660406 0.112012,2.7991955 V 6.9841924 H 13.528664 13.164062 V 5.9898235 4.9954546 H 11.539926 9.9157904 V 5.9898235 6.9841924 H 9.5394745 9.1631585 Z m 3.8918218,-0.3620811 0.102521,-0.014052 -1.77e-4,-0.864307 C 13.163709,2.4679535 13.152815,2.3245559 13.06491,2.0712453 12.984614,1.8398308 12.884443,1.6886516 12.665024,1.4677207 12.492866,1.2943751 12.434663,1.2513827 12.256223,1.1657497 12.003562,1.0444991 11.795391,0.9958818 11.528878,0.9958818 c -0.264945,0 -0.475189,0.0486781 -0.718156,0.1662757 -0.337412,0.1633102 -0.580279,0.4020891 -0.74113,0.7286564 -0.1593067,0.3234329 -0.1614125,0.3396528 -0.1706898,1.3147766 -0.00457,0.4800592 -0.00203,0.9150956 0.00565,0.9667476 l 0.01395,0.093913 h 1.5202609 c 0.836144,0 1.566395,-0.00632 1.622782,-0.014052 z"
     id="path26547" />
  <path
     style="fill:#424242;fill-opacity:1;stroke:none;stroke-width:0.00542858;stroke-miterlimit:4;stroke-dasharray:none;stroke-opacity:1;paint-order:stroke markers fill;stop-color:#000000"
     d="M 9.1644895,11.625399 V 8.2658234 l 1.5523205,1.548e-4 c 1.474304,1.47e-4 1.561558,0.00237 1.736121,0.044218 1.170416,0.2805882 1.77152,1.5612405 1.240061,2.6419528 -0.08346,0.169723 -0.160659,0.274786 -0.404877,0.55105 l -0.107966,0.122133 0.120341,0.126683 c 0.234428,0.246779 0.429447,0.594113 0.530413,0.944675 0.0413,0.143395 0.0506,0.228027 0.04972,0.45259 -0.0016,0.401666 -0.08274,0.665862 -0.310004,1.008936 -0.22686,0.342469 -0.572185,0.603917 -0.981081,0.742782 l -0.209922,0.07129 -1.607564,0.0063 -1.6075625,0.0063 z m 3.1373095,2.594342 c 0.454153,-0.10704 0.804581,-0.514174 0.853496,-0.991609 0.05347,-0.521849 -0.299843,-1.043812 -0.807311,-1.19269 -0.103135,-0.03026 -0.284223,-0.03521 -1.287156,-0.03521 H 9.8936934 v 1.126952 1.126951 l 1.1324756,-3.27e-4 c 0.937435,-2.7e-4 1.157131,-0.0061 1.27563,-0.03407 z m 0.07985,-3.026035 c 0.204793,-0.06875 0.319204,-0.140137 0.466826,-0.291289 0.148295,-0.151842 0.26218,-0.385968 0.297145,-0.610876 0.08747,-0.5626257 -0.274806,-1.1172418 -0.823051,-1.2600277 -0.09112,-0.023733 -0.395612,-0.035123 -1.274307,-0.04767 L 9.8936934,8.9673572 v 1.1407868 1.140786 h 1.1617256 1.161725 z"
     id="path26586" />
</svg>
