<?xml version="1.0" encoding="UTF-8" standalone="no"?>
<svg
   id="svg"
   version="1.1"
   width="400"
   height="417.910447761194"
   viewBox="0, 0, 400,417.910447761194"
   sodipodi:docname="transform.svg"
   inkscape:version="1.1.1 (3bf5ae0d25, 2021-09-20)"
   xmlns:inkscape="http://www.inkscape.org/namespaces/inkscape"
   xmlns:sodipodi="http://sodipodi.sourceforge.net/DTD/sodipodi-0.dtd"
   xmlns="http://www.w3.org/2000/svg"
   xmlns:svg="http://www.w3.org/2000/svg">
  <defs
     id="defs16577" />
  <sodipodi:namedview
     id="namedview16575"
     pagecolor="#505050"
     bordercolor="#eeeeee"
     borderopacity="1"
     inkscape:pageshadow="0"
     inkscape:pageopacity="0"
     inkscape:pagecheckerboard="0"
     showgrid="false"
     inkscape:zoom="1"
     inkscape:cx="840.5"
     inkscape:cy="362.5"
     inkscape:window-width="2400"
     inkscape:window-height="1271"
     inkscape:window-x="-9"
     inkscape:window-y="-9"
     inkscape:window-maximized="1"
     inkscape:current-layer="svg" />
  <path
     id="path0"
     d="m 134.04726,19.304762 c -2.54503,0.981757 -3.95046,2.325981 -5.5127,5.273985 -0.76644,1.447135 -2.25824,4.187494 -3.31482,6.090901 -1.05743,1.903406 -3.32741,6.083615 -5.04646,9.289352 -1.71821,3.205738 -4.28169,7.9597 -5.69634,10.564362 -1.41381,2.604662 -3.90266,7.194695 -5.5303,10.200073 -1.62765,3.005379 -3.89763,7.185588 -5.04478,9.289353 -1.14715,2.103765 -3.7123,6.857728 -5.70053,10.564362 -1.988226,3.706633 -4.550866,8.460596 -5.694662,10.564361 -1.143796,2.103766 -3.361787,6.202009 -4.929056,9.107209 -3.424679,6.34863 -8.000702,14.80741 -10.839228,20.03586 -1.142118,2.10376 -3.401199,6.28397 -5.020459,9.28935 -1.618421,3.00538 -4.233051,7.84131 -5.809544,10.74651 -1.575655,2.9052 -3.794485,7.00344 -4.929895,9.10721 -1.136249,2.10376 -3.352563,6.202 -4.924863,9.1072 -1.573139,2.9052 -4.142487,7.65917 -5.709756,10.56437 -7.853954,14.56151 -10.036726,18.59145 -11.245929,20.76443 -7.547041,13.55881 -8.05437,15.6899 -4.709354,19.77539 2.487169,3.03908 22.855794,13.08069 34.642595,17.08057 3.799515,1.28867 15.875619,4.99257 17.078115,5.23756 4.92754,1.40428 6.289804,1.65751 11.60064,2.59737 0.276725,0.10018 1.316539,0.24863 2.311076,0.32877 3.90425,0.74553 8.12887,1.40729 11.44131,1.81416 0.64569,0.0647 2.68339,0.29872 4.52822,0.52093 1.84484,0.22222 8.4485,0.5009 14.67481,0.61929 l 19.09873,0.3908 v -6.15551 -6.2439 c -7.00363,0.22788 -21.49869,-0.84558 -27.82647,-1.19138 -7.9653,-0.81571 -16.72087,-1.22417 -22.351817,-5.44793 -4.171837,-3.45527 -4.014187,-7.33039 1.173147,-28.77969 2.42619,-8.92481 4.25321,-18.6694 5.99738,-26.24242 19.85219,-87.516182 21.37901,-106.717621 33.56588,-119.195142 4.95422,-0.488146 6.9785,1.455332 12.42327,11.92589 2.24063,4.307709 4.64395,8.897742 5.34163,10.200073 0.69684,1.302331 2.88716,5.48254 4.86784,9.289353 4.38986,8.440561 8.6682,16.625209 11.23587,21.493012 1.05658,2.003585 3.70056,7.085404 5.87495,11.292934 2.17522,4.20753 4.6582,8.9615 5.51856,10.56437 0.86037,1.60286 3.04901,5.78307 4.86449,9.28935 1.81464,3.50627 4.38986,8.42417 5.72233,10.92865 1.33164,2.50448 2.73958,5.23938 3.12783,6.07724 0.38826,0.83786 0.8612,1.62837 1.0524,1.75587 0.25408,0.17121 7.91517,-3.70846 8.65729,-4.38421 0.10901,-0.0993 -2.16013,-4.45252 -5.78439,-11.09896 -2.88967,-5.30039 -7.34578,-13.5242 -10.26313,-18.94299 -1.34841,-2.50448 -3.12616,-5.78308 -3.95046,-7.28577 -1.46832,-2.67752 -2.60876,-4.78583 -9.35246,-17.303693 -1.83561,-3.406096 -4.67497,-8.651848 -6.311,-11.657227 -1.6352,-3.005378 -3.75172,-6.939692 -4.70349,-8.74292 -0.95093,-1.803227 -2.40918,-4.508068 -3.24019,-6.010757 -0.83186,-1.50269 -2.83853,-5.191109 -4.45947,-8.196488 -1.62177,-3.005378 -4.10894,-7.595412 -5.52778,-10.200073 -1.41885,-2.604662 -4.21293,-7.768449 -6.2087,-11.475083 -5.02717,-9.335799 -5.44226,-10.027036 -6.80743,-11.328456 -2.37481,-2.264963 -5.4976,-2.959843 -8.3529,-1.857871 m 114.7712,124.418128 c -6.45691,3.64562 -12.87189,7.30216 -14.25552,8.12636 -1.38362,0.8242 -7.72314,4.40698 -14.08781,7.96152 -6.36467,3.55455 -13.76077,7.73749 -16.43578,9.29391 -2.675,1.55733 -11.20316,6.3969 -18.95145,10.75561 -19.37158,10.89678 -19.70114,11.08348 -23.42937,13.26921 -3.48506,2.04183 -4.57519,3.28679 -4.5777,5.22571 -0.0937,29.60659 -0.0881,59.6622 0.0352,86.4693 l 0.18196,52.1579 0.89139,1.26863 c 0.96099,1.36881 2.25992,2.15203 23.04112,13.89214 4.33535,2.44892 9.54281,5.40421 11.57213,6.56538 3.44816,1.97444 9.73987,5.54447 36.53774,20.72892 5.89088,3.33779 10.87193,6.20929 11.06899,6.3796 1.79536,1.55369 23.92161,13.1845 24.74256,13.006 0.52326,-0.11293 3.93033,-1.95987 7.57052,-4.10279 3.64102,-2.14293 8.50635,-4.99075 10.81239,-6.32951 2.30604,-1.33785 6.75879,-3.958 9.89501,-5.82042 3.13621,-1.86334 7.43803,-4.39696 9.55958,-5.63008 5.69047,-3.30774 13.14779,-7.68921 16.77121,-9.85309 3.18065,-1.89885 12.0434,-7.11364 20.29315,-11.93864 9.13024,-5.34046 22.35434,-13.15536 24.89014,-14.70905 0.77483,-0.47539 1.64274,-1.22583 1.92869,-1.66844 0.46288,-0.71856 0.83269,-8.43726 0.83185,-72.92905 -0.002,-82.69254 0.4764,-72.05201 -3.40958,-75.52699 -0.99926,-0.89356 -6.21206,-3.1125 -10.82414,-5.55232 -4.61208,-2.43982 -9.81954,-5.17471 -11.57213,-6.07815 -1.75259,-0.90343 -5.2997,-2.75766 -7.88246,-4.12101 -2.58277,-1.36244 -7.26193,-3.82138 -10.39815,-5.46432 -3.13621,-1.64295 -7.81538,-4.10371 -10.39814,-5.46888 -35.35453,-18.68617 -50.70689,-26.58577 -51.62428,-26.56118 -0.65659,0.0164 -5.34163,2.45622 -12.77714,6.65373 m 25.82765,9.72012 c 5.35002,2.85511 13.19894,7.03168 17.44205,9.28116 7.90846,4.19296 19.28185,10.26382 39.0769,20.85824 6.18019,3.30774 13.6895,7.29487 16.68735,8.8604 2.99785,1.56553 5.45064,2.9134 5.45064,2.99627 0,0.28051 -5.58313,3.7376 -18.78375,11.63264 -2.675,1.60014 -5.01459,3.03817 -5.19907,3.19481 -0.18448,0.15755 -1.84483,1.18212 -3.68966,2.27771 -5.37769,3.19208 -19.2525,11.59348 -23.81511,14.41945 -1.47587,0.91436 -4.49468,2.75128 -6.70848,4.08185 -9.19649,5.52807 -11.5671,6.96155 -14.75866,8.92597 -11.68617,7.19105 -15.14691,9.25019 -15.56116,9.26021 -0.57944,0.0137 -93.61265,-50.35193 -93.61685,-50.68161 -0.005,-0.43351 0.21216,-0.55919 37.48112,-21.65057 6.22631,-3.52358 12.52809,-7.11455 14.00396,-7.97974 1.47586,-0.86518 8.41914,-4.81407 15.4295,-8.77479 7.01037,-3.96073 15.23664,-8.62271 18.28061,-10.35854 l 5.5345,-3.15747 1.50941,0.81145 c 0.83017,0.44626 5.88669,3.14745 11.2367,6.00256 m 84.61156,114.83188 0.0847,65.0537 -4.78063,2.80958 c -2.62973,1.54549 -6.29004,3.70754 -8.13487,4.80405 -4.59783,2.73489 -14.48948,8.56169 -19.95773,11.75558 -2.49053,1.45534 -6.18858,3.63924 -8.21789,4.85415 -2.02932,1.2149 -5.42549,3.21484 -7.54704,4.44431 -2.12156,1.22948 -6.42337,3.76037 -9.55959,5.62371 -3.13621,1.86242 -7.73991,4.57637 -10.23043,6.02988 -2.49052,1.45442 -7.09422,4.16655 -10.23043,6.02806 -8.63214,5.12371 -11.04468,6.5153 -11.32057,6.52622 -0.13836,0.006 -0.25156,-28.98186 -0.25156,-64.4171 V 257.3599 l 4.9475,-3.01357 c 2.72113,-1.6566 6.15503,-3.76037 7.6309,-4.67382 1.47586,-0.91436 4.49468,-2.74856 6.70848,-4.0773 2.2138,-1.32874 6.66655,-4.02356 9.89501,-5.98981 3.22845,-1.96625 7.83215,-4.75669 10.23043,-6.20019 2.39828,-1.4444 6.85104,-4.14833 9.89501,-6.00893 3.04397,-1.8606 6.96843,-4.24214 8.72103,-5.29311 3.05571,-1.83146 7.56045,-4.56818 19.95773,-12.12534 3.13621,-1.9116 6.9852,-4.2558 8.55331,-5.20932 1.56811,-0.95353 3.00204,-1.69212 3.18653,-1.64112 0.22138,0.0619 0.36393,22.16057 0.42012,65.1475 M 59.95125,246.07334 c -0.264146,0.16029 -0.482172,0.16029 -0.484688,0 -0.0025,-0.16029 -0.115721,-0.12386 -0.251568,0.0811 -0.135847,0.20492 -0.644014,0.64753 -1.130379,0.98358 -2.519034,1.73857 -3.037264,8.43419 -1.727434,22.32268 0.09392,1.00179 0.207125,2.35695 0.25073,3.01176 0.584393,5.50911 1.686452,11.39368 3.253613,17.0241 0.383222,1.40251 0.732063,2.71395 0.773991,2.91431 0.04193,0.20036 0.171066,0.61018 0.285949,0.91072 0.115721,0.30054 0.903129,2.75948 1.750075,5.46432 7.351656,23.47656 22.993318,43.22464 43.743491,55.22976 3.28631,1.90158 5.76059,3.32624 5.48722,3.42915 -0.26834,0.10109 -1.51329,0.65998 -2.62019,1.06981 -6.40156,2.37152 -7.19065,10.96599 -1.12702,12.28289 1.01438,0.42802 2.01622,0.46235 3.2331,0.1547 0.35276,-0.12033 1.79323,-0.58183 4.09927,-1.26942 8.37218,-2.49993 16.95904,-5.43609 17.82024,-6.09455 2.27082,-1.73492 2.49304,-4.85505 0.77483,-10.88766 -0.65659,-2.30413 -2.00835,-7.35134 -3.00456,-11.21553 -1.95636,-7.59086 -2.24661,-8.8423 -4.18201,-9.77488 -2.01054,-1.12172 -2.5933,-1.29424 -4.29036,-1.13075 -4.13578,0 -5.41754,7.13889 -2.47084,15.278 0.5568,1.5373 0.15765,1.46535 -4.36974,-0.78049 -16.582525,-8.22654 -30.369291,-22.80627 -38.437078,-40.64456 -3.19156,-7.059 -6.922542,-20.54869 -7.223786,-22.37838 -1.801973,-8.33189 -2.581298,-17.57791 -2.866607,-25.52553 -0.140878,-4.35052 -0.368967,-7.02439 -0.642337,-7.54442 -1.18237,-2.24583 -4.992787,-3.91427 -6.643912,-2.91066"
     stroke="none"
     fill="#040404"
     fill-rule="evenodd"
     style="fill:#424242;fill-opacity:1;stroke:#f6f6f6;stroke-width:14.5941;stroke-miterlimit:4;stroke-dasharray:none;stroke-opacity:1;paint-order:stroke markers fill"
     sodipodi:nodetypes="cccccsssscsccccccccccccsccccccccccccccsccscsccccccccsccccsscccccccccccccccccccccssscscccccsssccccccccsssccccccsccssccscscccsscsccscccssccccscccscccccccccccccccc" />
  <path
     id="path1"
     d="M 282.7,332.327 282.598,262.2"
     stroke="none"
     fill="#cbcbcb"
     fill-rule="evenodd"
     style="stroke:none;stroke-width:2.1;stroke-miterlimit:4;stroke-dasharray:none;stroke-opacity:1"
     sodipodi:nodetypes="cc" />
  <path
     id="path2"
     d="m 206.3,139.429 c -1.551,0.841 -1.375,1.132 0.2,0.33 1.508,-0.766 1.775,-0.965 1.267,-0.943 -0.202,0.009 -0.862,0.285 -1.467,0.613"
     stroke="none"
     fill="#7c7c7c"
     fill-rule="evenodd"
     sodipodi:nodetypes="cccc" />
  <path
     id="path3"
     d="m 112.102,10.5 c -0.566,0.715 -1.362,2.3 -1.156,2.3 0.096,0 0.547,-0.63 1.001,-1.4 0.826,-1.399 0.902,-1.843 0.155,-0.9 M 150.6,54.8 c 0.341,0.66 0.711,1.2 0.821,1.2 0.11,0 -0.08,-0.54 -0.421,-1.2 -0.341,-0.66 -0.711,-1.2 -0.821,-1.2 -0.11,0 0.08,0.54 0.421,1.2"
     stroke="none"
     fill="#575757"
     fill-rule="evenodd"
     sodipodi:nodetypes="cscccsssc" />
</svg>
