<svg id="svg" version="1.1" xmlns="http://www.w3.org/2000/svg" xmlns:xlink="http://www.w3.org/1999/xlink" width="400" height="417.910447761194" viewBox="0, 0, 400,417.910447761194"><g id="svgg"><path id="path0" d="M121.333 0.721 C 118.298 1.799,116.622 3.275,114.759 6.512 C 113.845 8.101,112.066 11.110,110.806 13.200 C 109.545 15.290,106.838 19.880,104.788 23.400 C 102.739 26.920,99.682 32.140,97.995 35.000 C 96.309 37.860,93.341 42.900,91.400 46.200 C 89.459 49.500,86.752 54.090,85.384 56.400 C 84.016 58.710,80.957 63.930,78.586 68.000 C 76.215 72.070,73.159 77.290,71.795 79.600 C 70.431 81.910,67.786 86.410,65.917 89.600 C 61.833 96.571,56.376 105.859,52.991 111.600 C 51.629 113.910,48.935 118.500,47.004 121.800 C 45.074 125.100,41.956 130.410,40.076 133.600 C 38.197 136.790,35.551 141.290,34.197 143.600 C 32.842 145.910,30.199 150.410,28.324 153.600 C 26.448 156.790,23.384 162.010,21.515 165.200 C 12.149 181.189,9.546 185.614,8.104 188.000 C -0.896 202.888,-1.501 205.228,2.488 209.714 C 5.454 213.051,29.744 224.077,43.800 228.469 C 48.331 229.884,62.732 233.951,64.166 234.220 C 64.955 234.368,65.600 234.660,65.600 234.868 C 65.600 235.077,65.772 235.141,65.983 235.011 C 66.518 234.680,71.600 235.659,71.600 236.093 C 71.600 236.288,71.778 236.337,71.996 236.203 C 72.356 235.980,76.551 236.587,78.000 237.072 C 78.330 237.182,79.570 237.345,80.756 237.433 C 81.941 237.522,83.128 237.774,83.393 237.994 C 83.657 238.213,83.976 238.291,84.101 238.165 C 84.226 238.040,86.280 238.243,88.664 238.617 C 91.049 238.990,93.630 239.354,94.400 239.425 C 95.170 239.496,97.600 239.753,99.800 239.997 C 102.000 240.241,109.875 240.547,117.300 240.677 L 130.800 240.912 130.800 234.056 L 130.800 227.200 123.600 227.200 C 119.570 227.200,116.400 227.041,116.400 226.838 C 116.400 226.638,115.335 226.572,114.027 226.691 C 112.722 226.809,111.327 226.777,110.927 226.618 C 110.527 226.459,108.711 226.264,106.892 226.183 C 105.072 226.103,103.401 225.924,103.178 225.787 C 102.955 225.649,101.591 225.460,100.147 225.367 C 98.703 225.275,97.341 225.087,97.120 224.950 C 96.898 224.814,95.917 224.639,94.938 224.562 C 93.959 224.484,92.943 224.283,92.679 224.113 C 92.416 223.944,91.840 223.774,91.400 223.735 C 87.424 223.386,82.276 221.757,80.237 220.201 C 75.262 216.407,75.450 212.152,81.636 188.600 C 82.272 186.180,83.267 182.220,83.847 179.800 C 84.428 177.380,85.050 175.343,85.229 175.274 C 85.408 175.205,85.471 174.928,85.367 174.659 C 85.264 174.390,86.804 167.696,88.788 159.785 C 90.773 151.873,92.398 145.085,92.399 144.700 C 92.399 144.315,92.563 144.000,92.763 144.000 C 92.962 144.000,93.031 143.640,92.916 143.200 C 92.794 142.735,92.904 142.400,93.177 142.400 C 93.436 142.400,93.542 142.229,93.413 142.021 C 93.145 141.588,93.942 138.023,94.454 137.363 C 94.641 137.123,94.704 136.838,94.596 136.729 C 94.487 136.621,94.669 135.647,95.000 134.566 C 95.331 133.485,96.684 128.010,98.006 122.400 C 99.328 116.790,100.525 111.930,100.666 111.600 C 100.807 111.270,100.958 110.820,101.000 110.600 C 101.043 110.380,101.119 110.110,101.170 110.000 C 101.220 109.890,101.322 109.530,101.397 109.200 C 104.660 94.743,109.189 77.075,109.686 76.866 C 109.861 76.792,109.902 76.564,109.775 76.360 C 109.455 75.842,110.446 71.600,110.887 71.600 C 111.085 71.600,111.131 71.411,110.988 71.180 C 110.689 70.697,117.226 44.268,117.695 44.066 C 117.865 43.992,117.916 43.787,117.807 43.611 C 117.517 43.142,118.452 38.800,118.843 38.800 C 119.025 38.800,119.076 38.543,118.956 38.229 C 117.812 35.249,124.065 29.336,128.816 28.905 C 134.724 28.369,137.138 30.503,143.631 42.000 C 146.303 46.730,149.169 51.770,150.001 53.200 C 150.832 54.630,153.444 59.220,155.806 63.400 C 161.041 72.668,166.143 81.655,169.205 87.000 C 170.465 89.200,173.618 94.780,176.211 99.400 C 178.805 104.020,181.766 109.240,182.792 111.000 C 183.818 112.760,186.428 117.350,188.593 121.200 C 190.757 125.050,193.828 130.450,195.417 133.200 C 197.005 135.950,198.684 138.953,199.147 139.873 C 199.610 140.793,200.174 141.661,200.402 141.801 C 200.705 141.989,209.841 137.729,210.726 136.987 C 210.856 136.878,208.150 132.098,203.828 124.800 C 200.382 118.980,195.068 109.950,191.589 104.000 C 189.981 101.250,187.861 97.650,186.878 96.000 C 185.127 93.060,183.767 90.745,175.725 77.000 C 173.536 73.260,170.150 67.500,168.199 64.200 C 166.249 60.900,163.725 56.580,162.590 54.600 C 161.456 52.620,159.717 49.650,158.726 48.000 C 157.734 46.350,155.341 42.300,153.408 39.000 C 151.474 35.700,148.508 30.660,146.816 27.800 C 145.124 24.940,141.792 19.270,139.412 15.200 C 133.417 4.949,132.922 4.190,131.294 2.761 C 128.462 0.274,124.738 -0.489,121.333 0.721 M258.200 137.336 C 250.500 141.339,242.850 145.354,241.200 146.259 C 239.550 147.164,231.990 151.098,224.400 155.001 C 216.810 158.904,207.990 163.497,204.800 165.206 C 201.610 166.916,191.440 172.230,182.200 177.016 C 159.099 188.981,158.706 189.186,154.260 191.586 C 150.104 193.828,148.804 195.195,148.801 197.324 C 148.801 197.942,148.665 198.365,148.500 198.264 C 148.335 198.164,148.172 207.198,148.139 218.341 C 148.105 229.483,148.201 237.790,148.351 236.800 C 148.502 235.810,148.723 260.772,148.843 292.270 L 149.060 349.541 150.123 350.934 C 151.269 352.437,152.818 353.297,177.600 366.188 C 182.770 368.877,188.980 372.122,191.400 373.397 C 195.512 375.565,203.015 379.485,234.972 396.158 C 241.997 399.823,247.937 402.976,248.172 403.163 C 250.313 404.869,276.699 417.640,277.678 417.444 C 278.302 417.320,282.365 415.292,286.706 412.939 C 291.048 410.586,296.850 407.459,299.600 405.989 C 302.350 404.520,307.660 401.643,311.400 399.598 C 315.140 397.552,320.270 394.770,322.800 393.416 C 329.586 389.784,338.479 384.973,342.800 382.597 C 346.593 380.512,357.162 374.786,367.000 369.488 C 377.888 363.624,393.658 355.043,396.682 353.337 C 397.606 352.815,398.641 351.991,398.982 351.505 C 399.534 350.716,399.600 342.225,399.599 271.411 C 399.597 180.612,400.089 190.655,395.533 188.480 C 394.140 187.815,388.500 185.078,383.000 182.399 C 377.500 179.720,371.290 176.717,369.200 175.725 C 367.110 174.733,362.880 172.697,359.800 171.200 C 356.720 169.704,351.140 167.004,347.400 165.200 C 343.660 163.396,338.080 160.694,335.000 159.195 C 292.839 138.677,274.531 130.003,273.437 130.030 C 272.654 130.048,267.067 132.727,258.200 137.336 M289.000 148.009 C 295.380 151.144,304.740 155.730,309.800 158.200 C 319.231 162.804,332.794 169.470,356.400 181.103 C 363.770 184.735,372.725 189.113,376.300 190.832 C 379.875 192.551,382.800 194.031,382.800 194.122 C 382.800 194.430,376.142 198.226,360.400 206.895 C 357.210 208.652,354.420 210.231,354.200 210.403 C 353.980 210.576,352.000 211.701,349.800 212.904 C 343.387 216.409,326.841 225.634,321.400 228.737 C 319.640 229.741,316.040 231.758,313.400 233.219 C 302.433 239.289,299.606 240.863,295.800 243.020 C 281.864 250.916,277.737 253.177,277.243 253.188 C 276.552 253.203,165.608 197.900,165.603 197.538 C 165.597 197.062,165.856 196.924,210.300 173.765 C 217.725 169.896,225.240 165.953,227.000 165.003 C 228.760 164.053,237.040 159.717,245.400 155.368 C 253.760 151.019,263.570 145.900,267.200 143.994 L 273.800 140.527 275.600 141.418 C 276.590 141.908,282.620 144.874,289.000 148.009 M389.901 274.098 L 390.002 345.529 384.301 348.614 C 381.165 350.311,376.800 352.685,374.600 353.889 C 369.117 356.892,357.321 363.290,350.800 366.797 C 347.830 368.395,343.420 370.793,341.000 372.127 C 338.580 373.461,334.530 375.657,332.000 377.007 C 329.470 378.357,324.340 381.136,320.600 383.182 C 316.860 385.227,311.370 388.207,308.400 389.803 C 305.430 391.400,299.940 394.378,296.200 396.422 C 285.906 402.048,283.029 403.576,282.700 403.588 C 282.535 403.595,282.400 371.765,282.400 332.856 L 282.400 262.113 288.300 258.804 C 291.545 256.985,295.640 254.675,297.400 253.672 C 299.160 252.668,302.760 250.654,305.400 249.195 C 308.040 247.736,313.350 244.777,317.200 242.618 C 321.050 240.459,326.540 237.395,329.400 235.810 C 332.260 234.224,337.570 231.255,341.200 229.212 C 344.830 227.169,349.510 224.554,351.600 223.400 C 355.244 221.389,360.616 218.384,375.400 210.086 C 379.140 207.987,383.730 205.413,385.600 204.366 C 387.470 203.319,389.180 202.508,389.400 202.564 C 389.664 202.632,389.834 226.897,389.901 274.098 M32.972 249.720 C 32.657 249.896,32.397 249.896,32.394 249.720 C 32.391 249.544,32.256 249.584,32.094 249.809 C 31.932 250.034,31.326 250.520,30.746 250.889 C 27.742 252.798,27.124 260.150,28.686 275.400 C 28.798 276.500,28.933 277.988,28.985 278.707 C 29.038 279.426,29.197 280.131,29.340 280.274 C 29.483 280.416,29.602 280.998,29.603 281.567 C 29.608 283.053,31.883 294.098,32.865 297.400 C 33.322 298.940,33.738 300.380,33.788 300.600 C 33.838 300.820,33.992 301.270,34.129 301.600 C 34.267 301.930,35.206 304.630,36.216 307.600 C 44.983 333.378,63.636 355.062,88.381 368.244 C 92.300 370.332,95.107 372.051,94.781 372.164 C 94.461 372.275,93.120 372.734,91.800 373.184 C 84.166 375.788,83.225 385.225,90.456 386.671 C 91.085 386.797,91.600 387.058,91.600 387.250 C 91.600 387.716,92.642 387.695,93.505 387.211 C 93.887 386.996,96.450 386.202,99.200 385.447 C 109.184 382.702,119.424 379.478,120.451 378.755 C 123.159 376.850,123.424 373.424,121.375 366.800 C 120.592 364.270,118.980 358.728,117.792 354.485 C 115.459 346.150,114.816 344.854,112.508 343.830 C 111.679 343.462,110.687 342.990,110.305 342.781 C 109.394 342.281,108.000 342.293,108.000 342.800 C 108.000 343.020,107.682 343.200,107.293 343.200 C 102.361 343.200,101.228 350.349,104.742 359.286 C 105.406 360.974,104.930 360.895,99.531 358.429 C 79.756 349.396,63.315 333.387,53.694 313.800 C 49.888 306.049,44.859 291.431,45.343 289.519 C 45.438 289.145,45.370 288.785,45.193 288.719 C 43.907 288.243,42.127 274.371,41.661 261.200 C 41.493 256.423,41.221 253.487,40.895 252.916 C 39.485 250.450,34.941 248.618,32.972 249.720 " stroke="none" fill="#040404" fill-rule="evenodd"></path><path id="path1" d="M130.400 1.600 C 130.950 2.030,131.530 2.386,131.689 2.391 C 131.849 2.396,132.614 3.343,133.389 4.495 C 134.165 5.647,134.800 6.394,134.800 6.155 C 134.800 5.433,132.552 2.563,131.274 1.653 C 129.774 0.585,129.046 0.541,130.400 1.600 M116.600 2.671 C 114.653 4.368,113.467 6.400,114.424 6.400 C 114.657 6.400,114.736 6.220,114.600 6.000 C 114.464 5.780,114.543 5.600,114.776 5.600 C 115.009 5.600,115.200 5.345,115.200 5.033 C 115.200 4.722,115.335 4.405,115.500 4.329 C 115.879 4.156,118.211 1.596,117.975 1.613 C 117.879 1.620,117.260 2.096,116.600 2.671 M135.205 7.609 C 135.438 8.044,135.796 8.400,136.002 8.400 C 136.553 8.400,136.033 7.298,135.360 7.040 C 134.896 6.862,134.865 6.974,135.205 7.609 M111.248 10.976 C 109.543 13.998,109.669 14.352,111.419 11.451 C 112.198 10.159,112.759 9.026,112.666 8.933 C 112.573 8.840,111.935 9.759,111.248 10.976 M136.800 9.801 C 136.800 10.155,139.184 13.813,139.192 13.471 C 139.197 13.290,138.733 12.345,138.162 11.371 C 137.211 9.749,136.800 9.275,136.800 9.801 M108.800 14.800 C 108.525 15.315,108.515 15.600,108.772 15.600 C 108.992 15.600,109.365 15.240,109.600 14.800 C 109.875 14.285,109.885 14.000,109.628 14.000 C 109.408 14.000,109.035 14.360,108.800 14.800 M139.800 15.200 C 140.141 15.860,140.511 16.400,140.621 16.400 C 140.731 16.400,140.541 15.860,140.200 15.200 C 139.859 14.540,139.489 14.000,139.379 14.000 C 139.269 14.000,139.459 14.540,139.800 15.200 M107.410 17.180 C 106.499 18.942,106.672 19.129,107.800 17.600 C 108.925 16.075,108.954 16.000,108.410 16.000 C 108.196 16.000,107.746 16.531,107.410 17.180 M141.243 17.700 C 141.510 18.305,141.880 18.800,142.064 18.800 C 142.249 18.800,142.371 18.935,142.336 19.100 C 142.234 19.583,142.857 20.800,143.205 20.800 C 143.796 20.800,143.154 19.351,141.951 17.970 C 140.841 16.695,140.792 16.676,141.243 17.700 M104.648 22.300 C 104.334 22.905,103.699 23.833,103.238 24.361 C 102.376 25.349,102.166 26.000,102.708 26.000 C 102.877 26.000,103.609 24.920,104.335 23.600 C 105.060 22.280,105.557 21.200,105.437 21.200 C 105.318 21.200,104.963 21.695,104.648 22.300 M143.609 21.500 C 143.622 21.916,146.380 26.272,146.391 25.894 C 146.402 25.515,143.985 21.200,143.762 21.200 C 143.673 21.200,143.604 21.335,143.609 21.500 M99.648 30.576 C 97.943 33.598,98.069 33.952,99.819 31.051 C 100.598 29.759,101.159 28.626,101.066 28.533 C 100.973 28.440,100.335 29.359,99.648 30.576 M128.700 29.482 C 129.195 29.578,130.005 29.578,130.500 29.482 C 130.995 29.387,130.590 29.309,129.600 29.309 C 128.610 29.309,128.205 29.387,128.700 29.482 M148.473 30.200 C 148.723 30.750,149.080 31.200,149.264 31.200 C 149.449 31.200,149.600 31.470,149.600 31.800 C 149.600 32.130,149.780 32.400,150.000 32.400 C 150.555 32.400,150.516 32.242,149.560 30.623 C 148.605 29.004,147.782 28.684,148.473 30.200 M124.265 30.647 C 123.640 30.986,123.215 31.348,123.320 31.453 C 123.424 31.557,124.115 31.274,124.855 30.823 C 126.413 29.873,125.948 29.735,124.265 30.647 M137.050 32.600 C 137.729 33.480,138.505 34.620,138.775 35.134 C 139.044 35.648,139.358 35.976,139.471 35.862 C 139.733 35.601,137.506 32.343,136.541 31.577 C 136.142 31.260,136.371 31.720,137.050 32.600 M120.629 34.343 C 119.725 36.093,119.856 36.441,120.823 34.855 C 121.274 34.115,121.557 33.423,121.451 33.318 C 121.345 33.212,120.976 33.673,120.629 34.343 M150.809 33.900 C 150.814 34.065,151.185 34.650,151.633 35.200 L 152.448 36.200 151.814 34.900 C 151.211 33.665,150.789 33.245,150.809 33.900 M95.810 36.780 C 95.087 38.178,95.062 38.400,95.624 38.400 C 95.857 38.400,95.936 38.220,95.800 38.000 C 95.664 37.780,95.715 37.600,95.912 37.600 C 96.110 37.600,96.477 37.150,96.727 36.600 C 97.375 35.178,96.556 35.339,95.810 36.780 M153.380 38.360 C 153.948 39.482,154.635 40.397,154.907 40.394 C 155.217 40.390,155.250 40.279,154.996 40.094 C 154.774 39.932,154.234 39.110,153.796 38.267 C 153.358 37.424,152.853 36.640,152.673 36.526 C 152.493 36.412,152.811 37.237,153.380 38.360 M140.400 38.000 C 140.635 38.440,141.003 38.800,141.217 38.800 C 141.433 38.800,141.384 38.443,141.107 38.000 C 140.832 37.560,140.465 37.200,140.290 37.200 C 140.115 37.200,140.165 37.560,140.400 38.000 M141.200 39.538 C 141.200 39.724,141.661 40.399,142.224 41.038 L 143.247 42.200 142.550 40.700 C 141.911 39.326,141.200 38.714,141.200 39.538 M92.443 42.925 C 90.731 45.917,90.874 46.344,92.619 43.451 C 93.398 42.159,93.956 41.023,93.860 40.927 C 93.764 40.831,93.127 41.730,92.443 42.925 M155.009 41.215 C 156.265 43.248,158.000 45.724,158.000 45.485 C 158.000 44.877,155.509 40.800,155.138 40.800 C 154.926 40.800,154.868 40.987,155.009 41.215 M145.259 46.400 C 145.954 47.830,146.594 48.795,146.680 48.545 C 146.819 48.142,146.430 47.430,144.497 44.550 C 144.220 44.137,144.563 44.970,145.259 46.400 M88.234 49.850 C 87.097 51.886,87.058 52.000,87.512 52.000 C 87.684 52.000,88.036 51.505,88.295 50.900 C 88.553 50.295,89.064 49.395,89.431 48.900 C 89.798 48.405,89.911 48.000,89.683 48.000 C 89.455 48.000,88.803 48.833,88.234 49.850 M160.404 50.300 C 160.851 51.235,161.393 52.000,161.608 52.000 C 162.211 52.000,162.074 51.444,161.300 50.750 C 160.915 50.405,160.373 49.780,160.096 49.361 C 159.818 48.942,159.957 49.365,160.404 50.300 M147.600 50.800 C 147.835 51.240,148.208 51.600,148.428 51.600 C 148.685 51.600,148.675 51.315,148.400 50.800 C 148.165 50.360,147.792 50.000,147.572 50.000 C 147.315 50.000,147.325 50.285,147.600 50.800 M148.800 52.153 C 148.800 52.582,149.990 54.800,150.221 54.800 C 150.331 54.800,150.123 54.215,149.759 53.500 C 149.017 52.040,148.800 51.736,148.800 52.153 M162.400 53.556 C 162.400 53.751,162.769 54.336,163.220 54.856 L 164.040 55.800 163.410 54.500 C 162.790 53.221,162.400 52.856,162.400 53.556 M84.727 56.200 C 84.477 56.750,84.120 57.200,83.936 57.200 C 83.751 57.200,83.600 57.470,83.600 57.800 C 83.600 58.130,83.420 58.400,83.200 58.400 C 82.980 58.400,82.800 58.580,82.800 58.800 C 82.800 59.802,83.676 59.023,84.600 57.200 C 85.157 56.100,85.517 55.200,85.398 55.200 C 85.280 55.200,84.978 55.650,84.727 56.200 M164.820 57.639 C 165.280 58.540,165.741 59.193,165.844 59.089 C 166.038 58.895,164.453 56.000,164.152 56.000 C 164.060 56.000,164.360 56.737,164.820 57.639 M152.400 59.020 C 152.400 59.141,152.675 59.771,153.010 60.420 C 153.756 61.861,154.575 62.022,153.927 60.600 C 153.677 60.050,153.310 59.600,153.112 59.600 C 152.915 59.600,152.864 59.420,153.000 59.200 C 153.136 58.980,153.057 58.800,152.824 58.800 C 152.591 58.800,152.400 58.899,152.400 59.020 M80.843 62.525 C 79.131 65.517,79.274 65.944,81.019 63.051 C 81.798 61.759,82.356 60.623,82.260 60.527 C 82.164 60.431,81.527 61.330,80.843 62.525 M167.054 61.550 C 167.464 62.292,167.978 63.237,168.195 63.650 C 168.412 64.062,168.738 64.400,168.918 64.400 C 169.099 64.400,169.136 64.580,169.000 64.800 C 168.864 65.020,168.943 65.200,169.176 65.200 C 169.958 65.200,168.727 62.750,167.067 61.000 C 166.321 60.214,166.321 60.224,167.054 61.550 M154.000 62.138 C 154.000 62.214,154.466 62.799,155.035 63.438 L 156.071 64.600 155.425 63.300 C 154.905 62.253,154.000 61.515,154.000 62.138 M156.000 64.953 C 156.000 65.382,157.190 67.600,157.421 67.600 C 157.531 67.600,157.323 67.015,156.959 66.300 C 156.217 64.840,156.000 64.536,156.000 64.953 M77.760 67.906 C 77.324 68.197,76.400 69.738,76.400 70.174 C 76.400 70.871,77.142 70.210,77.719 69.000 C 78.434 67.502,78.435 67.455,77.760 67.906 M158.186 69.100 C 158.535 69.815,158.906 70.400,159.010 70.400 C 159.408 70.400,159.152 69.763,158.367 68.800 L 157.552 67.800 158.186 69.100 M172.020 70.039 C 172.480 70.940,172.941 71.593,173.044 71.489 C 173.238 71.295,171.653 68.400,171.352 68.400 C 171.260 68.400,171.560 69.137,172.020 70.039 M159.600 71.820 C 159.600 72.335,160.850 74.400,161.162 74.400 C 161.349 74.400,161.728 74.944,162.004 75.609 C 162.279 76.273,162.685 76.929,162.907 77.066 C 163.129 77.203,162.610 76.030,161.755 74.460 C 160.419 72.008,159.600 71.004,159.600 71.820 M174.264 74.000 C 174.654 74.660,175.118 75.200,175.297 75.200 C 175.475 75.200,175.341 74.660,175.000 74.000 C 174.659 73.340,174.194 72.800,173.967 72.800 C 173.740 72.800,173.874 73.340,174.264 74.000 M72.640 76.640 C 72.062 77.675,71.660 78.594,71.748 78.682 C 71.836 78.770,72.382 77.995,72.960 76.960 C 73.538 75.925,73.940 75.006,73.852 74.918 C 73.764 74.830,73.218 75.605,72.640 76.640 M175.600 76.200 C 175.600 76.530,175.751 76.800,175.936 76.800 C 176.120 76.800,176.487 77.273,176.751 77.852 C 177.014 78.430,177.321 78.813,177.431 78.702 C 177.631 78.502,176.068 75.600,175.760 75.600 C 175.672 75.600,175.600 75.870,175.600 76.200 M163.609 78.506 C 163.598 78.885,166.015 83.200,166.238 83.200 C 166.327 83.200,166.396 83.065,166.391 82.900 C 166.378 82.484,163.620 78.128,163.609 78.506 M69.229 82.149 C 67.813 84.624,67.651 85.325,68.800 84.000 C 69.240 83.493,69.600 82.835,69.600 82.539 C 69.600 82.242,69.751 82.000,69.936 82.000 C 70.120 82.000,70.477 81.550,70.727 81.000 C 71.577 79.136,70.466 79.987,69.229 82.149 M179.265 82.400 C 180.490 84.628,181.200 85.362,181.200 84.400 C 181.200 84.180,181.049 84.000,180.864 84.000 C 180.679 84.000,180.037 83.100,179.439 82.000 C 178.840 80.900,178.259 80.000,178.148 80.000 C 178.037 80.000,178.540 81.080,179.265 82.400 M166.800 84.771 C 166.800 85.137,167.902 86.400,168.220 86.400 C 168.310 86.400,168.178 85.950,167.927 85.400 C 167.480 84.419,166.800 84.039,166.800 84.771 M181.293 86.000 C 181.568 86.440,181.935 86.800,182.110 86.800 C 182.285 86.800,182.235 86.440,182.000 86.000 C 181.765 85.560,181.397 85.200,181.183 85.200 C 180.967 85.200,181.016 85.557,181.293 86.000 M169.200 88.400 C 169.649 89.280,170.106 90.000,170.216 90.000 C 170.326 90.000,170.049 89.280,169.600 88.400 C 169.151 87.520,168.694 86.800,168.584 86.800 C 168.474 86.800,168.751 87.520,169.200 88.400 M65.600 88.800 C 65.151 89.680,64.607 90.400,64.392 90.400 C 64.176 90.400,64.000 90.580,64.000 90.800 C 64.000 91.741,64.749 91.060,65.761 89.200 C 66.360 88.100,66.752 87.200,66.633 87.200 C 66.514 87.200,66.049 87.920,65.600 88.800 M182.800 88.177 C 182.800 88.571,184.511 91.222,184.666 91.067 C 184.758 90.976,184.447 90.248,183.977 89.450 C 183.200 88.133,182.800 87.701,182.800 88.177 M170.800 91.377 C 170.800 91.964,173.321 96.000,173.687 96.000 C 173.913 96.000,173.803 95.595,173.443 95.100 C 173.082 94.605,172.568 93.750,172.299 93.200 C 171.795 92.171,170.800 90.961,170.800 91.377 M62.800 93.200 C 62.565 93.640,62.515 94.000,62.690 94.000 C 62.865 94.000,63.232 93.640,63.507 93.200 C 63.784 92.757,63.833 92.400,63.617 92.400 C 63.403 92.400,63.035 92.760,62.800 93.200 M185.800 93.600 C 186.141 94.260,186.511 94.800,186.621 94.800 C 186.731 94.800,186.541 94.260,186.200 93.600 C 185.859 92.940,185.489 92.400,185.379 92.400 C 185.269 92.400,185.459 92.940,185.800 93.600 M61.040 96.240 C 60.462 97.275,60.060 98.194,60.148 98.282 C 60.236 98.370,60.782 97.595,61.360 96.560 C 61.938 95.525,62.340 94.606,62.252 94.518 C 62.164 94.430,61.618 95.205,61.040 96.240 M187.273 96.200 C 187.523 96.750,187.880 97.200,188.064 97.200 C 188.249 97.200,188.400 97.470,188.400 97.800 C 188.400 98.130,188.580 98.400,188.800 98.400 C 189.355 98.400,189.316 98.242,188.360 96.623 C 187.405 95.004,186.582 94.684,187.273 96.200 M174.848 98.200 C 175.378 99.552,177.286 102.848,177.445 102.688 C 177.550 102.583,177.069 101.530,176.376 100.348 C 175.151 98.262,174.527 97.384,174.848 98.200 M58.727 100.600 C 58.477 101.150,58.125 101.600,57.946 101.600 C 57.646 101.600,56.400 103.679,56.400 104.180 C 56.400 104.301,56.591 104.400,56.824 104.400 C 57.057 104.400,57.136 104.220,57.000 104.000 C 56.864 103.780,56.898 103.600,57.076 103.600 C 57.254 103.599,57.905 102.699,58.523 101.600 C 59.141 100.500,59.542 99.600,59.414 99.600 C 59.287 99.600,58.978 100.050,58.727 100.600 M189.600 99.780 C 189.600 99.879,190.230 101.004,190.999 102.280 C 192.729 105.150,192.851 104.787,191.162 101.794 C 190.051 99.826,189.600 99.244,189.600 99.780 M178.000 104.206 C 178.000 104.736,180.520 108.800,180.848 108.800 C 181.053 108.800,180.901 108.238,180.510 107.550 C 180.120 106.863,179.622 105.963,179.405 105.550 C 179.188 105.138,178.862 104.800,178.682 104.800 C 178.501 104.800,178.464 104.620,178.600 104.400 C 178.736 104.180,178.657 104.000,178.424 104.000 C 178.191 104.000,178.000 104.093,178.000 104.206 M53.846 108.630 C 52.422 111.177,52.538 111.442,54.034 109.059 C 54.704 107.992,55.171 107.038,55.072 106.939 C 54.973 106.839,54.421 107.600,53.846 108.630 M194.049 107.692 C 194.312 108.182,194.768 108.825,195.063 109.120 C 195.358 109.416,195.600 109.914,195.600 110.229 C 195.600 110.543,195.780 110.800,196.000 110.800 C 196.552 110.800,196.534 110.740,195.366 108.650 C 194.353 106.839,193.107 105.931,194.049 107.692 M182.000 110.950 C 182.000 111.241,184.071 114.800,184.241 114.800 C 184.336 114.800,183.957 113.900,183.400 112.800 C 182.531 111.086,182.000 110.383,182.000 110.950 M51.600 112.400 C 51.270 112.613,51.180 112.793,51.400 112.800 C 51.621 112.807,51.597 112.944,51.346 113.106 C 50.326 113.766,48.124 118.000,48.800 118.000 C 49.020 118.000,49.200 117.743,49.200 117.429 C 49.200 117.114,49.437 116.619,49.726 116.329 C 50.292 115.760,52.567 111.996,52.338 112.006 C 52.262 112.009,51.930 112.187,51.600 112.400 M197.400 113.200 C 197.741 113.860,198.111 114.400,198.221 114.400 C 198.331 114.400,198.141 113.860,197.800 113.200 C 197.459 112.540,197.089 112.000,196.979 112.000 C 196.869 112.000,197.059 112.540,197.400 113.200 M199.159 116.300 C 199.630 117.235,200.187 118.000,200.396 118.000 C 200.605 118.000,200.321 117.330,199.765 116.510 C 198.334 114.401,198.173 114.345,199.159 116.300 M185.600 117.814 C 185.600 118.155,186.924 120.125,187.740 121.000 C 188.297 121.597,188.220 121.266,187.437 119.700 C 186.562 117.950,185.600 116.963,185.600 117.814 M46.264 121.600 C 45.478 122.920,44.965 124.000,45.125 124.000 C 45.285 124.000,46.009 122.920,46.735 121.600 C 47.460 120.280,47.973 119.200,47.874 119.200 C 47.775 119.200,47.050 120.280,46.264 121.600 M201.209 119.500 C 201.222 119.916,203.980 124.272,203.991 123.894 C 204.002 123.515,201.585 119.200,201.362 119.200 C 201.273 119.200,201.204 119.335,201.209 119.500 M189.200 123.750 C 189.200 124.126,191.310 127.623,191.452 127.482 C 191.627 127.307,189.635 123.600,189.366 123.600 C 189.275 123.600,189.200 123.667,189.200 123.750 M42.270 128.187 C 41.675 129.251,41.268 130.201,41.365 130.298 C 41.462 130.395,41.849 129.873,42.226 129.137 C 42.603 128.402,43.088 127.686,43.305 127.546 C 43.521 127.407,43.620 127.059,43.524 126.773 C 43.429 126.487,42.864 127.123,42.270 128.187 M205.840 127.700 C 206.230 128.525,206.695 129.200,206.874 129.200 C 207.053 129.200,207.200 129.470,207.200 129.800 C 207.200 130.130,207.380 130.400,207.600 130.400 C 208.317 130.400,207.472 128.740,205.869 127.000 C 205.152 126.222,205.151 126.241,205.840 127.700 M272.000 129.553 C 272.000 129.747,272.720 129.916,273.600 129.928 C 274.480 129.940,275.200 129.781,275.200 129.575 C 275.200 129.369,274.480 129.200,273.600 129.200 C 272.720 129.200,272.000 129.359,272.000 129.553 M192.668 130.300 C 192.802 130.685,193.129 131.180,193.394 131.400 C 193.660 131.620,194.179 132.385,194.549 133.100 C 194.918 133.815,195.309 134.400,195.416 134.400 C 195.524 134.400,195.066 133.320,194.400 132.000 C 193.295 129.811,192.086 128.624,192.668 130.300 M270.150 130.185 C 270.027 130.506,269.569 130.883,269.133 131.021 C 268.697 131.160,268.421 131.354,268.520 131.454 C 268.780 131.714,271.600 130.315,271.600 129.926 C 271.600 129.358,270.385 129.575,270.150 130.185 M275.600 129.957 C 275.600 130.401,276.831 130.903,277.146 130.588 C 277.273 130.461,277.112 130.189,276.788 129.984 C 276.040 129.511,275.600 129.501,275.600 129.957 M279.200 131.800 C 280.190 132.330,281.180 132.764,281.400 132.764 C 281.620 132.764,280.990 132.330,280.000 131.800 C 279.010 131.270,278.020 130.836,277.800 130.836 C 277.580 130.836,278.210 131.270,279.200 131.800 M39.800 132.800 C 39.459 133.460,39.040 134.000,38.869 134.000 C 38.699 134.000,38.166 134.810,37.685 135.800 C 37.204 136.790,36.988 137.600,37.205 137.600 C 37.422 137.600,37.600 137.345,37.600 137.033 C 37.600 136.722,37.746 136.407,37.924 136.333 C 38.322 136.169,40.944 131.600,40.640 131.600 C 40.519 131.600,40.141 132.140,39.800 132.800 M208.409 131.900 C 208.414 132.065,208.785 132.650,209.233 133.200 L 210.048 134.200 209.414 132.900 C 208.811 131.665,208.389 131.245,208.409 131.900 M261.860 134.446 C 260.573 135.110,259.626 135.759,259.756 135.889 C 260.037 136.170,263.200 134.802,263.200 134.400 C 263.200 134.247,263.605 133.927,264.100 133.688 C 264.595 133.449,264.820 133.251,264.600 133.246 C 264.380 133.242,263.147 133.782,261.860 134.446 M284.400 134.200 C 284.950 134.514,285.580 134.772,285.800 134.772 C 286.020 134.772,285.750 134.514,285.200 134.200 C 284.650 133.886,284.020 133.628,283.800 133.628 C 283.580 133.628,283.850 133.886,284.400 134.200 M210.730 135.982 C 211.098 136.851,211.456 137.404,211.524 137.209 C 211.650 136.849,210.513 134.400,210.219 134.400 C 210.131 134.400,210.361 135.112,210.730 135.982 M197.259 138.000 C 197.954 139.430,198.594 140.395,198.680 140.145 C 198.819 139.742,198.430 139.030,196.497 136.150 C 196.220 135.737,196.563 136.570,197.259 138.000 M288.800 136.284 C 288.800 136.470,290.006 137.157,291.479 137.811 C 294.837 139.301,295.460 139.482,293.400 138.369 C 292.520 137.894,291.530 137.278,291.200 137.000 C 290.410 136.335,288.800 135.855,288.800 136.284 M257.368 136.852 C 257.215 137.100,255.391 138.108,253.316 139.090 C 251.242 140.073,249.636 140.969,249.748 141.081 C 250.010 141.344,258.396 137.097,258.398 136.700 C 258.401 136.239,257.682 136.345,257.368 136.852 M209.000 138.086 C 208.560 138.340,207.962 138.785,207.671 139.074 C 207.381 139.363,206.946 139.600,206.705 139.600 C 206.464 139.600,206.369 139.702,206.494 139.827 C 206.728 140.061,210.800 138.138,210.800 137.793 C 210.800 137.452,209.824 137.611,209.000 138.086 M34.843 140.925 C 33.131 143.917,33.274 144.344,35.019 141.451 C 35.798 140.159,36.356 139.023,36.260 138.927 C 36.164 138.831,35.527 139.730,34.843 140.925 M297.600 140.600 C 298.150 140.914,298.780 141.172,299.000 141.172 C 299.220 141.172,298.950 140.914,298.400 140.600 C 297.850 140.286,297.220 140.028,297.000 140.028 C 296.780 140.028,297.050 140.286,297.600 140.600 M270.000 142.839 C 266.313 144.805,263.696 146.385,264.111 146.393 C 264.552 146.403,269.359 143.958,269.600 143.602 C 269.710 143.439,270.700 142.841,271.800 142.272 C 272.900 141.703,273.620 141.238,273.400 141.239 C 273.180 141.239,271.650 141.960,270.000 142.839 M276.000 142.284 C 277.210 142.898,278.290 143.511,278.400 143.646 C 278.632 143.932,281.863 145.600,282.184 145.600 C 283.504 145.600,277.160 142.128,274.400 141.339 C 274.070 141.245,274.790 141.670,276.000 142.284 M302.000 142.684 C 302.000 142.887,303.030 143.491,304.289 144.026 C 307.216 145.272,307.692 145.404,306.213 144.560 C 305.560 144.188,304.783 143.640,304.485 143.342 C 304.187 143.044,303.790 142.800,303.604 142.800 C 303.418 142.800,302.981 142.691,302.633 142.557 C 302.285 142.424,302.000 142.481,302.000 142.684 M242.725 144.586 C 239.513 146.323,239.288 146.750,242.400 145.200 C 245.192 143.810,245.423 143.666,245.167 143.478 C 245.075 143.410,243.976 143.909,242.725 144.586 M30.634 147.850 C 29.466 149.940,29.448 150.000,30.000 150.000 C 30.220 150.000,30.400 149.743,30.400 149.429 C 30.400 149.114,30.642 148.616,30.937 148.320 C 31.758 147.499,32.476 146.000,32.048 146.000 C 31.839 146.000,31.203 146.833,30.634 147.850 M310.400 146.800 C 311.170 147.222,311.980 147.566,312.200 147.566 C 312.420 147.566,311.970 147.222,311.200 146.800 C 310.430 146.378,309.620 146.034,309.400 146.034 C 309.180 146.034,309.630 146.378,310.400 146.800 M236.200 147.867 C 233.898 149.053,233.795 149.128,234.074 149.407 C 234.187 149.521,235.332 148.981,236.617 148.207 C 239.335 146.570,239.096 146.376,236.200 147.867 M259.600 148.400 C 258.390 149.039,257.541 149.571,257.713 149.581 C 258.138 149.607,262.000 147.636,262.000 147.393 C 262.000 147.126,262.055 147.103,259.600 148.400 M288.800 148.600 C 289.350 148.914,289.980 149.172,290.200 149.172 C 290.420 149.172,290.150 148.914,289.600 148.600 C 289.050 148.286,288.420 148.028,288.200 148.028 C 287.980 148.028,288.250 148.286,288.800 148.600 M233.200 149.600 C 233.200 149.820,233.065 149.963,232.900 149.918 C 232.562 149.825,230.000 151.127,230.000 151.391 C 230.000 151.732,233.389 150.033,233.526 149.623 C 233.603 149.390,233.562 149.200,233.433 149.200 C 233.305 149.200,233.200 149.380,233.200 149.600 M316.000 149.393 C 316.000 149.704,320.061 151.673,320.270 151.463 C 320.375 151.359,320.108 151.161,319.678 151.025 C 319.247 150.888,318.486 150.422,317.986 149.988 C 317.157 149.269,316.000 148.922,316.000 149.393 M293.200 150.720 C 293.200 151.049,296.801 152.933,297.016 152.717 C 297.082 152.651,296.250 152.103,295.168 151.499 C 294.086 150.895,293.200 150.544,293.200 150.720 M248.800 154.000 C 246.710 155.078,245.129 155.969,245.286 155.980 C 245.590 156.001,252.818 152.515,253.142 152.191 C 253.716 151.618,252.178 152.258,248.800 154.000 M323.600 153.200 C 324.370 153.622,325.180 153.966,325.400 153.966 C 325.620 153.966,325.170 153.622,324.400 153.200 C 323.630 152.778,322.820 152.434,322.600 152.434 C 322.380 152.434,322.830 152.778,323.600 153.200 M26.754 154.900 C 26.280 155.835,25.692 156.732,25.446 156.894 C 25.131 157.102,25.145 157.190,25.493 157.194 C 25.765 157.197,26.443 156.300,27.000 155.200 C 27.557 154.100,27.924 153.200,27.815 153.200 C 27.706 153.200,27.228 153.965,26.754 154.900 M301.400 154.798 C 303.160 155.639,304.797 156.505,305.038 156.721 C 306.253 157.815,309.382 158.848,308.348 157.815 C 308.034 157.501,298.753 153.198,298.468 153.234 C 298.321 153.253,299.640 153.956,301.400 154.798 M222.700 154.826 C 220.004 156.217,219.553 157.201,222.200 155.915 C 223.190 155.434,224.000 154.886,224.000 154.697 C 224.000 154.508,224.135 154.435,224.300 154.534 C 224.465 154.634,224.832 154.465,225.116 154.158 C 225.879 153.332,225.266 153.501,222.700 154.826 M329.201 155.900 C 329.202 156.065,330.051 156.560,331.088 157.000 C 333.617 158.073,334.037 158.172,332.613 157.360 C 331.960 156.988,331.183 156.440,330.885 156.142 C 330.305 155.562,329.199 155.403,329.201 155.900 M216.800 158.200 C 215.810 158.730,215.180 159.164,215.400 159.164 C 215.620 159.164,216.610 158.730,217.600 158.200 C 218.590 157.670,219.220 157.236,219.000 157.236 C 218.780 157.236,217.790 157.670,216.800 158.200 M241.400 157.686 C 240.960 157.940,240.362 158.385,240.071 158.674 C 239.781 158.963,239.346 159.200,239.105 159.200 C 238.864 159.200,238.769 159.302,238.894 159.427 C 239.128 159.661,243.200 157.738,243.200 157.393 C 243.200 157.052,242.224 157.211,241.400 157.686 M23.748 159.700 C 23.115 160.925,23.116 160.967,23.760 160.433 C 24.687 159.664,25.349 158.400,24.824 158.400 C 24.602 158.400,24.118 158.985,23.748 159.700 M336.400 159.400 C 336.950 159.714,337.580 159.972,337.800 159.972 C 338.020 159.972,337.750 159.714,337.200 159.400 C 336.650 159.086,336.020 158.828,335.800 158.828 C 335.580 158.828,335.850 159.086,336.400 159.400 M211.500 160.629 C 210.895 160.957,210.400 161.310,210.400 161.413 C 210.400 161.831,211.581 161.561,212.124 161.019 C 212.443 160.700,212.816 160.550,212.952 160.686 C 213.089 160.822,213.200 160.723,213.200 160.467 C 213.200 159.864,212.849 159.897,211.500 160.629 M314.400 161.200 C 315.170 161.622,315.980 161.966,316.200 161.966 C 316.420 161.966,315.970 161.622,315.200 161.200 C 314.430 160.778,313.620 160.434,313.400 160.434 C 313.180 160.434,313.630 160.778,314.400 161.200 M22.432 161.939 C 21.779 163.160,21.914 163.500,22.641 162.463 C 22.993 161.960,23.188 161.454,23.073 161.340 C 22.959 161.225,22.670 161.495,22.432 161.939 M343.600 162.726 C 343.600 163.148,346.431 164.503,346.716 164.217 C 346.836 164.098,346.751 164.000,346.528 164.000 C 346.305 164.000,345.707 163.640,345.200 163.200 C 344.234 162.362,343.600 162.174,343.600 162.726 M318.400 163.224 C 318.400 163.457,318.580 163.536,318.800 163.400 C 319.020 163.264,319.200 163.310,319.200 163.502 C 319.200 163.695,319.836 164.155,320.614 164.526 C 322.274 165.318,322.400 165.335,322.400 164.776 C 322.400 164.543,322.220 164.464,322.000 164.600 C 321.780 164.736,321.600 164.690,321.600 164.498 C 321.600 164.305,320.964 163.845,320.186 163.474 C 318.526 162.682,318.400 162.665,318.400 163.224 M201.300 166.116 C 198.605 167.474,196.400 168.712,196.400 168.867 C 196.400 169.095,206.180 164.265,206.767 163.747 C 207.427 163.165,205.495 164.002,201.300 166.116 M227.800 165.021 C 226.480 165.774,225.531 166.393,225.691 166.395 C 226.263 166.405,230.400 164.227,230.400 163.917 C 230.400 163.511,230.584 163.433,227.800 165.021 M349.200 165.600 C 349.970 166.022,350.780 166.366,351.000 166.366 C 351.220 166.366,350.770 166.022,350.000 165.600 C 349.230 165.178,348.420 164.834,348.200 164.834 C 347.980 164.834,348.430 165.178,349.200 165.600 M19.927 166.600 C 19.677 167.150,19.320 167.600,19.136 167.600 C 18.951 167.600,18.800 167.780,18.800 168.000 C 18.800 168.853,19.482 168.336,20.119 167.000 C 20.487 166.230,20.696 165.600,20.585 165.600 C 20.474 165.600,20.178 166.050,19.927 166.600 M327.000 167.401 C 328.980 168.355,330.791 169.305,331.025 169.514 C 332.136 170.502,334.504 171.171,333.564 170.231 C 333.271 169.938,323.913 165.598,323.650 165.634 C 323.513 165.652,325.020 166.447,327.000 167.401 M221.800 168.067 C 218.991 169.505,218.980 169.513,219.355 169.888 C 219.514 170.047,219.769 169.981,219.922 169.741 C 220.075 169.501,221.145 168.828,222.300 168.246 C 223.455 167.663,224.400 167.100,224.400 166.993 C 224.400 166.728,224.484 166.693,221.800 168.067 M356.800 169.126 C 356.800 169.548,359.631 170.903,359.916 170.617 C 360.036 170.498,359.951 170.400,359.728 170.400 C 359.505 170.400,358.907 170.040,358.400 169.600 C 357.434 168.762,356.800 168.574,356.800 169.126 M191.500 171.227 C 190.675 171.663,190.000 172.108,190.000 172.218 C 190.000 172.396,193.159 170.919,193.567 170.551 C 194.027 170.134,192.825 170.528,191.500 171.227 M362.400 172.000 C 363.170 172.422,363.980 172.766,364.200 172.766 C 364.420 172.766,363.970 172.422,363.200 172.000 C 362.430 171.578,361.620 171.234,361.400 171.234 C 361.180 171.234,361.630 171.578,362.400 172.000 M213.800 172.400 C 213.140 172.837,212.744 173.196,212.920 173.197 C 213.359 173.201,215.600 172.024,215.600 171.790 C 215.600 171.410,214.974 171.622,213.800 172.400 M15.020 174.760 C 14.452 175.882,14.064 176.800,14.159 176.800 C 14.451 176.800,16.423 173.090,16.233 172.899 C 16.134 172.801,15.589 173.638,15.020 174.760 M340.400 174.000 C 341.170 174.422,341.980 174.766,342.200 174.766 C 342.420 174.766,341.970 174.422,341.200 174.000 C 340.430 173.578,339.620 173.234,339.400 173.234 C 339.180 173.234,339.630 173.578,340.400 174.000 M184.600 174.672 C 183.500 175.241,182.510 175.831,182.400 175.983 C 182.290 176.135,181.170 176.777,179.911 177.408 C 178.652 178.039,177.689 178.622,177.770 178.703 C 177.989 178.923,185.379 175.160,185.534 174.749 C 185.608 174.554,185.833 174.497,186.034 174.621 C 186.235 174.745,186.400 174.646,186.400 174.400 C 186.400 174.154,186.580 174.064,186.800 174.200 C 187.020 174.336,187.200 174.257,187.200 174.024 C 187.200 173.420,186.852 173.507,184.600 174.672 M208.200 175.074 C 207.540 175.427,206.890 175.885,206.755 176.092 C 206.621 176.299,206.351 176.467,206.155 176.465 C 205.960 176.464,204.360 177.255,202.600 178.224 C 200.840 179.193,199.539 179.989,199.708 179.993 C 200.144 180.003,207.358 176.361,207.600 176.008 C 207.710 175.848,208.340 175.427,209.000 175.074 C 209.660 174.721,210.020 174.432,209.800 174.432 C 209.580 174.432,208.860 174.721,208.200 175.074 M344.400 175.920 C 344.400 176.199,347.700 178.000,348.211 178.000 C 348.315 178.000,348.400 177.809,348.400 177.576 C 348.400 177.343,348.220 177.264,348.000 177.400 C 347.780 177.536,347.600 177.490,347.600 177.298 C 347.600 177.105,346.964 176.645,346.186 176.274 C 344.582 175.509,344.400 175.473,344.400 175.920 M370.800 175.936 C 370.800 176.328,372.818 177.315,373.082 177.051 C 373.180 176.953,372.887 176.754,372.430 176.610 C 371.974 176.465,371.600 176.178,371.600 175.973 C 371.600 175.768,371.420 175.600,371.200 175.600 C 370.980 175.600,370.800 175.751,370.800 175.936 M375.200 178.200 C 376.190 178.730,377.180 179.164,377.400 179.164 C 377.620 179.164,376.990 178.730,376.000 178.200 C 375.010 177.670,374.020 177.236,373.800 177.236 C 373.580 177.236,374.210 177.670,375.200 178.200 M12.960 178.306 C 12.276 178.762,11.507 180.400,11.976 180.400 C 12.198 180.400,12.659 179.860,13.000 179.200 C 13.659 177.926,13.655 177.842,12.960 178.306 M349.600 178.436 C 349.600 178.573,351.445 179.540,353.700 180.586 C 355.955 181.632,357.925 182.687,358.078 182.932 C 358.231 183.177,358.501 183.222,358.678 183.034 C 358.855 182.845,358.820 182.617,358.600 182.528 C 358.380 182.438,356.265 181.425,353.900 180.276 C 351.535 179.128,349.600 178.300,349.600 178.436 M84.000 179.800 C 84.000 180.130,84.180 180.400,84.400 180.400 C 84.620 180.400,84.800 180.130,84.800 179.800 C 84.800 179.470,84.620 179.200,84.400 179.200 C 84.180 179.200,84.000 179.470,84.000 179.800 M171.900 181.227 C 170.005 182.228,169.916 183.018,171.800 182.119 C 172.570 181.752,173.200 181.295,173.200 181.102 C 173.200 180.910,173.380 180.864,173.600 181.000 C 173.820 181.136,174.000 181.057,174.000 180.824 C 174.000 180.240,173.638 180.310,171.900 181.227 M381.200 181.000 C 381.750 181.314,382.380 181.572,382.600 181.572 C 382.820 181.572,382.550 181.314,382.000 181.000 C 381.450 180.686,380.820 180.428,380.600 180.428 C 380.380 180.428,380.650 180.686,381.200 181.000 M10.643 181.833 C 10.313 182.693,10.333 182.800,10.824 182.800 C 11.057 182.800,11.136 182.620,11.000 182.400 C 10.864 182.180,10.943 182.000,11.176 182.000 C 11.409 182.000,11.600 181.820,11.600 181.600 C 11.600 180.967,10.911 181.135,10.643 181.833 M194.900 182.104 C 193.965 182.573,193.200 183.102,193.200 183.279 C 193.200 183.804,193.822 183.647,194.705 182.900 C 195.160 182.515,195.863 181.986,196.266 181.724 C 197.400 180.987,196.777 181.161,194.900 182.104 M384.000 182.336 C 384.000 182.645,385.722 183.600,386.280 183.600 C 386.413 183.600,386.107 183.240,385.600 182.800 C 384.628 181.957,384.000 181.775,384.000 182.336 M388.400 184.600 C 389.390 185.130,390.380 185.564,390.600 185.564 C 390.820 185.564,390.190 185.130,389.200 184.600 C 388.210 184.070,387.220 183.636,387.000 183.636 C 386.780 183.636,387.410 184.070,388.400 184.600 M163.425 185.833 C 159.705 187.689,158.749 188.300,160.325 187.815 C 161.489 187.457,167.942 184.007,167.400 184.032 C 167.180 184.042,165.391 184.853,163.425 185.833 M7.828 187.061 C 7.256 188.084,6.852 188.985,6.929 189.063 C 7.007 189.140,7.561 188.303,8.160 187.202 C 8.760 186.101,9.164 185.200,9.059 185.200 C 8.954 185.200,8.400 186.037,7.828 187.061 M184.500 187.514 C 182.465 188.540,180.800 189.520,180.800 189.690 C 180.800 190.190,181.496 190.047,182.126 189.417 C 182.446 189.096,184.020 188.196,185.622 187.417 C 187.224 186.637,188.624 185.909,188.734 185.799 C 189.292 185.241,187.833 185.832,184.500 187.514 M366.000 186.600 C 366.550 186.914,367.180 187.172,367.400 187.172 C 367.620 187.172,367.350 186.914,366.800 186.600 C 366.250 186.286,365.620 186.028,365.400 186.028 C 365.180 186.028,365.450 186.286,366.000 186.600 M394.400 187.400 C 394.950 187.714,395.580 187.972,395.800 187.972 C 396.020 187.972,395.750 187.714,395.200 187.400 C 394.650 187.086,394.020 186.828,393.800 186.828 C 393.580 186.828,393.850 187.086,394.400 187.400 M370.891 188.948 C 372.082 190.140,374.400 191.083,374.400 190.376 C 374.400 190.143,374.220 190.064,374.000 190.200 C 373.780 190.336,373.600 190.290,373.600 190.098 C 373.600 189.905,372.964 189.445,372.186 189.074 C 370.472 188.257,370.170 188.227,370.891 188.948 M397.213 188.713 C 397.219 188.871,397.682 189.333,398.241 189.740 C 399.250 190.475,399.253 190.474,398.737 189.648 C 398.213 188.808,397.189 188.180,397.213 188.713 M5.200 191.200 C 4.925 191.715,4.915 192.000,5.172 192.000 C 5.392 192.000,5.765 191.640,6.000 191.200 C 6.275 190.685,6.285 190.400,6.028 190.400 C 5.808 190.400,5.435 190.760,5.200 191.200 M152.661 191.446 C 151.594 192.001,150.800 192.533,150.895 192.629 C 150.991 192.724,152.043 192.265,153.234 191.608 C 155.858 190.162,155.386 190.029,152.661 191.446 M375.600 191.211 C 375.600 191.340,376.905 192.065,378.500 192.823 C 380.095 193.580,381.513 194.354,381.650 194.543 C 381.789 194.733,381.990 194.733,382.102 194.543 C 382.214 194.354,380.796 193.475,378.952 192.588 C 377.109 191.701,375.600 191.082,375.600 191.211 M175.400 192.434 C 174.300 193.065,173.541 193.586,173.713 193.591 C 174.150 193.604,178.000 191.630,178.000 191.393 C 178.000 191.042,177.422 191.273,175.400 192.434 M3.414 194.400 C 2.176 196.852,2.261 196.906,3.795 194.645 C 4.368 193.801,4.767 192.905,4.681 192.655 C 4.595 192.405,4.025 193.190,3.414 194.400 M149.029 194.354 C 147.934 196.088,147.751 196.800,148.400 196.800 C 148.620 196.800,148.800 196.464,148.800 196.054 C 148.800 195.644,149.181 194.824,149.646 194.233 C 150.111 193.642,150.394 193.060,150.274 192.941 C 150.155 192.822,149.595 193.458,149.029 194.354 M378.916 195.549 C 378.522 195.961,377.615 196.596,376.900 196.959 C 376.185 197.323,375.600 197.716,375.600 197.834 C 375.600 197.951,376.680 197.471,378.000 196.768 C 379.320 196.064,380.400 195.334,380.400 195.144 C 380.400 194.562,379.668 194.762,378.916 195.549 M167.200 196.582 C 165.792 197.361,165.810 197.381,169.700 199.382 C 171.625 200.373,173.200 201.035,173.200 200.855 C 173.200 200.674,171.741 199.841,169.958 199.005 L 166.716 197.483 167.958 196.961 C 168.641 196.674,169.200 196.340,169.200 196.219 C 169.200 195.835,168.233 196.010,167.200 196.582 M0.981 198.837 C 0.629 199.518,0.412 200.145,0.499 200.232 C 0.586 200.319,0.956 199.762,1.322 198.995 C 2.144 197.270,1.859 197.138,0.981 198.837 M147.600 208.200 C 147.600 214.467,147.744 218.000,148.000 218.000 C 148.256 218.000,148.400 214.467,148.400 208.200 C 148.400 201.933,148.256 198.400,148.000 198.400 C 147.744 198.400,147.600 201.933,147.600 208.200 M372.665 199.047 C 372.040 199.386,371.615 199.748,371.720 199.853 C 371.824 199.957,372.515 199.674,373.255 199.223 C 374.813 198.273,374.348 198.135,372.665 199.047 M369.100 201.029 C 368.495 201.357,368.000 201.810,368.000 202.035 C 368.000 202.261,368.540 202.126,369.200 201.736 C 371.020 200.661,370.931 200.035,369.100 201.029 M173.600 201.112 C 173.600 201.471,179.613 204.521,179.851 204.282 C 179.937 204.196,179.286 203.800,178.404 203.402 C 177.522 203.004,176.800 202.559,176.800 202.413 C 176.800 202.174,174.234 200.800,173.786 200.800 C 173.684 200.800,173.600 200.941,173.600 201.112 M366.297 202.766 C 364.553 203.884,364.469 204.139,366.100 203.364 C 366.925 202.972,367.600 202.505,367.600 202.326 C 367.600 201.921,367.630 201.911,366.297 202.766 M388.100 203.375 C 387.243 203.770,386.861 204.414,387.500 204.387 C 387.923 204.369,389.378 203.235,389.171 203.084 C 389.077 203.016,388.595 203.146,388.100 203.375 M182.000 205.443 C 185.147 207.250,186.800 208.026,186.800 207.696 C 186.800 207.383,181.075 204.395,180.493 204.405 C 180.332 204.407,181.010 204.875,182.000 205.443 M359.900 206.225 C 358.415 206.987,357.200 207.795,357.200 208.020 C 357.200 208.432,358.795 207.774,359.200 207.194 C 359.310 207.036,360.165 206.520,361.100 206.046 C 362.035 205.572,362.800 205.097,362.800 204.992 C 362.800 204.727,362.908 204.681,359.900 206.225 M382.400 206.600 C 381.410 207.130,380.742 207.572,380.916 207.582 C 381.341 207.606,384.400 206.034,384.400 205.792 C 384.400 205.527,384.417 205.520,382.400 206.600 M187.200 207.914 C 187.200 208.274,192.413 210.921,192.651 210.682 C 192.738 210.596,192.086 210.200,191.204 209.802 C 190.322 209.404,189.600 208.955,189.600 208.803 C 189.600 208.652,189.142 208.320,188.581 208.064 C 187.378 207.516,187.200 207.497,187.200 207.914 M0.804 208.562 C 0.795 209.309,2.888 211.624,4.121 212.230 L 5.400 212.859 4.116 211.813 C 3.410 211.238,2.377 210.190,1.821 209.484 C 1.264 208.778,0.807 208.363,0.804 208.562 M352.696 210.358 C 349.861 212.021,349.863 212.264,352.700 210.842 C 354.075 210.152,355.200 209.501,355.200 209.394 C 355.200 209.014,354.575 209.255,352.696 210.358 M375.600 210.373 C 375.600 210.578,375.226 210.865,374.770 211.010 C 374.313 211.154,374.027 211.360,374.133 211.466 C 374.342 211.676,376.800 210.500,376.800 210.190 C 376.800 210.085,376.530 210.000,376.200 210.000 C 375.870 210.000,375.600 210.168,375.600 210.373 M193.233 210.936 C 194.052 211.607,199.600 214.377,199.600 214.116 C 199.600 213.929,198.247 213.106,196.593 212.288 C 193.994 211.001,192.655 210.463,193.233 210.936 M372.300 212.229 C 370.805 213.040,370.896 213.378,372.400 212.600 C 373.060 212.259,373.600 211.894,373.600 211.790 C 373.600 211.532,373.557 211.547,372.300 212.229 M5.600 212.989 C 5.600 213.093,6.500 213.565,7.600 214.038 C 8.700 214.511,9.600 215.029,9.600 215.189 C 9.600 215.600,12.759 216.974,13.046 216.688 C 13.176 216.557,11.648 215.629,9.650 214.625 C 6.023 212.804,5.600 212.633,5.600 212.989 M346.000 213.906 C 345.010 214.497,343.840 215.327,343.400 215.750 C 342.832 216.296,343.121 216.216,344.400 215.472 C 345.390 214.896,346.695 214.222,347.300 213.974 C 347.905 213.725,348.400 213.359,348.400 213.161 C 348.400 212.603,347.947 212.743,346.000 213.906 M77.052 214.600 C 77.127 215.040,77.192 215.535,77.195 215.700 C 77.205 216.286,78.000 215.990,78.000 215.400 C 78.000 215.070,77.833 214.800,77.629 214.800 C 77.425 214.800,77.181 214.575,77.087 214.300 C 76.992 214.025,76.977 214.160,77.052 214.600 M368.500 214.298 C 367.785 214.654,367.200 215.086,367.200 215.259 C 367.200 215.432,367.830 215.201,368.600 214.747 C 370.665 213.529,370.603 213.251,368.500 214.298 M200.000 214.314 C 200.000 214.674,205.213 217.321,205.451 217.082 C 205.538 216.996,204.886 216.600,204.004 216.202 C 203.122 215.804,202.400 215.355,202.400 215.203 C 202.400 215.052,201.942 214.720,201.381 214.464 C 200.178 213.916,200.000 213.897,200.000 214.314 M363.282 217.271 C 362.117 217.946,361.244 218.577,361.342 218.675 C 361.526 218.860,366.000 216.446,366.000 216.162 C 366.000 215.814,365.317 216.093,363.282 217.271 M340.262 217.247 C 339.416 217.693,338.806 218.139,338.905 218.238 C 339.004 218.338,339.876 217.967,340.843 217.414 C 342.934 216.219,342.467 216.084,340.262 217.247 M78.400 217.502 C 78.400 217.722,78.670 218.126,79.000 218.400 C 79.335 218.678,79.600 218.721,79.600 218.498 C 79.600 218.278,79.330 217.874,79.000 217.600 C 78.665 217.322,78.400 217.279,78.400 217.502 M206.033 217.331 C 206.837 217.965,211.600 220.315,211.600 220.078 C 211.600 219.788,206.677 217.200,206.126 217.200 C 205.983 217.200,205.942 217.259,206.033 217.331 M17.200 218.800 C 17.970 219.222,18.870 219.570,19.200 219.574 C 19.530 219.579,19.015 219.226,18.056 218.791 C 15.850 217.790,15.365 217.795,17.200 218.800 M337.100 219.029 C 336.495 219.357,336.000 219.710,336.000 219.813 C 336.000 220.199,336.632 219.957,337.600 219.200 C 338.789 218.270,338.611 218.209,337.100 219.029 M81.400 220.574 C 82.640 221.630,83.200 221.845,83.200 221.264 C 83.200 221.080,82.705 220.680,82.100 220.377 C 80.279 219.464,80.143 219.502,81.400 220.574 M356.300 221.063 C 354.815 221.855,353.600 222.655,353.600 222.839 C 353.600 223.279,354.887 222.824,355.401 222.203 C 355.622 221.935,356.567 221.327,357.501 220.850 C 358.436 220.374,359.200 219.897,359.200 219.792 C 359.200 219.513,359.239 219.496,356.300 221.063 M21.600 220.600 C 22.150 220.914,22.780 221.172,23.000 221.172 C 23.220 221.172,22.950 220.914,22.400 220.600 C 21.850 220.286,21.220 220.028,21.000 220.028 C 20.780 220.028,21.050 220.286,21.600 220.600 M333.500 220.827 C 331.605 221.828,331.516 222.618,333.400 221.719 C 334.170 221.352,334.800 220.895,334.800 220.702 C 334.800 220.510,334.980 220.464,335.200 220.600 C 335.420 220.736,335.600 220.657,335.600 220.424 C 335.600 219.840,335.238 219.910,333.500 220.827 M212.800 220.714 C 212.800 221.082,218.015 223.718,218.260 223.473 C 218.351 223.382,217.880 223.082,217.213 222.805 C 216.546 222.529,216.000 222.178,216.000 222.026 C 216.000 221.777,213.447 220.400,212.986 220.400 C 212.884 220.400,212.800 220.541,212.800 220.714 M24.361 221.938 C 25.343 222.818,26.400 223.082,26.400 222.447 C 26.400 222.252,26.085 222.003,25.700 221.892 C 25.315 221.781,24.640 221.552,24.200 221.383 C 23.521 221.122,23.545 221.206,24.361 221.938 M328.600 223.837 C 327.940 224.185,326.888 224.737,326.263 225.064 C 325.637 225.391,325.202 225.735,325.295 225.828 C 325.478 226.011,330.000 223.649,330.000 223.370 C 330.000 223.117,329.907 223.148,328.600 223.837 M29.200 224.000 C 29.976 224.501,30.400 224.501,30.400 224.000 C 30.400 223.780,29.995 223.603,29.500 223.606 C 28.772 223.611,28.715 223.686,29.200 224.000 M218.833 223.731 C 219.637 224.365,224.400 226.715,224.400 226.478 C 224.400 226.188,219.477 223.600,218.926 223.600 C 218.783 223.600,218.742 223.659,218.833 223.731 M348.725 225.355 C 345.374 227.214,345.358 227.515,348.700 225.842 C 350.295 225.043,351.600 224.302,351.600 224.195 C 351.600 223.846,351.036 224.073,348.725 225.355 M108.000 225.753 C 108.000 226.108,109.618 226.294,109.823 225.962 C 109.946 225.763,109.587 225.600,109.024 225.600 C 108.461 225.600,108.000 225.669,108.000 225.753 M112.833 226.144 C 113.311 226.556,115.200 226.766,115.200 226.408 C 115.200 226.183,114.630 226.000,113.933 226.000 C 113.237 226.000,112.742 226.065,112.833 226.144 M122.200 226.823 C 123.080 227.005,125.455 227.164,127.478 227.177 L 131.156 227.200 131.306 229.100 C 131.454 230.979,131.457 230.975,131.528 228.700 L 131.600 226.400 126.100 226.446 C 122.079 226.480,121.030 226.581,122.200 226.823 M225.600 227.224 C 225.600 227.457,225.765 227.545,225.966 227.421 C 226.167 227.297,226.392 227.353,226.466 227.547 C 226.634 227.987,230.817 230.116,231.053 229.881 C 231.148 229.786,230.680 229.482,230.013 229.205 C 229.346 228.929,228.800 228.578,228.800 228.426 C 228.800 228.177,226.247 226.800,225.786 226.800 C 225.684 226.800,225.600 226.991,225.600 227.224 M320.938 227.957 C 320.491 228.374,319.557 229.009,318.862 229.368 C 318.168 229.727,317.600 230.109,317.600 230.216 C 317.600 230.324,318.680 229.866,320.000 229.200 C 321.320 228.534,322.400 227.811,322.400 227.594 C 322.400 226.984,321.831 227.125,320.938 227.957 M343.300 228.298 C 341.404 229.242,341.457 230.012,343.359 229.146 C 344.094 228.811,345.281 227.452,344.687 227.626 C 344.639 227.640,344.015 227.942,343.300 228.298 M339.200 230.833 L 338.200 231.648 339.500 231.014 C 340.215 230.665,340.800 230.294,340.800 230.190 C 340.800 229.792,340.163 230.048,339.200 230.833 M232.433 230.530 C 233.300 231.205,237.200 233.133,237.200 232.887 C 237.200 232.587,233.088 230.400,232.524 230.400 C 232.383 230.400,232.342 230.458,232.433 230.530 M313.300 232.250 C 311.925 233.033,310.800 233.843,310.800 234.051 C 310.800 234.259,311.472 233.972,312.293 233.414 C 313.114 232.856,314.014 232.400,314.293 232.400 C 314.572 232.400,314.800 232.248,314.800 232.061 C 314.800 231.875,315.205 231.527,315.700 231.288 C 316.195 231.049,316.420 230.848,316.200 230.841 C 315.980 230.834,314.675 231.468,313.300 232.250 M238.400 233.624 C 238.400 233.857,238.580 233.936,238.800 233.800 C 239.020 233.664,239.200 233.708,239.200 233.897 C 239.200 234.333,242.822 236.111,243.115 235.818 C 243.235 235.698,243.136 235.600,242.895 235.600 C 242.654 235.600,242.210 235.353,241.909 235.052 C 240.718 233.860,238.400 232.917,238.400 233.624 M332.200 234.603 C 331.320 235.147,330.285 235.705,329.900 235.843 C 329.291 236.061,328.887 236.800,329.377 236.800 C 329.732 236.800,332.621 235.001,333.375 234.310 C 334.429 233.346,334.101 233.427,332.200 234.603 M308.600 234.836 C 308.380 235.054,307.840 235.499,307.400 235.825 C 306.826 236.250,307.024 236.224,308.100 235.734 C 308.925 235.359,309.600 234.905,309.600 234.726 C 309.600 234.291,309.094 234.346,308.600 234.836 M245.233 236.930 C 246.100 237.605,250.000 239.533,250.000 239.287 C 250.000 238.987,245.888 236.800,245.324 236.800 C 245.183 236.800,245.142 236.858,245.233 236.930 M302.300 238.425 C 300.595 239.297,299.200 240.204,299.200 240.442 C 299.200 240.679,299.785 240.503,300.500 240.050 C 301.215 239.597,302.567 238.840,303.505 238.367 C 304.443 237.894,305.309 237.348,305.429 237.154 C 305.730 236.667,305.775 236.648,302.300 238.425 M323.900 239.226 C 322.635 239.879,321.600 240.503,321.600 240.612 C 321.600 240.722,322.680 240.266,324.000 239.600 C 325.320 238.934,326.400 238.301,326.400 238.194 C 326.400 237.928,326.474 237.897,323.900 239.226 M251.200 240.024 C 251.200 240.257,251.380 240.336,251.600 240.200 C 251.820 240.064,252.000 240.108,252.000 240.297 C 252.000 240.609,255.290 242.400,255.865 242.400 C 256.269 242.400,254.288 240.958,252.920 240.257 C 251.417 239.486,251.200 239.456,251.200 240.024 M112.100 241.087 C 112.705 241.178,113.695 241.178,114.300 241.087 C 114.905 240.995,114.410 240.920,113.200 240.920 C 111.990 240.920,111.495 240.995,112.100 241.087 M129.505 241.083 C 130.002 241.179,130.722 241.175,131.105 241.075 C 131.487 240.975,131.080 240.896,130.200 240.901 C 129.320 240.905,129.007 240.987,129.505 241.083 M296.754 241.545 C 296.229 241.955,295.035 242.678,294.100 243.153 C 293.165 243.628,292.400 244.105,292.400 244.213 C 292.400 244.321,293.660 243.776,295.200 243.000 C 296.740 242.224,298.000 241.412,298.000 241.195 C 298.000 240.648,297.847 240.691,296.754 241.545 M318.600 242.086 C 318.160 242.340,317.562 242.785,317.271 243.074 C 316.981 243.363,316.546 243.600,316.305 243.600 C 316.064 243.600,315.969 243.703,316.095 243.828 C 316.411 244.144,319.600 242.474,319.600 241.992 C 319.600 241.513,319.591 241.514,318.600 242.086 M259.600 244.200 C 260.590 244.730,261.580 245.164,261.800 245.164 C 262.020 245.164,261.390 244.730,260.400 244.200 C 259.410 243.670,258.420 243.236,258.200 243.236 C 257.980 243.236,258.610 243.670,259.600 244.200 M287.700 246.461 C 286.545 247.130,285.600 247.856,285.600 248.075 C 285.600 248.294,286.185 248.099,286.900 247.642 C 287.615 247.184,288.695 246.610,289.300 246.366 C 289.905 246.122,290.400 245.759,290.400 245.561 C 290.400 245.004,289.968 245.148,287.700 246.461 M264.000 246.424 C 264.000 246.657,264.180 246.736,264.400 246.600 C 264.620 246.464,264.800 246.508,264.800 246.697 C 264.800 247.001,268.083 248.800,268.639 248.800 C 269.151 248.800,267.620 247.627,266.091 246.846 C 264.194 245.879,264.000 245.840,264.000 246.424 M310.400 246.800 C 309.630 247.222,309.144 247.574,309.320 247.583 C 309.744 247.605,312.000 246.432,312.000 246.190 C 312.000 245.928,311.977 245.937,310.400 246.800 M305.601 249.473 C 303.763 250.459,302.796 251.200,303.349 251.200 C 303.602 251.200,306.984 249.379,307.567 248.929 C 308.322 248.345,307.046 248.698,305.601 249.473 M282.700 249.429 C 281.149 250.270,281.325 250.561,282.900 249.759 C 284.408 248.993,284.675 248.794,284.167 248.816 C 283.965 248.825,283.305 249.101,282.700 249.429 M29.413 251.013 C 28.636 251.791,28.001 252.646,28.002 252.913 C 28.003 253.181,28.409 252.894,28.903 252.276 C 29.398 251.658,30.252 250.807,30.801 250.385 C 31.351 249.963,31.581 249.614,31.313 249.609 C 31.046 249.604,30.191 250.236,29.413 251.013 M272.800 250.800 C 274.010 251.439,275.180 251.962,275.400 251.962 C 275.620 251.962,274.810 251.439,273.600 250.800 C 272.390 250.161,271.220 249.638,271.000 249.638 C 270.780 249.638,271.590 250.161,272.800 250.800 M39.417 250.670 C 40.646 251.767,41.232 252.636,41.864 254.296 L 42.437 255.800 42.209 254.402 C 41.969 252.932,40.158 250.360,39.177 250.096 C 38.834 250.004,38.932 250.237,39.417 250.670 M279.100 251.429 C 278.495 251.757,278.000 252.110,278.000 252.213 C 278.000 252.599,278.632 252.357,279.600 251.600 C 280.789 250.670,280.611 250.609,279.100 251.429 M298.700 253.226 C 297.435 253.879,296.400 254.590,296.400 254.806 C 296.400 255.386,297.111 255.285,297.480 254.652 C 297.656 254.351,298.565 253.717,299.500 253.244 C 300.435 252.771,301.200 252.297,301.200 252.192 C 301.200 251.928,301.272 251.898,298.700 253.226 M27.351 260.800 C 27.351 263.330,27.416 264.365,27.496 263.100 C 27.575 261.835,27.575 259.765,27.496 258.500 C 27.416 257.235,27.351 258.270,27.351 260.800 M291.119 257.557 C 288.282 259.173,288.271 259.460,291.100 258.042 C 292.475 257.352,293.600 256.701,293.600 256.594 C 293.600 256.247,293.033 256.467,291.119 257.557 M42.148 261.200 C 42.148 263.510,42.214 264.455,42.295 263.300 C 42.376 262.145,42.376 260.255,42.295 259.100 C 42.214 257.945,42.148 258.890,42.148 261.200 M285.300 260.698 C 284.585 261.054,284.000 261.492,284.000 261.673 C 284.000 262.259,284.652 262.020,285.838 261.000 C 287.176 259.849,287.096 259.804,285.300 260.698 M282.499 332.700 C 282.411 395.144,282.469 403.200,283.000 403.200 C 283.330 403.200,283.600 403.009,283.600 402.776 C 283.600 402.543,283.780 402.464,284.000 402.600 C 284.220 402.736,284.400 402.644,284.400 402.397 C 284.400 402.128,284.077 402.049,283.601 402.200 C 282.805 402.452,282.802 402.215,282.700 332.327 L 282.598 262.200 282.499 332.700 M27.693 271.200 C 27.693 271.970,27.775 272.285,27.876 271.900 C 27.976 271.515,27.976 270.885,27.876 270.500 C 27.775 270.115,27.693 270.430,27.693 271.200 M148.000 294.600 C 148.000 305.400,148.140 311.200,148.400 311.200 C 148.660 311.200,148.800 305.400,148.800 294.600 C 148.800 283.800,148.660 278.000,148.400 278.000 C 148.140 278.000,148.000 283.800,148.000 294.600 M31.600 296.200 C 31.600 296.530,31.780 296.800,32.000 296.800 C 32.220 296.800,32.400 296.530,32.400 296.200 C 32.400 295.870,32.220 295.600,32.000 295.600 C 31.780 295.600,31.600 295.870,31.600 296.200 M48.056 298.400 C 48.056 298.730,48.211 299.360,48.400 299.800 C 48.617 300.304,48.744 300.378,48.744 300.000 C 48.744 299.670,48.589 299.040,48.400 298.600 C 48.183 298.096,48.056 298.022,48.056 298.400 M51.606 308.700 C 51.617 309.247,52.353 310.181,52.588 309.946 C 52.903 309.631,52.401 308.400,51.957 308.400 C 51.761 308.400,51.603 308.535,51.606 308.700 M52.834 310.600 C 52.834 310.820,53.178 311.630,53.600 312.400 C 54.022 313.170,54.366 313.620,54.366 313.400 C 54.366 313.180,54.022 312.370,53.600 311.600 C 53.178 310.830,52.834 310.380,52.834 310.600 M37.200 312.781 C 37.200 312.991,37.409 313.621,37.664 314.181 C 38.179 315.312,39.055 315.611,38.597 314.500 C 38.439 314.115,38.219 313.485,38.108 313.100 C 37.897 312.367,37.200 312.122,37.200 312.781 M56.425 318.200 C 56.425 318.420,56.690 318.949,57.013 319.376 C 57.336 319.804,57.600 319.973,57.600 319.753 C 57.600 319.533,57.336 319.004,57.013 318.576 C 56.690 318.149,56.425 317.980,56.425 318.200 M40.405 319.309 C 40.396 319.882,43.649 326.085,43.852 325.881 C 43.963 325.771,43.234 324.177,42.232 322.340 C 41.230 320.503,40.408 319.139,40.405 319.309 M58.000 321.200 C 58.235 321.640,58.608 322.000,58.828 322.000 C 59.085 322.000,59.075 321.715,58.800 321.200 C 58.565 320.760,58.192 320.400,57.972 320.400 C 57.715 320.400,57.725 320.685,58.000 321.200 M59.209 322.506 C 59.198 322.867,62.035 327.200,62.282 327.200 C 62.520 327.200,60.915 324.401,59.989 323.200 C 59.565 322.650,59.214 322.338,59.209 322.506 M44.000 326.626 C 44.000 327.087,44.885 328.485,45.680 329.280 C 46.563 330.163,46.560 330.148,45.415 327.900 C 44.754 326.601,44.000 325.923,44.000 326.626 M64.243 330.167 C 64.376 330.515,64.661 330.800,64.876 330.800 C 65.402 330.800,65.073 329.891,64.475 329.692 C 64.182 329.594,64.093 329.777,64.243 330.167 M65.600 331.435 C 65.600 332.137,66.717 333.416,67.045 333.088 C 67.216 332.917,66.961 332.383,66.478 331.900 C 65.995 331.417,65.600 331.208,65.600 331.435 M48.000 332.953 C 48.000 333.493,50.426 336.800,50.823 336.800 C 51.034 336.800,50.982 336.440,50.707 336.000 C 50.432 335.560,50.071 335.200,49.904 335.200 C 49.737 335.200,49.600 335.012,49.600 334.783 C 49.600 334.554,49.240 333.980,48.800 333.508 C 48.360 333.036,48.000 332.786,48.000 332.953 M68.964 335.700 C 69.807 336.745,70.655 337.600,70.848 337.600 C 71.542 337.600,71.095 336.975,69.278 335.400 L 67.432 333.800 68.964 335.700 M52.400 339.102 C 52.400 339.322,52.670 339.726,53.000 340.000 C 53.335 340.278,53.600 340.321,53.600 340.098 C 53.600 339.878,53.330 339.474,53.000 339.200 C 52.665 338.922,52.400 338.879,52.400 339.102 M73.600 340.552 C 73.600 340.635,74.455 341.386,75.500 342.220 L 77.400 343.737 75.819 342.069 C 74.443 340.616,73.600 340.040,73.600 340.552 M112.861 343.552 C 113.860 344.186,114.800 345.022,114.948 345.410 C 115.097 345.797,115.335 345.998,115.478 345.856 C 115.825 345.508,114.065 343.662,112.720 342.962 C 110.874 342.001,110.955 342.344,112.861 343.552 M55.600 343.047 C 55.600 343.564,57.927 345.807,58.190 345.543 C 58.299 345.434,57.761 344.737,56.994 343.994 C 56.227 343.251,55.600 342.825,55.600 343.047 M78.000 344.325 C 78.000 344.629,78.434 344.980,82.000 347.552 C 82.770 348.108,82.320 347.544,81.000 346.299 C 78.663 344.095,78.000 343.659,78.000 344.325 M102.584 345.227 C 102.439 345.461,102.416 345.749,102.533 345.867 C 102.820 346.153,103.600 345.648,103.600 345.176 C 103.600 344.665,102.909 344.699,102.584 345.227 M387.948 345.705 C 387.646 346.003,384.886 347.523,381.814 349.081 C 378.742 350.639,376.161 352.118,376.077 352.368 C 375.987 352.639,376.506 352.546,377.363 352.137 C 378.153 351.760,378.800 351.295,378.800 351.102 C 378.800 350.910,378.980 350.864,379.200 351.000 C 379.420 351.136,379.602 351.102,379.604 350.924 C 379.606 350.746,381.377 349.719,383.540 348.641 C 387.823 346.508,389.062 345.729,388.718 345.385 C 388.596 345.262,388.249 345.406,387.948 345.705 M59.200 347.026 C 59.200 347.547,63.518 351.816,63.780 351.554 C 63.889 351.444,62.904 350.290,61.590 348.990 C 60.275 347.689,59.200 346.806,59.200 347.026 M86.000 350.400 C 86.550 350.830,87.180 351.182,87.400 351.182 C 87.620 351.182,87.350 350.830,86.800 350.400 C 86.250 349.970,85.620 349.618,85.400 349.618 C 85.180 349.618,85.450 349.970,86.000 350.400 M88.000 351.572 C 88.000 351.792,88.360 352.165,88.800 352.400 C 89.315 352.675,89.600 352.685,89.600 352.428 C 89.600 352.208,89.240 351.835,88.800 351.600 C 88.285 351.325,88.000 351.315,88.000 351.572 M398.043 352.844 C 397.517 353.271,397.177 353.710,397.287 353.820 C 397.397 353.930,397.917 353.671,398.443 353.244 C 398.970 352.818,399.310 352.379,399.200 352.269 C 399.090 352.159,398.570 352.418,398.043 352.844 M150.800 352.802 C 150.800 353.227,154.776 355.357,155.053 355.081 C 155.148 354.986,154.680 354.682,154.013 354.405 C 153.346 354.129,152.800 353.774,152.800 353.616 C 152.800 353.458,152.350 353.123,151.800 352.873 C 151.209 352.604,150.800 352.575,150.800 352.802 M90.400 353.186 C 91.338 353.883,94.800 355.637,94.800 355.413 C 94.800 355.303,93.855 354.716,92.700 354.109 C 90.305 352.850,89.530 352.539,90.400 353.186 M67.600 355.213 C 68.810 356.301,69.969 357.193,70.176 357.196 C 70.383 357.198,69.573 356.308,68.376 355.218 C 67.179 354.128,66.020 353.236,65.800 353.235 C 65.580 353.235,66.390 354.125,67.600 355.213 M372.300 354.229 C 370.749 355.070,370.925 355.361,372.500 354.559 C 374.008 353.793,374.275 353.594,373.767 353.616 C 373.565 353.625,372.905 353.901,372.300 354.229 M102.400 354.600 C 102.400 354.930,102.580 355.200,102.800 355.200 C 103.020 355.200,103.200 354.930,103.200 354.600 C 103.200 354.270,103.020 354.000,102.800 354.000 C 102.580 354.000,102.400 354.270,102.400 354.600 M394.600 355.010 C 393.720 355.552,393.142 355.997,393.316 355.998 C 393.760 356.001,396.800 354.425,396.800 354.192 C 396.800 353.809,396.169 354.044,394.600 355.010 M157.200 356.198 C 157.200 356.467,161.249 358.484,161.429 358.305 C 161.511 358.223,160.593 357.673,159.389 357.082 C 158.185 356.492,157.200 356.094,157.200 356.198 M97.600 357.000 C 98.150 357.314,98.780 357.572,99.000 357.572 C 99.220 357.572,98.950 357.314,98.400 357.000 C 97.850 356.686,97.220 356.428,97.000 356.428 C 96.780 356.428,97.050 356.686,97.600 357.000 M366.176 357.387 C 365.749 357.710,365.610 357.980,365.867 357.987 C 366.627 358.008,367.600 357.542,367.600 357.157 C 367.600 356.633,367.058 356.721,366.176 357.387 M389.400 357.672 C 388.520 358.132,387.740 358.665,387.666 358.857 C 387.592 359.048,387.367 359.103,387.166 358.979 C 386.965 358.855,386.800 358.943,386.800 359.176 C 386.800 359.767,387.438 359.705,388.091 359.052 C 388.392 358.750,389.215 358.206,389.920 357.842 C 390.624 357.477,391.200 357.094,391.200 356.990 C 391.200 356.730,391.205 356.728,389.400 357.672 M100.400 358.357 C 100.400 358.554,100.685 358.824,101.033 358.957 C 101.893 359.287,102.000 359.267,102.000 358.776 C 102.000 358.543,101.820 358.464,101.600 358.600 C 101.380 358.736,101.200 358.657,101.200 358.424 C 101.200 358.191,101.020 358.000,100.800 358.000 C 100.580 358.000,100.400 358.161,100.400 358.357 M364.800 358.400 C 364.800 358.646,364.635 358.745,364.434 358.621 C 364.233 358.497,364.008 358.554,363.934 358.749 C 363.860 358.944,362.116 359.947,360.058 360.977 C 358.000 362.007,356.386 362.919,356.471 363.004 C 356.555 363.089,358.668 362.113,361.165 360.835 C 363.729 359.523,365.508 358.390,365.253 358.233 C 365.004 358.079,364.800 358.154,364.800 358.400 M72.800 359.124 C 72.800 359.560,74.883 361.200,75.437 361.200 C 75.610 361.200,75.400 360.885,74.970 360.500 C 73.379 359.073,72.800 358.706,72.800 359.124 M383.200 361.028 C 378.718 363.628,378.610 363.794,382.700 361.798 C 384.735 360.805,386.400 359.814,386.400 359.596 C 386.400 359.378,386.355 359.220,386.300 359.244 C 386.245 359.268,384.850 360.071,383.200 361.028 M165.243 360.576 C 165.611 360.945,173.698 364.835,173.827 364.706 C 173.983 364.550,165.834 360.400,165.372 360.400 C 165.204 360.400,165.146 360.479,165.243 360.576 M353.430 364.265 C 351.113 365.520,350.336 366.598,352.500 365.556 C 353.545 365.052,354.400 364.486,354.400 364.297 C 354.400 364.108,354.580 364.064,354.800 364.200 C 355.020 364.336,355.200 364.257,355.200 364.024 C 355.200 363.458,354.827 363.509,353.430 364.265 M81.925 365.548 C 83.224 366.776,84.000 367.122,84.000 366.474 C 84.000 366.294,83.235 365.731,82.300 365.222 L 80.600 364.296 81.925 365.548 M374.900 365.498 C 373.004 366.442,373.057 367.212,374.959 366.346 C 375.694 366.011,376.881 364.652,376.287 364.826 C 376.239 364.840,375.615 365.142,374.900 365.498 M176.000 366.194 C 176.000 366.421,180.634 368.800,181.075 368.800 C 181.239 368.800,180.395 368.170,179.200 367.400 C 177.237 366.136,176.000 365.669,176.000 366.194 M85.200 367.394 C 85.200 367.631,89.851 370.004,90.289 369.991 C 90.566 369.983,85.610 367.200,85.319 367.200 C 85.253 367.200,85.200 367.287,85.200 367.394 M347.065 367.847 C 346.440 368.186,346.015 368.548,346.120 368.653 C 346.224 368.757,346.915 368.474,347.655 368.023 C 349.213 367.073,348.748 366.935,347.065 367.847 M368.600 369.031 C 367.720 369.557,367.142 369.990,367.316 369.993 C 367.754 370.003,370.800 368.428,370.800 368.192 C 370.800 367.843,370.218 368.064,368.600 369.031 M122.400 369.800 C 122.400 370.130,122.580 370.400,122.800 370.400 C 123.020 370.400,123.200 370.130,123.200 369.800 C 123.200 369.470,123.020 369.200,122.800 369.200 C 122.580 369.200,122.400 369.470,122.400 369.800 M184.800 370.567 C 184.800 370.652,185.430 371.093,186.200 371.547 C 186.970 372.001,187.600 372.232,187.600 372.061 C 187.600 371.889,186.970 371.448,186.200 371.081 C 185.430 370.713,184.800 370.482,184.800 370.567 M340.814 371.186 C 340.381 371.619,339.121 372.432,338.014 372.993 C 336.906 373.554,336.000 374.110,336.000 374.227 C 336.000 374.344,337.440 373.691,339.200 372.776 C 340.960 371.860,342.400 370.951,342.400 370.755 C 342.400 370.154,341.640 370.360,340.814 371.186 M364.200 371.272 C 363.320 371.732,362.540 372.265,362.466 372.457 C 362.392 372.648,362.212 372.733,362.066 372.644 C 361.920 372.556,361.568 372.735,361.284 373.042 C 361.001 373.349,360.874 373.600,361.004 373.600 C 361.332 373.600,363.631 372.394,364.162 371.944 C 364.403 371.740,364.960 371.315,365.400 370.999 C 366.528 370.190,366.069 370.295,364.200 371.272 M92.700 371.065 C 92.975 371.176,93.200 371.522,93.200 371.833 C 93.200 372.470,93.555 372.543,94.311 372.063 C 94.791 371.759,93.279 370.742,92.481 370.832 C 92.327 370.849,92.425 370.954,92.700 371.065 M188.800 372.727 C 188.800 373.045,193.205 375.329,193.414 375.119 C 193.479 375.054,192.467 374.420,191.166 373.711 C 189.865 373.002,188.800 372.559,188.800 372.727 M89.200 373.249 C 87.463 373.942,84.692 377.225,85.317 377.850 C 85.413 377.947,85.723 377.469,86.005 376.788 C 86.572 375.419,88.358 373.926,90.200 373.283 C 90.860 373.052,91.130 372.860,90.800 372.857 C 90.470 372.854,89.750 373.030,89.200 373.249 M357.280 375.075 C 355.894 375.855,354.826 376.559,354.906 376.640 C 355.076 376.810,360.400 374.032,360.400 373.773 C 360.400 373.416,359.730 373.695,357.280 375.075 M333.061 375.446 C 331.994 376.001,331.213 376.546,331.324 376.657 C 331.435 376.768,332.487 376.307,333.663 375.633 C 336.231 374.161,335.793 374.025,333.061 375.446 M194.000 375.379 C 194.000 375.474,195.350 376.259,197.000 377.124 C 198.650 377.988,200.000 378.579,200.000 378.436 C 200.000 378.293,198.650 377.507,197.000 376.691 C 195.350 375.875,194.000 375.284,194.000 375.379 M121.049 378.417 C 120.417 379.086,119.981 379.714,120.080 379.813 C 120.179 379.912,120.816 379.364,121.496 378.596 C 123.013 376.882,122.639 376.732,121.049 378.417 M328.418 377.892 C 328.098 378.018,327.648 378.280,327.418 378.474 C 327.188 378.668,326.640 379.095,326.200 379.423 C 325.760 379.751,326.255 379.619,327.300 379.130 C 328.694 378.478,330.083 377.321,329.100 377.632 C 329.045 377.649,328.738 377.766,328.418 377.892 M84.901 380.200 C 84.905 381.080,84.987 381.393,85.083 380.895 C 85.179 380.398,85.175 379.678,85.075 379.295 C 84.975 378.913,84.896 379.320,84.901 380.200 M348.900 379.465 C 348.347 379.688,348.213 380.400,348.724 380.400 C 348.901 380.400,349.396 380.136,349.824 379.813 C 350.613 379.215,350.047 379.002,348.900 379.465 M202.800 380.192 C 202.800 380.425,205.840 382.001,206.284 381.998 C 206.672 381.995,203.520 380.030,203.100 380.012 C 202.935 380.006,202.800 380.086,202.800 380.192 M319.406 382.813 C 317.869 383.667,316.541 384.577,316.455 384.836 C 316.368 385.095,317.086 384.821,318.049 384.229 C 319.012 383.636,320.250 382.939,320.800 382.680 C 321.883 382.170,323.063 381.181,322.529 381.231 C 322.348 381.248,320.943 381.960,319.406 382.813 M343.600 382.600 C 342.610 383.130,341.942 383.572,342.116 383.582 C 342.541 383.606,345.600 382.034,345.600 381.792 C 345.600 381.527,345.617 381.520,343.600 382.600 M210.600 384.078 C 211.040 384.327,211.500 384.680,211.621 384.862 C 211.856 385.212,219.063 388.801,219.527 388.799 C 219.677 388.798,217.730 387.632,215.200 386.207 C 212.670 384.783,210.420 383.619,210.200 383.621 C 209.980 383.623,210.160 383.828,210.600 384.078 M337.600 385.800 C 336.405 386.570,335.562 387.200,335.727 387.200 C 336.381 387.200,340.000 385.162,340.000 384.793 C 340.000 384.248,340.027 384.237,337.600 385.800 M86.475 385.225 C 86.571 385.514,86.886 385.829,87.175 385.925 C 87.475 386.025,87.625 385.875,87.525 385.575 C 87.429 385.286,87.114 384.971,86.825 384.875 C 86.525 384.775,86.375 384.925,86.475 385.225 M313.100 386.426 C 311.835 387.079,310.800 387.703,310.800 387.812 C 310.800 387.991,315.560 385.725,315.967 385.353 C 316.490 384.873,315.098 385.394,313.100 386.426 M88.000 386.327 C 88.000 386.689,89.748 387.600,90.442 387.600 C 90.665 387.600,90.729 387.408,90.584 387.173 C 90.439 386.939,90.217 386.849,90.092 386.975 C 89.966 387.100,89.444 386.928,88.932 386.592 C 88.419 386.256,88.000 386.137,88.000 386.327 M331.698 388.907 C 330.102 389.799,328.862 390.596,328.944 390.677 C 329.111 390.844,335.200 387.621,335.200 387.365 C 335.200 387.029,334.531 387.323,331.698 388.907 M307.500 389.227 C 306.675 389.663,306.000 390.105,306.000 390.210 C 306.000 390.610,307.167 390.376,307.671 389.874 C 307.962 389.585,308.560 389.140,309.000 388.886 C 310.363 388.100,309.087 388.390,307.500 389.227 M221.600 389.794 C 221.600 389.896,222.176 390.277,222.880 390.642 C 223.585 391.006,224.408 391.550,224.709 391.852 C 225.313 392.455,226.000 392.579,226.000 392.083 C 226.000 391.909,225.010 391.281,223.800 390.688 C 222.590 390.094,221.600 389.692,221.600 389.794 M301.776 392.587 C 301.349 392.910,301.180 393.175,301.400 393.175 C 301.620 393.175,302.149 392.910,302.576 392.587 C 303.004 392.264,303.173 392.000,302.953 392.000 C 302.733 392.000,302.204 392.264,301.776 392.587 M323.256 393.613 C 322.736 394.046,322.430 394.400,322.576 394.400 C 322.978 394.400,325.200 393.206,325.200 392.990 C 325.200 392.543,324.128 392.887,323.256 393.613 M230.400 394.588 C 230.400 394.691,231.752 395.400,233.405 396.164 C 235.057 396.928,236.690 397.833,237.033 398.176 C 237.698 398.841,238.400 399.002,238.400 398.490 C 238.400 398.220,231.110 394.400,230.595 394.400 C 230.488 394.400,230.400 394.485,230.400 394.588 M294.910 396.098 C 293.100 397.019,291.531 398.004,291.422 398.288 C 291.197 398.873,294.197 397.460,295.103 396.554 C 295.408 396.249,295.894 396.000,296.184 396.000 C 296.474 396.000,297.136 395.646,297.656 395.213 C 299.007 394.088,298.610 394.215,294.910 396.098 M318.000 396.400 C 316.790 397.039,315.941 397.571,316.113 397.581 C 316.538 397.607,320.400 395.636,320.400 395.393 C 320.400 395.126,320.455 395.103,318.000 396.400 M311.499 399.951 C 306.967 402.497,307.493 402.587,312.300 400.088 C 314.590 398.898,315.281 398.373,314.500 398.417 C 314.335 398.426,312.985 399.117,311.499 399.951 M288.300 399.826 C 287.255 400.370,286.400 400.905,286.400 401.014 C 286.400 401.193,290.360 399.323,290.767 398.952 C 291.262 398.501,289.961 398.962,288.300 399.826 M239.600 399.395 C 239.600 399.628,245.045 402.402,245.490 402.395 C 245.865 402.390,240.327 399.241,239.900 399.217 C 239.735 399.208,239.600 399.288,239.600 399.395 M248.640 404.161 C 248.813 404.612,250.447 405.600,251.019 405.600 C 251.672 405.600,250.978 404.842,249.818 404.289 C 248.780 403.794,248.487 403.762,248.640 404.161 M303.700 404.088 C 302.797 404.524,302.476 405.200,303.171 405.200 C 303.542 405.200,304.800 404.096,304.800 403.771 C 304.800 403.558,304.796 403.560,303.700 404.088 M297.800 407.410 C 296.920 407.952,296.342 408.397,296.516 408.398 C 296.960 408.401,300.000 406.825,300.000 406.592 C 300.000 406.209,299.369 406.444,297.800 407.410 M254.833 407.365 C 254.925 407.455,256.530 408.290,258.400 409.219 C 260.270 410.149,261.890 411.038,262.000 411.195 C 262.578 412.020,264.400 412.613,264.400 411.976 C 264.400 411.743,264.235 411.655,264.034 411.779 C 263.833 411.903,263.608 411.845,263.534 411.650 C 263.460 411.455,261.558 410.374,259.307 409.248 C 255.656 407.421,254.323 406.860,254.833 407.365 M292.600 410.072 C 291.720 410.532,290.940 411.065,290.866 411.257 C 290.792 411.448,290.567 411.503,290.366 411.379 C 290.165 411.255,290.000 411.343,290.000 411.576 C 290.000 412.167,290.638 412.105,291.291 411.452 C 291.592 411.150,292.415 410.606,293.120 410.242 C 293.824 409.877,294.400 409.494,294.400 409.390 C 294.400 409.130,294.405 409.128,292.600 410.072 M286.802 413.238 C 285.373 414.097,284.343 414.800,284.513 414.800 C 285.184 414.800,289.600 412.365,289.600 411.994 C 289.600 411.511,289.890 411.382,286.802 413.238 M267.200 413.792 C 267.200 414.027,270.244 415.602,270.684 415.595 C 270.858 415.593,270.217 415.143,269.259 414.595 C 267.461 413.567,267.200 413.465,267.200 413.792 M282.700 415.429 C 281.205 416.240,281.296 416.578,282.800 415.800 C 283.460 415.459,284.000 415.094,284.000 414.990 C 284.000 414.732,283.957 414.747,282.700 415.429 " stroke="none" fill="#cbcbcb" fill-rule="evenodd"></path><path id="path2" d="M264.400 133.600 C 263.630 134.022,263.144 134.374,263.320 134.383 C 263.744 134.405,266.000 133.232,266.000 132.990 C 266.000 132.728,265.977 132.737,264.400 133.600 M285.200 134.961 C 285.200 135.049,285.785 135.317,286.500 135.555 C 287.689 135.952,287.734 135.938,287.024 135.395 C 286.308 134.847,285.200 134.583,285.200 134.961 M206.300 139.429 C 204.749 140.270,204.925 140.561,206.500 139.759 C 208.008 138.993,208.275 138.794,207.767 138.816 C 207.565 138.825,206.905 139.101,206.300 139.429 M248.500 141.688 C 248.005 141.927,247.600 142.279,247.600 142.470 C 247.600 142.662,248.050 142.524,248.600 142.163 C 250.067 141.202,250.016 140.957,248.500 141.688 M254.100 150.944 C 252.864 151.556,252.957 152.094,254.200 151.527 C 254.750 151.277,255.200 150.920,255.200 150.736 C 255.200 150.551,255.155 150.422,255.100 150.449 C 255.045 150.476,254.595 150.699,254.100 150.944 M294.400 150.998 C 294.400 151.267,298.449 153.284,298.629 153.105 C 298.711 153.023,297.793 152.473,296.589 151.882 C 295.385 151.292,294.400 150.894,294.400 150.998 M209.612 161.984 C 208.659 162.587,209.309 162.714,210.400 162.139 C 210.951 161.848,211.131 161.612,210.800 161.612 C 210.470 161.612,209.935 161.780,209.612 161.984 M212.700 172.629 C 211.205 173.440,211.296 173.778,212.800 173.000 C 213.460 172.659,214.000 172.294,214.000 172.190 C 214.000 171.932,213.957 171.947,212.700 172.629 M368.799 175.381 C 369.349 175.686,369.884 175.849,369.988 175.746 C 370.257 175.476,369.114 174.811,368.400 174.820 C 368.052 174.825,368.220 175.061,368.799 175.381 M201.600 178.400 C 200.830 178.822,200.344 179.174,200.520 179.183 C 200.944 179.205,203.200 178.032,203.200 177.790 C 203.200 177.528,203.177 177.537,201.600 178.400 M395.199 188.151 C 395.749 188.472,396.274 188.659,396.366 188.567 C 396.614 188.319,396.314 188.130,395.200 187.833 L 394.200 187.567 395.199 188.151 M175.900 191.829 C 174.405 192.640,174.496 192.978,176.000 192.200 C 176.660 191.859,177.200 191.494,177.200 191.390 C 177.200 191.132,177.157 191.147,175.900 191.829 M167.633 198.549 C 168.045 198.917,170.400 200.000,170.400 199.821 C 170.400 199.590,168.182 198.400,167.753 198.400 C 167.596 198.400,167.542 198.467,167.633 198.549 M389.299 273.667 C 389.245 312.754,389.096 345.064,388.970 345.467 C 388.764 346.123,388.785 346.130,389.171 345.534 C 389.476 345.062,389.572 324.081,389.500 273.734 L 389.398 202.600 389.299 273.667 M180.000 204.584 C 180.000 204.694,180.720 205.151,181.600 205.600 C 182.480 206.049,183.200 206.326,183.200 206.216 C 183.200 206.106,182.480 205.649,181.600 205.200 C 180.720 204.751,180.000 204.474,180.000 204.584 M192.800 210.987 C 192.800 211.097,193.700 211.643,194.800 212.200 C 195.900 212.757,196.800 213.123,196.800 213.013 C 196.800 212.903,195.900 212.357,194.800 211.800 C 193.700 211.243,192.800 210.877,192.800 210.987 M205.600 217.388 C 205.600 217.498,206.680 218.134,208.000 218.800 C 209.320 219.466,210.400 219.922,210.400 219.812 C 210.400 219.702,209.320 219.066,208.000 218.400 C 206.680 217.734,205.600 217.278,205.600 217.388 M220.000 224.584 C 220.000 224.694,220.720 225.151,221.600 225.600 C 222.480 226.049,223.200 226.326,223.200 226.216 C 223.200 226.106,222.480 225.649,221.600 225.200 C 220.720 224.751,220.000 224.474,220.000 224.584 M112.400 226.382 C 112.730 226.605,113.345 226.791,113.767 226.794 C 114.790 226.802,114.471 226.573,113.000 226.244 C 112.124 226.048,111.962 226.085,112.400 226.382 M119.400 226.800 C 119.840 226.989,120.920 227.136,121.800 227.126 L 123.400 227.108 121.800 226.777 C 120.920 226.595,119.840 226.448,119.400 226.451 L 118.600 226.456 119.400 226.800 M131.355 235.800 C 131.356 238.660,131.420 239.778,131.497 238.283 C 131.574 236.789,131.574 234.449,131.496 233.083 C 131.418 231.718,131.355 232.940,131.355 235.800 M232.800 230.984 C 232.800 231.094,233.520 231.551,234.400 232.000 C 235.280 232.449,236.000 232.726,236.000 232.616 C 236.000 232.506,235.280 232.049,234.400 231.600 C 233.520 231.151,232.800 230.874,232.800 230.984 M246.400 237.779 C 246.400 237.889,246.940 238.259,247.600 238.600 C 248.260 238.941,248.800 239.131,248.800 239.021 C 248.800 238.911,248.260 238.541,247.600 238.200 C 246.940 237.859,246.400 237.669,246.400 237.779 M116.100 241.087 C 116.705 241.178,117.695 241.178,118.300 241.087 C 118.905 240.995,118.410 240.920,117.200 240.920 C 115.990 240.920,115.495 240.995,116.100 241.087 M126.900 241.076 C 127.285 241.176,127.915 241.176,128.300 241.076 C 128.685 240.975,128.370 240.893,127.600 240.893 C 126.830 240.893,126.515 240.975,126.900 241.076 M148.259 264.100 C 147.846 267.540,147.952 278.000,148.400 278.000 C 148.653 278.000,148.800 275.067,148.800 270.000 C 148.800 261.719,148.690 260.516,148.259 264.100 M52.678 311.395 C 53.044 312.162,53.398 312.735,53.465 312.669 C 53.684 312.449,52.632 310.000,52.319 310.000 C 52.151 310.000,52.312 310.628,52.678 311.395 M54.200 314.400 C 54.541 315.060,54.911 315.600,55.021 315.600 C 55.131 315.600,54.941 315.060,54.600 314.400 C 54.259 313.740,53.889 313.200,53.779 313.200 C 53.669 313.200,53.859 313.740,54.200 314.400 M71.978 338.975 C 72.737 339.759,73.417 340.400,73.490 340.400 C 73.859 340.400,71.790 338.005,71.239 337.795 C 70.888 337.661,71.220 338.192,71.978 338.975 M75.970 342.900 C 76.503 343.505,77.223 343.986,77.570 343.968 C 78.109 343.941,78.114 343.905,77.600 343.718 C 77.270 343.597,76.550 343.116,76.000 342.649 L 75.000 341.800 75.970 342.900 M64.800 352.400 C 65.035 352.840,65.430 353.200,65.676 353.200 C 65.922 353.200,65.798 352.840,65.400 352.400 C 65.002 351.960,64.608 351.600,64.524 351.600 C 64.440 351.600,64.565 351.960,64.800 352.400 M98.399 357.751 C 98.949 358.072,99.474 358.259,99.566 358.167 C 99.814 357.919,99.514 357.730,98.400 357.433 L 97.400 357.167 98.399 357.751 M164.000 359.582 C 164.000 359.975,165.549 360.584,165.832 360.301 C 165.926 360.207,165.553 359.925,165.002 359.674 C 164.451 359.423,164.000 359.381,164.000 359.582 M118.799 379.849 L 117.800 380.433 118.800 380.167 C 119.914 379.870,120.214 379.681,119.966 379.433 C 119.874 379.341,119.349 379.528,118.799 379.849 M204.400 380.579 C 204.400 380.689,204.940 381.059,205.600 381.400 C 206.260 381.741,206.800 381.931,206.800 381.821 C 206.800 381.711,206.260 381.341,205.600 381.000 C 204.940 380.659,204.400 380.469,204.400 380.579 " stroke="none" fill="#7c7c7c" fill-rule="evenodd"></path><path id="path3" d="M130.684 2.221 C 131.390 2.777,132.439 3.810,133.016 4.516 C 133.593 5.222,133.880 5.424,133.653 4.966 C 133.211 4.068,130.192 1.197,129.699 1.204 C 129.534 1.207,129.978 1.664,130.684 2.221 M112.102 10.500 C 111.536 11.215,110.740 12.800,110.946 12.800 C 111.042 12.800,111.493 12.170,111.947 11.400 C 112.773 10.001,112.849 9.557,112.102 10.500 M150.600 54.800 C 150.941 55.460,151.311 56.000,151.421 56.000 C 151.531 56.000,151.341 55.460,151.000 54.800 C 150.659 54.140,150.289 53.600,150.179 53.600 C 150.069 53.600,150.259 54.140,150.600 54.800 M112.913 61.841 C 112.667 62.918,112.529 63.862,112.606 63.940 C 112.829 64.162,113.663 60.790,113.504 60.312 C 113.426 60.077,113.160 60.765,112.913 61.841 M106.833 86.233 C 106.575 87.259,106.439 88.172,106.531 88.264 C 106.622 88.356,106.909 87.592,107.167 86.567 C 107.425 85.541,107.561 84.628,107.469 84.536 C 107.378 84.444,107.091 85.208,106.833 86.233 M100.679 111.500 C 100.369 112.053,99.932 114.202,100.180 113.954 C 100.477 113.656,101.205 111.200,100.996 111.200 C 100.914 111.200,100.771 111.335,100.679 111.500 M182.800 111.489 C 182.800 111.721,183.171 112.336,183.624 112.856 L 184.447 113.800 183.745 112.600 C 182.820 111.021,182.800 110.997,182.800 111.489 M267.500 132.229 C 266.005 133.040,266.096 133.378,267.600 132.600 C 268.260 132.259,268.800 131.894,268.800 131.790 C 268.800 131.532,268.757 131.547,267.500 132.229 M94.207 137.700 C 93.706 139.194,93.171 141.704,93.321 141.854 C 93.416 141.950,93.768 140.942,94.103 139.614 C 94.628 137.528,94.699 136.234,94.207 137.700 M203.100 140.827 C 202.275 141.263,201.600 141.708,201.600 141.818 C 201.600 141.927,202.320 141.649,203.200 141.200 C 204.080 140.751,204.800 140.297,204.800 140.192 C 204.800 139.930,204.797 139.931,203.100 140.827 M272.700 141.029 C 271.205 141.840,271.296 142.178,272.800 141.400 C 273.460 141.059,274.000 140.694,274.000 140.590 C 274.000 140.332,273.957 140.347,272.700 141.029 M261.900 146.629 C 260.449 147.416,260.499 147.644,262.000 147.078 C 262.660 146.828,263.200 146.484,263.200 146.312 C 263.200 145.919,263.216 145.915,261.900 146.629 M285.213 146.294 C 285.227 146.609,290.000 148.892,290.000 148.584 C 290.000 148.489,288.920 147.866,287.600 147.200 C 286.280 146.534,285.206 146.126,285.213 146.294 M229.500 152.027 C 228.675 152.463,228.000 152.908,228.000 153.018 C 228.000 153.127,228.720 152.849,229.600 152.400 C 230.480 151.951,231.200 151.497,231.200 151.392 C 231.200 151.130,231.197 151.131,229.500 152.027 M247.500 154.229 C 246.005 155.040,246.096 155.378,247.600 154.600 C 248.260 154.259,248.800 153.894,248.800 153.790 C 248.800 153.532,248.757 153.547,247.500 154.229 M217.100 158.427 C 216.275 158.863,215.600 159.308,215.600 159.418 C 215.600 159.527,216.320 159.249,217.200 158.800 C 218.080 158.351,218.800 157.897,218.800 157.792 C 218.800 157.530,218.797 157.531,217.100 158.427 M332.033 157.751 C 332.442 158.121,335.600 159.595,335.600 159.416 C 335.600 159.189,332.581 157.600,332.149 157.600 C 331.994 157.600,331.942 157.668,332.033 157.751 M311.200 158.998 C 311.200 159.266,316.049 161.685,316.228 161.506 C 316.308 161.425,315.210 160.785,313.787 160.083 C 312.364 159.382,311.200 158.893,311.200 158.998 M235.900 160.229 C 234.405 161.040,234.496 161.378,236.000 160.600 C 236.660 160.259,237.200 159.894,237.200 159.790 C 237.200 159.532,237.157 159.547,235.900 160.229 M87.313 165.441 C 87.067 166.518,86.929 167.462,87.006 167.540 C 87.229 167.762,88.063 164.390,87.904 163.912 C 87.826 163.677,87.560 164.365,87.313 165.441 M345.233 164.151 C 345.642 164.521,348.800 165.995,348.800 165.816 C 348.800 165.589,345.781 164.000,345.349 164.000 C 345.194 164.000,345.142 164.068,345.233 164.151 M326.433 166.549 C 326.845 166.917,329.200 168.000,329.200 167.821 C 329.200 167.590,326.982 166.400,326.553 166.400 C 326.396 166.400,326.342 166.467,326.433 166.549 M358.433 170.552 C 358.841 170.924,362.800 172.793,362.800 172.613 C 362.800 172.388,358.980 170.400,358.547 170.400 C 358.393 170.400,358.342 170.468,358.433 170.552 M338.000 172.198 C 338.000 172.467,342.049 174.484,342.229 174.305 C 342.311 174.223,341.393 173.673,340.189 173.082 C 338.985 172.492,338.000 172.094,338.000 172.198 M178.700 178.427 C 177.875 178.863,177.200 179.308,177.200 179.418 C 177.200 179.596,180.359 178.119,180.767 177.751 C 181.227 177.334,180.025 177.728,178.700 178.427 M364.800 185.396 C 364.800 185.670,367.249 186.884,367.432 186.701 C 367.519 186.614,366.962 186.244,366.195 185.878 C 365.428 185.512,364.800 185.295,364.800 185.396 M81.415 189.281 C 81.040 190.886,80.648 192.470,80.543 192.800 C 80.426 193.170,80.487 193.247,80.703 193.000 C 81.111 192.535,82.495 186.762,82.256 186.523 C 82.168 186.435,81.789 187.676,81.415 189.281 M399.796 271.400 C 399.796 314.520,399.843 332.101,399.900 310.468 C 399.957 288.836,399.957 253.556,399.900 232.068 C 399.843 210.581,399.796 228.280,399.796 271.400 M389.600 274.280 C 389.490 313.704,389.535 345.825,389.701 345.659 C 389.867 345.493,389.957 313.237,389.901 273.979 L 389.800 202.600 389.600 274.280 M352.344 211.224 L 351.400 212.047 352.600 211.345 C 354.179 210.420,354.203 210.400,353.711 210.400 C 353.479 210.400,352.864 210.771,352.344 211.224 M4.744 211.976 C 5.264 212.429,5.879 212.800,6.111 212.800 C 6.603 212.800,6.579 212.780,5.000 211.855 L 3.800 211.153 4.744 211.976 M216.400 222.979 C 216.400 223.089,216.940 223.459,217.600 223.800 C 218.260 224.141,218.800 224.331,218.800 224.221 C 218.800 224.111,218.260 223.741,217.600 223.400 C 216.940 223.059,216.400 222.869,216.400 222.979 M92.652 223.990 C 92.843 224.170,93.810 224.424,94.800 224.554 C 96.901 224.830,96.547 224.588,94.052 224.044 C 93.090 223.835,92.460 223.811,92.652 223.990 M33.820 225.172 C 34.029 225.376,34.740 225.655,35.400 225.791 C 36.596 226.039,36.595 226.037,35.254 225.420 C 33.719 224.713,33.272 224.635,33.820 225.172 M106.200 226.000 C 106.336 226.220,106.842 226.397,107.324 226.394 C 108.036 226.389,108.088 226.315,107.600 226.000 C 106.812 225.491,105.885 225.491,106.200 226.000 M110.600 226.400 C 110.736 226.620,111.242 226.797,111.724 226.794 C 112.436 226.789,112.488 226.715,112.000 226.400 C 111.212 225.891,110.285 225.891,110.600 226.400 M116.400 226.800 C 116.400 227.020,117.075 227.197,117.900 227.194 C 119.016 227.189,119.246 227.088,118.800 226.800 C 118.012 226.291,116.400 226.291,116.400 226.800 M229.200 229.379 C 229.200 229.489,229.740 229.859,230.400 230.200 C 231.060 230.541,231.600 230.731,231.600 230.621 C 231.600 230.511,231.060 230.141,230.400 229.800 C 229.740 229.459,229.200 229.269,229.200 229.379 M53.453 231.578 C 53.884 231.967,57.637 232.897,57.863 232.671 C 57.953 232.580,56.920 232.226,55.567 231.886 C 54.213 231.545,53.262 231.406,53.453 231.578 M130.931 237.800 C 130.933 239.340,131.005 239.921,131.092 239.091 C 131.179 238.261,131.177 237.001,131.089 236.291 C 131.000 235.581,130.929 236.260,130.931 237.800 M148.257 237.659 C 147.930 240.788,148.005 249.809,148.386 253.200 C 148.577 254.905,148.699 252.253,148.739 245.500 C 148.802 234.932,148.705 233.368,148.257 237.659 M242.000 235.779 C 242.000 235.889,242.540 236.259,243.200 236.600 C 243.860 236.941,244.400 237.131,244.400 237.021 C 244.400 236.911,243.860 236.541,243.200 236.200 C 242.540 235.859,242.000 235.669,242.000 235.779 M80.000 237.600 C 80.330 237.813,80.870 237.988,81.200 237.988 C 81.733 237.988,81.733 237.945,81.200 237.600 C 80.870 237.387,80.330 237.212,80.000 237.212 C 79.467 237.212,79.467 237.255,80.000 237.600 M85.000 238.380 C 86.234 238.715,89.064 238.918,88.767 238.650 C 88.675 238.568,87.520 238.400,86.200 238.277 C 84.622 238.130,84.211 238.165,85.000 238.380 M89.700 239.076 C 90.085 239.176,90.715 239.176,91.100 239.076 C 91.485 238.975,91.170 238.893,90.400 238.893 C 89.630 238.893,89.315 238.975,89.700 239.076 M121.700 241.076 C 122.085 241.176,122.715 241.176,123.100 241.076 C 123.485 240.975,123.170 240.893,122.400 240.893 C 121.630 240.893,121.315 240.975,121.700 241.076 M269.200 249.379 C 269.200 249.489,269.740 249.859,270.400 250.200 C 271.060 250.541,271.600 250.731,271.600 250.621 C 271.600 250.511,271.060 250.141,270.400 249.800 C 269.740 249.459,269.200 249.269,269.200 249.379 M27.979 254.255 C 27.758 254.836,27.652 255.385,27.743 255.476 C 27.833 255.567,28.099 255.092,28.333 254.420 C 28.853 252.928,28.539 252.782,27.979 254.255 M41.720 257.200 C 41.720 258.410,41.795 258.905,41.887 258.300 C 41.978 257.695,41.978 256.705,41.887 256.100 C 41.795 255.495,41.720 255.990,41.720 257.200 M27.751 260.800 C 27.751 263.330,27.816 264.365,27.896 263.100 C 27.975 261.835,27.975 259.765,27.896 258.500 C 27.816 257.235,27.751 258.270,27.751 260.800 M41.628 265.633 C 41.644 266.825,41.810 268.160,41.997 268.600 C 42.203 269.084,42.249 268.292,42.113 266.600 C 41.839 263.187,41.590 262.690,41.628 265.633 M28.109 270.800 C 28.109 271.790,28.187 272.195,28.282 271.700 C 28.378 271.205,28.378 270.395,28.282 269.900 C 28.187 269.405,28.109 269.810,28.109 270.800 M28.273 274.400 C 28.404 275.390,28.576 276.275,28.656 276.367 C 28.957 276.714,28.728 274.164,28.390 273.400 C 28.153 272.866,28.114 273.198,28.273 274.400 M42.893 278.000 C 42.893 278.770,42.975 279.085,43.076 278.700 C 43.176 278.315,43.176 277.685,43.076 277.300 C 42.975 276.915,42.893 277.230,42.893 278.000 M34.240 302.937 C 34.598 303.986,34.961 304.773,35.047 304.687 C 35.255 304.478,34.385 301.904,33.941 301.415 C 33.748 301.204,33.883 301.889,34.240 302.937 M55.400 317.200 C 55.741 317.860,56.111 318.400,56.221 318.400 C 56.331 318.400,56.141 317.860,55.800 317.200 C 55.459 316.540,55.089 316.000,54.979 316.000 C 54.869 316.000,55.059 316.540,55.400 317.200 M148.974 338.000 C 148.974 343.610,149.030 345.905,149.099 343.100 C 149.168 340.295,149.168 335.705,149.099 332.900 C 149.030 330.095,148.974 332.390,148.974 338.000 M69.200 336.600 C 69.946 337.370,70.647 338.000,70.757 338.000 C 70.867 338.000,70.346 337.370,69.600 336.600 C 68.854 335.830,68.153 335.200,68.043 335.200 C 67.933 335.200,68.454 335.830,69.200 336.600 M73.800 341.200 C 74.883 342.300,75.860 343.200,75.970 343.200 C 76.080 343.200,75.283 342.300,74.200 341.200 C 73.117 340.100,72.140 339.200,72.030 339.200 C 71.920 339.200,72.717 340.100,73.800 341.200 M385.100 347.829 C 383.605 348.640,383.696 348.978,385.200 348.200 C 385.860 347.859,386.400 347.494,386.400 347.390 C 386.400 347.132,386.357 347.147,385.100 347.829 M101.600 349.600 C 101.600 350.040,101.780 350.400,102.000 350.400 C 102.220 350.400,102.400 350.040,102.400 349.600 C 102.400 349.160,102.220 348.800,102.000 348.800 C 101.780 348.800,101.600 349.160,101.600 349.600 M149.564 350.733 C 149.780 351.136,150.271 351.721,150.655 352.033 C 151.087 352.384,150.990 352.104,150.401 351.300 C 149.351 349.865,148.957 349.598,149.564 350.733 M156.000 354.984 C 156.000 355.094,156.720 355.551,157.600 356.000 C 158.480 356.449,159.200 356.726,159.200 356.616 C 159.200 356.506,158.480 356.049,157.600 355.600 C 156.720 355.151,156.000 354.874,156.000 354.984 M89.544 369.176 C 90.064 369.629,90.679 370.000,90.911 370.000 C 91.403 370.000,91.379 369.980,89.800 369.055 L 88.600 368.353 89.544 369.176 M182.000 368.579 C 182.000 368.689,182.540 369.059,183.200 369.400 C 183.860 369.741,184.400 369.931,184.400 369.821 C 184.400 369.711,183.860 369.341,183.200 369.000 C 182.540 368.659,182.000 368.469,182.000 368.579 M122.800 373.400 C 122.800 373.950,122.980 374.400,123.200 374.400 C 123.420 374.400,123.600 373.950,123.600 373.400 C 123.600 372.850,123.420 372.400,123.200 372.400 C 122.980 372.400,122.800 372.850,122.800 373.400 M89.376 373.822 C 88.612 374.434,88.613 374.438,89.400 374.076 C 89.840 373.874,90.470 373.608,90.800 373.486 C 91.318 373.293,91.315 373.259,90.776 373.232 C 90.434 373.214,89.804 373.480,89.376 373.822 M86.841 375.814 C 86.159 376.592,85.605 377.447,85.612 377.714 C 85.619 377.981,85.823 377.840,86.066 377.400 C 86.308 376.960,86.967 376.105,87.528 375.500 C 88.090 374.895,88.445 374.400,88.316 374.400 C 88.188 374.400,87.524 375.036,86.841 375.814 M85.314 380.200 C 85.317 381.300,85.395 381.703,85.487 381.095 C 85.579 380.486,85.577 379.586,85.482 379.095 C 85.387 378.603,85.311 379.100,85.314 380.200 M113.000 381.389 C 112.120 381.679,111.760 381.927,112.200 381.940 C 112.640 381.953,113.540 381.717,114.200 381.414 C 115.725 380.716,115.082 380.703,113.000 381.389 M207.200 381.779 C 207.200 381.889,207.740 382.259,208.400 382.600 C 209.060 382.941,209.600 383.131,209.600 383.021 C 209.600 382.911,209.060 382.541,208.400 382.200 C 207.740 381.859,207.200 381.669,207.200 381.779 M108.200 382.800 C 107.696 383.017,107.622 383.144,108.000 383.144 C 108.330 383.144,108.960 382.989,109.400 382.800 C 109.904 382.583,109.978 382.456,109.600 382.456 C 109.270 382.456,108.640 382.611,108.200 382.800 M330.700 389.029 C 329.205 389.840,329.296 390.178,330.800 389.400 C 331.460 389.059,332.000 388.694,332.000 388.590 C 332.000 388.332,331.957 388.347,330.700 389.029 M300.700 393.627 C 299.875 394.063,299.200 394.508,299.200 394.618 C 299.200 394.727,299.920 394.449,300.800 394.000 C 301.680 393.551,302.400 393.097,302.400 392.992 C 302.400 392.730,302.397 392.731,300.700 393.627 " stroke="none" fill="#575757" fill-rule="evenodd"></path><path id="path4" d="M321.633 152.551 C 322.042 152.921,325.200 154.395,325.200 154.216 C 325.200 153.989,322.181 152.400,321.749 152.400 C 321.594 152.400,321.542 152.468,321.633 152.551 M335.200 158.984 C 335.200 159.094,335.920 159.551,336.800 160.000 C 337.680 160.449,338.400 160.726,338.400 160.616 C 338.400 160.506,337.680 160.049,336.800 159.600 C 335.920 159.151,335.200 158.874,335.200 158.984 M349.600 166.200 C 350.150 166.514,350.780 166.772,351.000 166.772 C 351.220 166.772,350.950 166.514,350.400 166.200 C 349.850 165.886,349.220 165.628,349.000 165.628 C 348.780 165.628,349.050 165.886,349.600 166.200 M130.944 231.600 C 130.944 233.690,131.012 234.545,131.094 233.500 C 131.176 232.455,131.176 230.745,131.094 229.700 C 131.012 228.655,130.944 229.510,130.944 231.600 M124.305 241.083 C 124.802 241.179,125.522 241.175,125.905 241.075 C 126.287 240.975,125.880 240.896,125.000 240.901 C 124.120 240.905,123.807 240.987,124.305 241.083 M148.115 258.000 C 148.109 264.147,148.157 264.670,148.503 262.288 C 148.759 260.522,148.761 258.081,148.509 255.288 L 148.122 251.000 148.115 258.000 M41.724 261.400 C 41.726 262.720,41.801 263.212,41.890 262.493 C 41.979 261.774,41.977 260.694,41.886 260.093 C 41.795 259.492,41.722 260.080,41.724 261.400 M62.420 349.821 C 63.399 350.933,64.281 351.781,64.381 351.707 C 64.480 351.633,63.679 350.723,62.601 349.686 L 60.640 347.800 62.420 349.821 " stroke="none" fill="#747474" fill-rule="evenodd"></path></g></svg>