<?xml version="1.0" ?><svg id="Слой_1" style="enable-background:new 0 0 512 512;" version="1.1" viewBox="0 0 512 512" xml:space="preserve" xmlns="http://www.w3.org/2000/svg" xmlns:xlink="http://www.w3.org/1999/xlink"><style type="text/css">
	.st0{fill:#F8B41E;stroke:#2C3E50;stroke-width:11;stroke-linecap:round;stroke-linejoin:round;stroke-miterlimit:10;}
	.st1{fill:#009E83;stroke:#2C3E50;stroke-width:11;stroke-linecap:round;stroke-linejoin:round;stroke-miterlimit:10;}
	.st2{fill:#E5E3E2;stroke:#2C3E50;stroke-width:11;stroke-linecap:round;stroke-linejoin:round;stroke-miterlimit:10;}
	.st3{fill:none;stroke:#2C3E50;stroke-width:11;stroke-linecap:round;stroke-linejoin:round;stroke-miterlimit:10;}
</style><g><path class="st0" d="M378.9,186.1H133.1c-6.6,0-12-5.4-12-12v-112c0-6.6,5.4-12,12-12h245.8c6.6,0,12,5.4,12,12v112   C390.9,180.7,385.5,186.1,378.9,186.1z"/><rect class="st1" height="64" transform="matrix(0.7071 0.7071 -0.7071 0.7071 270.4768 -100.0422)" width="64" x="224" y="244.5"/><path class="st2" d="M224.2,465.7H26.5c-6.6,0-12-5.4-12-12v-87.8c0-6.6,5.4-12,12-12h197.7c6.6,0,12,5.4,12,12v87.8   C236.2,460.3,230.8,465.7,224.2,465.7z"/><path class="st2" d="M485.5,465.7H287.8c-6.6,0-12-5.4-12-12v-87.8c0-6.6,5.4-12,12-12h197.7c6.6,0,12,5.4,12,12v87.8   C497.5,460.3,492.1,465.7,485.5,465.7z"/><line class="st1" x1="256" x2="256" y1="186.1" y2="231.2"/><polyline class="st3" points="210.7,276.5 125.4,276.5 125.4,353.8  "/><polyline class="st3" points="301.3,276.5 386.6,276.5 386.6,353.8  "/></g></svg>